<?xml version="1.0" encoding="utf-8"?>
<!-- Generator: Adobe Illustrator 15.0.0, SVG Export Plug-In . SVG Version: 6.00 Build 0)  -->
<!DOCTYPE svg PUBLIC "-//W3C//DTD SVG 1.1//EN" "http://www.w3.org/Graphics/SVG/1.1/DTD/svg11.dtd">
<svg version="1.1" xmlns="http://www.w3.org/2000/svg" xmlns:xlink="http://www.w3.org/1999/xlink" x="0px" y="0px" width="805px"
	 height="179px" viewBox="0 0 805 179" style="enable-background:new 0 0 805 179;" xml:space="preserve">
<style type="text/css">
<![CDATA[
	.st0{fill:none;stroke:#0A6CB5;stroke-width:1.5;}
	.st1{fill:#FFFFFF;stroke:#0A6CB5;stroke-width:1.5;stroke-miterlimit:10;}
	.st2{fill:none;stroke:#0A6CB5;stroke-width:1.5;stroke-linecap:round;}
	.st3{fill:#FFFFFF;stroke:#042F4F;stroke-width:1.5;stroke-miterlimit:10;}
	.st4{fill:none;stroke:#042F4F;stroke-width:1.5;stroke-linecap:round;}
	.st5{clip-path:url(#SVGID_2_);}
	.st6{clip-path:url(#SVGID_4_);}
	.st7{fill:none;stroke:#0A6CB5;stroke-width:1.5;stroke-linecap:round;stroke-miterlimit:10;}
	.st8{fill:#FFFFFF;}
	.st9{fill:none;stroke:#0A6CB5;stroke-width:1.5;stroke-miterlimit:10;}
	.st10{fill:none;stroke:#042F4F;stroke-width:1.5;}
	.st11{fill:none;stroke:#042F4F;stroke-width:1.5;stroke-linecap:round;stroke-miterlimit:10;}
	.st12{fill:none;stroke:#042F4F;stroke-width:1.5;stroke-miterlimit:10;}
	.st13{fill:#042F4F;}
	.st14{fill:none;stroke:#ADADAD;stroke-width:1.5;stroke-linecap:round;stroke-miterlimit:10;}
	.st15{fill:#0A6CB5;}
]]>
</style>
<g id="Layer_2">
</g>
<g id="Layer_1">
	<g>
		<g>
			<circle class="st9" cx="132.587" cy="44.513" r="34.19"/>
			<g>
				<g>
					<g>
						<path class="st9" d="M115.196,59.863c-0.911,0-1.656-0.745-1.656-1.656V33.432c0-0.911,0.745-1.656,1.656-1.656h35.36
							c0.911,0,1.656,0.745,1.656,1.656v24.776c0,0.911-0.745,1.656-1.656,1.656H115.196z"/>
					</g>
				</g>
			</g>
			<g>
				<g>
					<g>
						<path class="st9" d="M142.366,31.811V24.89c0-0.911-0.745-1.656-1.656-1.656h-15.667c-0.911,0-1.656,0.745-1.656,1.656v6.921"
							/>
					</g>
				</g>
			</g>
			<g>
				<g>
					<polyline class="st9" points="138.561,31.641 138.561,27.952 127.196,27.952 127.196,31.641 					"/>
				</g>
			</g>
		</g>
		<line class="st9" x1="118.147" y1="31.726" x2="118.147" y2="59.503"/>
		<line class="st9" x1="147.688" y1="31.726" x2="147.688" y2="59.503"/>
	</g>
	<g>
		<g>
			<path class="st2" d="M50.098,35.03c-1.654-1.014-3.6-1.601-5.683-1.605c-6.041-0.014-10.951,4.872-10.963,10.917
				c-0.012,6.042,4.876,10.948,10.914,10.962c0.015,0,0.029-0.001,0.044-0.001"/>
			<g>
				<line class="st2" x1="44.383" y1="62.285" x2="44.383" y2="69.285"/>
				<line class="st2" x1="40.713" y1="61.903" x2="39.28" y2="68.755"/>
				<line class="st2" x1="37.2" y1="60.779" x2="34.394" y2="67.192"/>
				<line class="st2" x1="33.99" y1="58.958" x2="29.931" y2="64.662"/>
				<line class="st2" x1="31.222" y1="56.52" x2="26.081" y2="61.27"/>
				<line class="st2" x1="29.011" y1="53.565" x2="23.007" y2="57.162"/>
				<line class="st2" x1="27.454" y1="50.222" x2="20.84" y2="52.513"/>
				<line class="st2" x1="26.613" y1="46.629" x2="19.67" y2="47.517"/>
				<line class="st2" x1="26.526" y1="42.941" x2="19.549" y2="42.388"/>
				<line class="st2" x1="27.196" y1="39.312" x2="20.48" y2="37.343"/>
				<line class="st2" x1="28.594" y1="35.898" x2="22.425" y2="32.595"/>
				<line class="st2" x1="30.663" y1="32.843" x2="25.3" y2="28.346"/>
				<line class="st2" x1="33.313" y1="30.277" x2="28.985" y2="24.778"/>
				<line class="st2" x1="36.433" y1="28.306" x2="33.323" y2="22.038"/>
				<line class="st2" x1="39.891" y1="27.018" x2="38.13" y2="20.244"/>
				<line class="st2" x1="43.538" y1="26.463" x2="43.203" y2="19.474"/>
				<line class="st2" x1="47.223" y1="26.669" x2="48.325" y2="19.758"/>
				<line class="st2" x1="50.786" y1="27.625" x2="53.281" y2="21.085"/>
				<line class="st2" x1="54.079" y1="29.29" x2="57.858" y2="23.4"/>
				<line class="st2" x1="56.96" y1="31.592" x2="61.867" y2="26.603"/>
			</g>
			<circle class="st0" cx="51.785" cy="36.352" r="2.039"/>
		</g>
		<circle class="st9" cx="44.195" cy="44.512" r="34.187"/>
	</g>
	<g>
		<circle class="st9" cx="220.983" cy="44.513" r="34.19"/>
		<g>
			<g>
				<g>
					<path class="st9" d="M200.739,43.256c-0.771,0-1.402-0.631-1.402-1.403V29.82c0-0.772,0.631-1.403,1.402-1.403h4.979
						c0.772,0,1.404,0.631,1.404,1.403v12.033c0,0.772-0.632,1.403-1.404,1.403H200.739z"/>
				</g>
			</g>
			<g>
				<g>
					<path class="st9" d="M228.867,41.853c0,0.771-0.632,1.402-1.403,1.402h-12.957c-0.771,0-1.402-0.631-1.402-1.402V29.819
						c0-0.771,0.631-1.403,1.402-1.403h11.715l0.966,0.01c12.392,0,18.38,9.315,18.38,20.935h-3.106
						c0-5.405-3.796-13.349-9.196-13.349c-2.807,0-4.397,1.271-4.397,3.866V41.853z"/>
				</g>
			</g>
			<path class="st9" d="M207.157,41.735c0-1.638,1.328-2.965,2.965-2.965c1.639,0,2.967,1.327,2.967,2.965"/>
			<path class="st9" d="M227.475,43.257c-1.638,0-2.966,1.328-2.966,2.965v18.957"/>
			<path class="st9" d="M213.089,29.829c0,1.638-1.328,2.965-2.967,2.965c-1.637,0-2.965-1.327-2.965-2.965"/>
			<path class="st9" d="M214.36,43.257c1.637,0,2.965,1.328,2.965,2.965v18.957"/>
		</g>
		<polyline class="st9" points="216.317,78.512 216.317,67.137 217.237,65.096 224.562,65.096 225.483,67.137 225.483,78.512 		"/>
		<line class="st9" x1="222.649" y1="68.975" x2="222.649" y2="78.512"/>
		<line class="st9" x1="219.15" y1="78.512" x2="219.15" y2="68.975"/>
	</g>
	<line class="st14" x1="453.133" y1="41.838" x2="453.133" y2="41.838"/>
	<g>
		<g>
			<circle class="st9" cx="397.775" cy="44.197" r="34.189"/>
			<g>
				<g>
					<g>
						<path class="st9" d="M408.832,26.231c0-0.911-0.745-1.656-1.656-1.656h-21.958c-0.911,0-1.656,0.745-1.656,1.656v35.355
							c0,0.911,0.745,1.656,1.656,1.656h26.819c0.911,0,1.656-0.745,1.656-1.656v-7.999c0-0.911-0.745-1.656-1.656-1.656h-1.55
							c-0.911,0-1.656-0.745-1.656-1.656V26.231z"/>
					</g>
					<g>
						<path class="st9" d="M408.832,26.231c0-0.911-0.745-1.656-1.656-1.656h-21.958c-0.911,0-1.656,0.745-1.656,1.656v35.355
							c0,0.911,0.745,1.656,1.656,1.656h21.958c0.911,0,1.656-0.745,1.656-1.656V51.284c0-0.911,0.745-1.656,1.656-1.656h1.55
							c0.911,0,1.656-0.745,1.656-1.656v-7.996c0-0.911-0.745-1.656-1.656-1.656h-1.55c-0.911,0-1.656-0.745-1.656-1.656V26.231z"/>
					</g>
					<g>
						<path class="st8" d="M408.832,61.586c0,0.911-0.745,1.656-1.656,1.656h-21.958c-0.911,0-1.656-0.745-1.656-1.656V26.231
							c0-0.911,0.745-1.656,1.656-1.656h26.819c0.911,0,1.656,0.745,1.656,1.656v8c0,0.911-0.745,1.656-1.656,1.656h-1.55
							c-0.911,0-1.656,0.745-1.656,1.656V61.586z"/>
						<path class="st9" d="M408.832,61.586c0,0.911-0.745,1.656-1.656,1.656h-21.958c-0.911,0-1.656-0.745-1.656-1.656V26.231
							c0-0.911,0.745-1.656,1.656-1.656h26.819c0.911,0,1.656,0.745,1.656,1.656v8c0,0.911-0.745,1.656-1.656,1.656h-1.55
							c-0.911,0-1.656,0.745-1.656,1.656V61.586z"/>
					</g>
				</g>
				<g>
					<line class="st7" x1="386.361" y1="30.767" x2="380.804" y2="30.767"/>
					<line class="st7" x1="386.361" y1="43.961" x2="380.804" y2="43.961"/>
					<line class="st7" x1="386.361" y1="57.154" x2="380.804" y2="57.154"/>
				</g>
				<line class="st9" x1="390.169" y1="31.229" x2="404.271" y2="31.229"/>
				<line class="st9" x1="390.169" y1="35.43" x2="404.271" y2="35.43"/>
				<line class="st9" x1="390.169" y1="39.632" x2="404.271" y2="39.632"/>
				<line class="st9" x1="390.169" y1="43.834" x2="404.271" y2="43.834"/>
				<line class="st9" x1="390.169" y1="48.036" x2="404.271" y2="48.036"/>
				<line class="st9" x1="390.169" y1="52.237" x2="404.271" y2="52.237"/>
				<line class="st9" x1="390.169" y1="56.438" x2="404.271" y2="56.438"/>
			</g>
		</g>
		<g>
			<polyline class="st9" points="374.927,48.812 369.978,43.862 374.927,38.913 			"/>
			<polyline class="st9" points="420.619,38.913 425.569,43.862 420.619,48.812 			"/>
		</g>
	</g>
	<g>
		<g>
			<g>
				<circle class="st9" cx="297.101" cy="31.184" r="3.521"/>
				<g>
					<line class="st9" x1="305.554" y1="28.952" x2="324.277" y2="28.952"/>
					<line class="st9" x1="305.554" y1="33.415" x2="319.814" y2="33.415"/>
				</g>
			</g>
			<g>
				<circle class="st9" cx="297.101" cy="44.155" r="3.521"/>
				<g>
					<line class="st9" x1="305.554" y1="41.923" x2="324.277" y2="41.923"/>
					<line class="st9" x1="305.554" y1="46.387" x2="319.814" y2="46.387"/>
				</g>
			</g>
			<g>
				<circle class="st9" cx="297.101" cy="57.126" r="3.521"/>
				<g>
					<line class="st9" x1="305.554" y1="54.895" x2="324.277" y2="54.895"/>
					<line class="st9" x1="305.554" y1="59.357" x2="319.814" y2="59.357"/>
				</g>
			</g>
		</g>
		<circle class="st9" cx="309.379" cy="44.53" r="34.19"/>
	</g>
	<g>
		<g>
			<circle class="st9" cx="486.171" cy="44.562" r="34.19"/>
			<g>
				<g>
					<g>
						<path class="st9" d="M501.519,61.954c0,0.911-0.745,1.656-1.656,1.656h-26.818c-0.911,0-1.656-0.745-1.656-1.656V26.595
							c0-0.911,0.745-1.656,1.656-1.656h26.818c0.911,0,1.656,0.745,1.656,1.656V61.954z"/>
					</g>
				</g>
				<line class="st9" x1="469.129" y1="33.346" x2="473.653" y2="33.346"/>
				<line class="st9" x1="469.129" y1="36.961" x2="473.653" y2="36.961"/>
				<line class="st9" x1="469.129" y1="40.578" x2="473.653" y2="40.578"/>
				<line class="st9" x1="469.129" y1="44.193" x2="473.653" y2="44.193"/>
				<line class="st9" x1="469.129" y1="47.809" x2="473.653" y2="47.809"/>
				<line class="st9" x1="469.129" y1="58.656" x2="473.653" y2="58.656"/>
				<line class="st9" x1="469.129" y1="29.73" x2="473.653" y2="29.73"/>
				<line class="st9" x1="469.129" y1="51.424" x2="473.653" y2="51.424"/>
				<line class="st9" x1="469.129" y1="55.04" x2="473.653" y2="55.04"/>
			</g>
		</g>
		<polygon class="st9" points="485.335,34.41 488.522,39.929 491.708,45.448 485.335,45.448 478.961,45.448 482.151,39.929 		"/>
		<rect x="485.545" y="41.351" class="st9" width="9.856" height="9.854"/>
	</g>
	<g>
		<circle class="st9" cx="751.355" cy="44.559" r="34.19"/>
		<g>
			<g>
				<g>
					<path class="st9" d="M769.793,40.978c0,0.911-0.745,1.656-1.656,1.656h-13.213c-0.911,0-1.656-0.745-1.656-1.656V27.761
						c0-0.911,0.745-1.656,1.656-1.656h13.213c0.911,0,1.656,0.745,1.656,1.656V40.978z"/>
				</g>
				<line class="st9" x1="757.107" y1="34.37" x2="765.955" y2="34.37"/>
				<g>
					<path class="st9" d="M749.438,40.978c0,0.911-0.745,1.656-1.656,1.656H734.57c-0.911,0-1.656-0.745-1.656-1.656V27.761
						c0-0.911,0.745-1.656,1.656-1.656h13.211c0.911,0,1.656,0.745,1.656,1.656V40.978z"/>
				</g>
				<line class="st9" x1="736.752" y1="34.37" x2="745.6" y2="34.37"/>
				<line class="st9" x1="741.176" y1="29.946" x2="741.176" y2="38.793"/>
				<g>
					<path class="st9" d="M769.793,61.357c0,0.911-0.745,1.656-1.656,1.656h-13.213c-0.911,0-1.656-0.745-1.656-1.656V48.143
						c0-0.911,0.745-1.656,1.656-1.656h13.213c0.911,0,1.656,0.745,1.656,1.656V61.357z"/>
				</g>
				<line class="st9" x1="757.107" y1="54.751" x2="765.955" y2="54.751"/>
				<g>
					<path class="st9" d="M749.438,61.357c0,0.911-0.745,1.656-1.656,1.656H734.57c-0.911,0-1.656-0.745-1.656-1.656V48.143
						c0-0.911,0.745-1.656,1.656-1.656h13.211c0.911,0,1.656,0.745,1.656,1.656V61.357z"/>
				</g>
				<line class="st9" x1="738.047" y1="51.622" x2="744.301" y2="57.879"/>
				<line class="st9" x1="744.305" y1="51.622" x2="738.047" y2="57.879"/>
				<circle class="st15" cx="761.53" cy="57.958" r="1.069"/>
				<circle class="st15" cx="761.53" cy="51.542" r="1.069"/>
			</g>
		</g>
	</g>
	<g>
		<circle class="st9" cx="662.959" cy="44.559" r="34.19"/>
		<g>
			<g>
				<g>
					<g>
						<g>
							<polyline class="st9" points="648.348,75.434 648.348,55.764 644.072,39.438 639.797,55.764 639.797,69.934 							"/>
							<line class="st9" x1="641.961" y1="57.646" x2="639.797" y2="55.779"/>
							<line class="st9" x1="648.348" y1="55.779" x2="646.186" y2="57.646"/>
							<line class="st9" x1="642.594" y1="45.102" x2="645.627" y2="45.102"/>
							<polyline class="st9" points="641.961,71.434 641.961,57.646 644.072,55.419 646.186,57.646 646.186,74.309 							"/>
						</g>
					</g>
				</g>
			</g>
			<g>
				<path class="st9" d="M680.748,35.116v-1.183l0.342-1.305c0.17-0.588,0.596-0.582,0.748,0l0.34,1.304v1.184"/>
				<path class="st9" d="M686.102,69.726c0,0,0-2,0-5.018c0-16.661-3.453-29.563-3.453-29.563h-2.371c0,0-3.455,12.902-3.455,29.563
					c0,6.518,0,10.935,0,10.935"/>
				<line class="st9" x1="678.191" y1="46.116" x2="684.734" y2="46.116"/>
				<line class="st9" x1="676.807" y1="66.072" x2="686.119" y2="66.072"/>
				<line class="st9" x1="676.807" y1="63.609" x2="686.119" y2="63.609"/>
			</g>
			<g>
				<polyline class="st9" points="665.969,27.807 665.969,20.134 659.475,22.491 659.475,27.807 				"/>
				<line class="st9" x1="665.969" y1="21.92" x2="659.475" y2="24.276"/>
				<path class="st9" d="M671.266,77.684c0,0,0-28.346,0-32.566c0-5.013-3.734-4.932-3.734-9.193v-8.117h-9.619v8.117
					c0,4.262-3.734,4.181-3.734,9.193c0,4.221,0,32.566,0,32.566"/>
				<line class="st9" x1="671.191" y1="50.985" x2="654.254" y2="57.132"/>
				<line class="st9" x1="671.191" y1="56.518" x2="654.254" y2="62.664"/>
				<line class="st9" x1="671.191" y1="62.049" x2="654.254" y2="68.196"/>
			</g>
		</g>
	</g>
	<g>
		<g>
			<defs>
				<circle id="SVGID_1_" cx="574.625" cy="44.558" r="34.186"/>
			</defs>
			<clipPath id="SVGID_2_">
				<use xlink:href="#SVGID_1_"  style="overflow:visible;"/>
			</clipPath>
			<g class="st5">
				<g>
					<path class="st9" d="M599.752,82.046c0,0.911-0.745,1.656-1.656,1.656h-46.825c-0.911,0-1.656-0.745-1.656-1.656V32.908
						c0-0.911,0.745-1.656,1.656-1.656h46.825c0.911,0,1.656,0.745,1.656,1.656V82.046z"/>
				</g>
				<g>
					<g>
						<path class="st15" d="M592.145,74.004c0-0.46,0.377-0.836,0.855-0.836l0,0c0.48,0,0.855,0.376,0.855,0.836l0,0
							c0,0.481-0.375,0.874-0.855,0.874l0,0C592.521,74.878,592.145,74.486,592.145,74.004z M588.812,74.004
							c0-0.46,0.377-0.836,0.854-0.836l0,0c0.461,0,0.838,0.376,0.838,0.836l0,0c0,0.481-0.377,0.874-0.838,0.874l0,0
							C589.189,74.878,588.812,74.486,588.812,74.004z M585.461,74.004c0-0.46,0.377-0.836,0.855-0.836l0,0
							c0.479,0,0.855,0.376,0.855,0.836l0,0c0,0.481-0.377,0.874-0.855,0.874l0,0C585.838,74.878,585.461,74.486,585.461,74.004z
							 M582.129,74.004c0-0.46,0.377-0.836,0.838-0.836l0,0c0.477,0,0.854,0.376,0.854,0.836l0,0c0,0.481-0.377,0.874-0.854,0.874
							l0,0C582.506,74.878,582.129,74.486,582.129,74.004z M578.777,74.004c0-0.46,0.377-0.836,0.855-0.836l0,0
							c0.463,0,0.855,0.376,0.855,0.836l0,0c0,0.481-0.393,0.874-0.855,0.874l0,0C579.154,74.878,578.777,74.486,578.777,74.004z
							 M575.429,74.004c0-0.46,0.395-0.836,0.854-0.836l0,0c0.48,0,0.854,0.376,0.854,0.836l0,0c0,0.481-0.374,0.874-0.854,0.874
							l0,0C575.823,74.878,575.429,74.486,575.429,74.004z M572.097,74.004c0-0.46,0.373-0.836,0.855-0.836l0,0
							c0.459,0,0.854,0.376,0.854,0.836l0,0c0,0.481-0.395,0.874-0.854,0.874l0,0C572.47,74.878,572.097,74.486,572.097,74.004z
							 M568.745,74.004c0-0.46,0.393-0.836,0.854-0.836l0,0c0.48,0,0.855,0.376,0.855,0.836l0,0c0,0.481-0.375,0.874-0.855,0.874
							l0,0C569.138,74.878,568.745,74.486,568.745,74.004z M565.413,74.004c0-0.46,0.375-0.836,0.854-0.836l0,0
							c0.461,0,0.855,0.376,0.855,0.836l0,0c0,0.481-0.395,0.874-0.855,0.874l0,0C565.788,74.878,565.413,74.486,565.413,74.004z
							 M562.062,74.004c0-0.46,0.395-0.836,0.854-0.836l0,0c0.48,0,0.855,0.376,0.855,0.836l0,0c0,0.481-0.375,0.874-0.855,0.874
							l0,0C562.456,74.878,562.062,74.486,562.062,74.004z M558.729,74.004c0-0.46,0.375-0.836,0.854-0.836l0,0
							c0.461,0,0.855,0.376,0.855,0.836l0,0c0,0.481-0.395,0.874-0.855,0.874l0,0C559.104,74.878,558.729,74.486,558.729,74.004z
							 M555.376,74.004c0-0.46,0.379-0.836,0.855-0.836l0,0c0.48,0,0.855,0.376,0.855,0.836l0,0c0,0.481-0.375,0.874-0.855,0.874
							l0,0C555.755,74.878,555.376,74.486,555.376,74.004z M552.027,74.004c0-0.46,0.394-0.836,0.856-0.836l0,0
							c0.477,0,0.871,0.376,0.871,0.836l0,0c0,0.481-0.395,0.874-0.871,0.874l0,0C552.421,74.878,552.027,74.486,552.027,74.004z"/>
					</g>
					<g>
						<path class="st15" d="M596.352,74.859c-0.223,0-0.445-0.083-0.6-0.239c-0.17-0.17-0.256-0.392-0.256-0.598
							c0-0.222,0.086-0.445,0.24-0.616c0.34-0.323,0.889-0.307,1.213,0c0.152,0.171,0.256,0.395,0.256,0.616
							c0,0.206-0.104,0.428-0.24,0.581C596.777,74.776,596.572,74.859,596.352,74.859z"/>
					</g>
				</g>
				<g>
					<g>
						<path class="st15" d="M592.145,63.767c0-0.479,0.377-0.873,0.855-0.873l0,0c0.48,0,0.855,0.394,0.855,0.873l0,0
							c0,0.462-0.375,0.854-0.855,0.854l0,0C592.521,64.622,592.145,64.229,592.145,63.767z M588.812,63.767
							c0-0.479,0.377-0.873,0.854-0.873l0,0c0.461,0,0.838,0.394,0.838,0.873l0,0c0,0.462-0.377,0.854-0.838,0.854l0,0
							C589.189,64.622,588.812,64.229,588.812,63.767z M585.461,63.767c0-0.479,0.377-0.873,0.855-0.873l0,0
							c0.479,0,0.855,0.394,0.855,0.873l0,0c0,0.462-0.377,0.854-0.855,0.854l0,0C585.838,64.622,585.461,64.229,585.461,63.767z
							 M582.129,63.767c0-0.479,0.377-0.873,0.838-0.873l0,0c0.477,0,0.854,0.394,0.854,0.873l0,0c0,0.462-0.377,0.854-0.854,0.854
							l0,0C582.506,64.622,582.129,64.229,582.129,63.767z M578.777,63.767c0-0.479,0.377-0.873,0.855-0.873l0,0
							c0.463,0,0.855,0.394,0.855,0.873l0,0c0,0.462-0.393,0.854-0.855,0.854l0,0C579.154,64.622,578.777,64.229,578.777,63.767z
							 M575.429,63.767c0-0.479,0.395-0.873,0.854-0.873l0,0c0.48,0,0.854,0.394,0.854,0.873l0,0c0,0.462-0.374,0.854-0.854,0.854
							l0,0C575.823,64.622,575.429,64.229,575.429,63.767z M572.097,63.767c0-0.479,0.373-0.873,0.855-0.873l0,0
							c0.459,0,0.854,0.394,0.854,0.873l0,0c0,0.462-0.395,0.854-0.854,0.854l0,0C572.47,64.622,572.097,64.229,572.097,63.767z
							 M568.745,63.767c0-0.479,0.393-0.873,0.854-0.873l0,0c0.48,0,0.855,0.394,0.855,0.873l0,0c0,0.462-0.375,0.854-0.855,0.854
							l0,0C569.138,64.622,568.745,64.229,568.745,63.767z M565.413,63.767c0-0.479,0.375-0.873,0.854-0.873l0,0
							c0.461,0,0.855,0.394,0.855,0.873l0,0c0,0.462-0.395,0.854-0.855,0.854l0,0C565.788,64.622,565.413,64.229,565.413,63.767z
							 M562.062,63.767c0-0.479,0.395-0.873,0.854-0.873l0,0c0.48,0,0.855,0.394,0.855,0.873l0,0c0,0.462-0.375,0.854-0.855,0.854
							l0,0C562.456,64.622,562.062,64.229,562.062,63.767z M558.729,63.767c0-0.479,0.375-0.873,0.854-0.873l0,0
							c0.461,0,0.855,0.394,0.855,0.873l0,0c0,0.462-0.395,0.854-0.855,0.854l0,0C559.104,64.622,558.729,64.229,558.729,63.767z
							 M555.376,63.767c0-0.479,0.379-0.873,0.855-0.873l0,0c0.48,0,0.855,0.394,0.855,0.873l0,0c0,0.462-0.375,0.854-0.855,0.854
							l0,0C555.755,64.622,555.376,64.229,555.376,63.767z M552.027,63.767c0-0.479,0.394-0.873,0.856-0.873l0,0
							c0.477,0,0.871,0.394,0.871,0.873l0,0c0,0.462-0.395,0.854-0.871,0.854l0,0C552.421,64.622,552.027,64.229,552.027,63.767z"/>
					</g>
					<g>
						<path class="st15" d="M596.352,64.622c-0.223,0-0.445-0.102-0.615-0.257c-0.154-0.154-0.24-0.376-0.24-0.616
							c0-0.221,0.086-0.428,0.24-0.581c0.34-0.341,0.889-0.324,1.213-0.017c0.17,0.17,0.256,0.394,0.256,0.598
							c0,0.24-0.104,0.445-0.256,0.616C596.777,64.52,596.572,64.622,596.352,64.622z"/>
					</g>
				</g>
				<g>
					<g>
						<path class="st15" d="M592.145,53.511c0-0.479,0.377-0.874,0.855-0.874l0,0c0.48,0,0.855,0.394,0.855,0.874l0,0
							c0,0.462-0.375,0.836-0.855,0.836l0,0C592.521,54.347,592.145,53.973,592.145,53.511z M588.812,53.511
							c0-0.479,0.377-0.874,0.854-0.874l0,0c0.461,0,0.838,0.394,0.838,0.874l0,0c0,0.462-0.377,0.836-0.838,0.836l0,0
							C589.189,54.347,588.812,53.973,588.812,53.511z M585.461,53.511c0-0.479,0.377-0.874,0.855-0.874l0,0
							c0.479,0,0.855,0.394,0.855,0.874l0,0c0,0.462-0.377,0.836-0.855,0.836l0,0C585.838,54.347,585.461,53.973,585.461,53.511z
							 M582.129,53.511c0-0.479,0.377-0.874,0.838-0.874l0,0c0.477,0,0.854,0.394,0.854,0.874l0,0c0,0.462-0.377,0.836-0.854,0.836
							l0,0C582.506,54.347,582.129,53.973,582.129,53.511z M578.777,53.511c0-0.479,0.377-0.874,0.855-0.874l0,0
							c0.463,0,0.855,0.394,0.855,0.874l0,0c0,0.462-0.393,0.836-0.855,0.836l0,0C579.154,54.347,578.777,53.973,578.777,53.511z
							 M575.429,53.511c0-0.479,0.395-0.874,0.854-0.874l0,0c0.48,0,0.854,0.394,0.854,0.874l0,0c0,0.462-0.374,0.836-0.854,0.836
							l0,0C575.823,54.347,575.429,53.973,575.429,53.511z M572.097,53.511c0-0.479,0.373-0.874,0.855-0.874l0,0
							c0.459,0,0.854,0.394,0.854,0.874l0,0c0,0.462-0.395,0.836-0.854,0.836l0,0C572.47,54.347,572.097,53.973,572.097,53.511z
							 M568.745,53.511c0-0.479,0.393-0.874,0.854-0.874l0,0c0.48,0,0.855,0.394,0.855,0.874l0,0c0,0.462-0.375,0.836-0.855,0.836
							l0,0C569.138,54.347,568.745,53.973,568.745,53.511z M565.413,53.511c0-0.479,0.375-0.874,0.854-0.874l0,0
							c0.461,0,0.855,0.394,0.855,0.874l0,0c0,0.462-0.395,0.836-0.855,0.836l0,0C565.788,54.347,565.413,53.973,565.413,53.511z
							 M562.062,53.511c0-0.479,0.395-0.874,0.854-0.874l0,0c0.48,0,0.855,0.394,0.855,0.874l0,0c0,0.462-0.375,0.836-0.855,0.836
							l0,0C562.456,54.347,562.062,53.973,562.062,53.511z M558.729,53.511c0-0.479,0.375-0.874,0.854-0.874l0,0
							c0.461,0,0.855,0.394,0.855,0.874l0,0c0,0.462-0.395,0.836-0.855,0.836l0,0C559.104,54.347,558.729,53.973,558.729,53.511z
							 M555.376,53.511c0-0.479,0.379-0.874,0.855-0.874l0,0c0.48,0,0.855,0.394,0.855,0.874l0,0c0,0.462-0.375,0.836-0.855,0.836
							l0,0C555.755,54.347,555.376,53.973,555.376,53.511z M552.027,53.511c0-0.479,0.394-0.874,0.856-0.874l0,0
							c0.477,0,0.871,0.394,0.871,0.874l0,0c0,0.462-0.395,0.836-0.871,0.836l0,0C552.421,54.347,552.027,53.973,552.027,53.511z"/>
					</g>
					<g>
						<path class="st15" d="M596.352,54.366c-0.223,0-0.445-0.103-0.615-0.257c-0.154-0.17-0.24-0.392-0.24-0.597
							c0-0.239,0.086-0.446,0.24-0.6c0.324-0.341,0.889-0.324,1.213-0.017c0.17,0.17,0.256,0.394,0.256,0.616
							c0,0.205-0.104,0.427-0.24,0.581C596.777,54.263,596.572,54.366,596.352,54.366z"/>
					</g>
				</g>
				<g>
					<g>
						<path class="st15" d="M558.608,80.569c0-0.478,0.395-0.855,0.855-0.855l0,0c0.477,0,0.854,0.377,0.854,0.855l0,0
							c0,0.462-0.377,0.854-0.854,0.854l0,0C559.003,81.423,558.608,81.031,558.608,80.569z M558.608,77.22
							c0-0.462,0.395-0.854,0.855-0.854l0,0c0.477,0,0.854,0.392,0.854,0.854l0,0c0,0.478-0.377,0.855-0.854,0.855l0,0
							C559.003,78.075,558.608,77.697,558.608,77.22z M558.608,73.886c0-0.479,0.395-0.855,0.855-0.855l0,0
							c0.477,0,0.854,0.375,0.854,0.855l0,0c0,0.462-0.377,0.854-0.854,0.854l0,0C559.003,74.741,558.608,74.349,558.608,73.886z
							 M558.608,70.536c0-0.461,0.395-0.854,0.855-0.854l0,0c0.477,0,0.854,0.394,0.854,0.854l0,0c0,0.478-0.377,0.855-0.854,0.855
							l0,0C559.003,71.391,558.608,71.013,558.608,70.536z M558.608,67.186c0-0.463,0.395-0.854,0.855-0.854l0,0
							c0.477,0,0.854,0.392,0.854,0.854l0,0c0,0.479-0.377,0.854-0.854,0.854l0,0C559.003,68.041,558.608,67.665,558.608,67.186z
							 M558.608,63.852c0-0.477,0.395-0.854,0.855-0.854l0,0c0.477,0,0.854,0.377,0.854,0.854l0,0c0,0.478-0.377,0.854-0.854,0.854
							l0,0C559.003,64.707,558.608,64.33,558.608,63.852z M558.608,60.502c0-0.463,0.395-0.855,0.855-0.855l0,0
							c0.477,0,0.854,0.393,0.854,0.855l0,0c0,0.479-0.377,0.854-0.854,0.854l0,0C559.003,61.356,558.608,60.981,558.608,60.502z
							 M558.608,57.168c0-0.478,0.395-0.855,0.855-0.855l0,0c0.477,0,0.854,0.377,0.854,0.855l0,0c0,0.46-0.377,0.854-0.854,0.854
							l0,0C559.003,58.023,558.608,57.629,558.608,57.168z M558.608,53.818c0-0.462,0.395-0.854,0.855-0.854l0,0
							c0.477,0,0.854,0.392,0.854,0.854l0,0c0,0.479-0.377,0.854-0.854,0.854l0,0C559.003,54.672,558.608,54.297,558.608,53.818z
							 M558.608,50.485c0-0.478,0.395-0.855,0.855-0.855l0,0c0.477,0,0.854,0.378,0.854,0.855l0,0c0,0.462-0.377,0.854-0.854,0.854
							l0,0C559.003,51.339,558.608,50.947,558.608,50.485z M558.608,47.135c0-0.462,0.395-0.854,0.855-0.854l0,0
							c0.477,0,0.854,0.393,0.854,0.854l0,0c0,0.478-0.377,0.855-0.854,0.855l0,0C559.003,47.991,558.608,47.613,558.608,47.135z"/>
					</g>
				</g>
				<g>
					<g>
						<path class="st15" d="M568.864,80.569c0-0.478,0.395-0.855,0.855-0.855l0,0c0.477,0,0.855,0.377,0.855,0.855l0,0
							c0,0.462-0.379,0.854-0.855,0.854l0,0C569.259,81.423,568.864,81.031,568.864,80.569z M568.864,77.22
							c0-0.462,0.395-0.854,0.855-0.854l0,0c0.477,0,0.855,0.392,0.855,0.854l0,0c0,0.478-0.379,0.855-0.855,0.855l0,0
							C569.259,78.075,568.864,77.697,568.864,77.22z M568.864,73.886c0-0.479,0.395-0.855,0.855-0.855l0,0
							c0.477,0,0.855,0.375,0.855,0.855l0,0c0,0.462-0.379,0.854-0.855,0.854l0,0C569.259,74.741,568.864,74.349,568.864,73.886z
							 M568.864,70.536c0-0.461,0.395-0.854,0.855-0.854l0,0c0.477,0,0.855,0.394,0.855,0.854l0,0c0,0.478-0.379,0.855-0.855,0.855
							l0,0C569.259,71.391,568.864,71.013,568.864,70.536z M568.864,67.203c0-0.479,0.395-0.855,0.855-0.855l0,0
							c0.477,0,0.855,0.376,0.855,0.855l0,0c0,0.462-0.379,0.854-0.855,0.854l0,0C569.259,68.057,568.864,67.665,568.864,67.203z
							 M568.864,63.852c0-0.477,0.395-0.854,0.855-0.854l0,0c0.477,0,0.855,0.377,0.855,0.854l0,0c0,0.478-0.379,0.854-0.855,0.854
							l0,0C569.259,64.707,568.864,64.33,568.864,63.852z M568.864,60.519c0-0.479,0.395-0.872,0.855-0.872l0,0
							c0.477,0,0.855,0.393,0.855,0.872l0,0c0,0.462-0.379,0.837-0.855,0.837l0,0C569.259,61.356,568.864,60.981,568.864,60.519z
							 M568.864,57.168c0-0.478,0.395-0.855,0.855-0.855l0,0c0.477,0,0.855,0.377,0.855,0.855l0,0c0,0.479-0.379,0.854-0.855,0.854
							l0,0C569.259,58.023,568.864,57.647,568.864,57.168z M568.864,53.818c0-0.462,0.395-0.854,0.855-0.854l0,0
							c0.477,0,0.855,0.392,0.855,0.854l0,0c0,0.479-0.379,0.854-0.855,0.854l0,0C569.259,54.672,568.864,54.297,568.864,53.818z
							 M568.864,50.485c0-0.478,0.395-0.855,0.855-0.855l0,0c0.477,0,0.855,0.378,0.855,0.855l0,0c0,0.462-0.379,0.854-0.855,0.854
							l0,0C569.259,51.339,568.864,50.947,568.864,50.485z M568.864,47.135c0-0.462,0.395-0.854,0.855-0.854l0,0
							c0.477,0,0.855,0.393,0.855,0.854l0,0c0,0.478-0.379,0.855-0.855,0.855l0,0C569.259,47.991,568.864,47.613,568.864,47.135z"/>
					</g>
				</g>
				<g>
					<g>
						<path class="st15" d="M579.121,80.569c0-0.478,0.393-0.855,0.854-0.855l0,0c0.477,0,0.855,0.377,0.855,0.855l0,0
							c0,0.462-0.379,0.854-0.855,0.854l0,0C579.514,81.423,579.121,81.031,579.121,80.569z M579.121,77.22
							c0-0.462,0.393-0.854,0.854-0.854l0,0c0.477,0,0.855,0.392,0.855,0.854l0,0c0,0.478-0.379,0.855-0.855,0.855l0,0
							C579.514,78.075,579.121,77.697,579.121,77.22z M579.121,73.886c0-0.479,0.393-0.855,0.854-0.855l0,0
							c0.477,0,0.855,0.375,0.855,0.855l0,0c0,0.462-0.379,0.854-0.855,0.854l0,0C579.514,74.741,579.121,74.349,579.121,73.886z
							 M579.121,70.536c0-0.461,0.393-0.854,0.854-0.854l0,0c0.477,0,0.855,0.394,0.855,0.854l0,0c0,0.478-0.379,0.855-0.855,0.855
							l0,0C579.514,71.391,579.121,71.013,579.121,70.536z M579.121,67.203c0-0.479,0.393-0.855,0.854-0.855l0,0
							c0.477,0,0.855,0.376,0.855,0.855l0,0c0,0.462-0.379,0.838-0.855,0.838l0,0C579.514,68.041,579.121,67.665,579.121,67.203z
							 M579.121,63.852c0-0.477,0.393-0.854,0.854-0.854l0,0c0.477,0,0.855,0.377,0.855,0.854l0,0c0,0.478-0.379,0.854-0.855,0.854
							l0,0C579.514,64.707,579.121,64.33,579.121,63.852z M579.121,60.502c0-0.463,0.393-0.855,0.854-0.855l0,0
							c0.477,0,0.855,0.393,0.855,0.855l0,0c0,0.479-0.379,0.871-0.855,0.871l0,0C579.514,61.374,579.121,60.981,579.121,60.502z
							 M579.121,57.168c0-0.478,0.393-0.855,0.854-0.855l0,0c0.477,0,0.855,0.377,0.855,0.855l0,0c0,0.46-0.379,0.854-0.855,0.854
							l0,0C579.514,58.023,579.121,57.629,579.121,57.168z M579.121,53.818c0-0.462,0.393-0.854,0.854-0.854l0,0
							c0.477,0,0.855,0.392,0.855,0.854l0,0c0,0.479-0.379,0.854-0.855,0.854l0,0C579.514,54.672,579.121,54.297,579.121,53.818z
							 M579.121,50.485c0-0.478,0.393-0.855,0.854-0.855l0,0c0.477,0,0.855,0.378,0.855,0.855l0,0c0,0.462-0.379,0.854-0.855,0.854
							l0,0C579.514,51.339,579.121,50.947,579.121,50.485z M579.121,47.135c0-0.462,0.393-0.854,0.854-0.854l0,0
							c0.477,0,0.855,0.393,0.855,0.854l0,0c0,0.478-0.379,0.855-0.855,0.855l0,0C579.514,47.991,579.121,47.613,579.121,47.135z"/>
					</g>
				</g>
				<g>
					<g>
						<path class="st15" d="M588.949,80.569c0-0.478,0.393-0.855,0.854-0.855l0,0c0.479,0,0.855,0.377,0.855,0.855l0,0
							c0,0.462-0.377,0.854-0.855,0.854l0,0C589.342,81.423,588.949,81.031,588.949,80.569z M588.949,77.22
							c0-0.462,0.393-0.854,0.854-0.854l0,0c0.479,0,0.855,0.392,0.855,0.854l0,0c0,0.478-0.377,0.855-0.855,0.855l0,0
							C589.342,78.075,588.949,77.697,588.949,77.22z M588.949,73.886c0-0.479,0.393-0.855,0.854-0.855l0,0
							c0.479,0,0.855,0.375,0.855,0.855l0,0c0,0.462-0.377,0.854-0.855,0.854l0,0C589.342,74.741,588.949,74.349,588.949,73.886z
							 M588.949,70.536c0-0.479,0.393-0.854,0.854-0.854l0,0c0.479,0,0.855,0.376,0.855,0.854l0,0c0,0.478-0.377,0.855-0.855,0.855
							l0,0C589.342,71.391,588.949,71.013,588.949,70.536z M588.949,67.186c0-0.463,0.393-0.839,0.854-0.839l0,0
							c0.479,0,0.855,0.376,0.855,0.839l0,0c0,0.479-0.377,0.871-0.855,0.871l0,0C589.342,68.057,588.949,67.665,588.949,67.186z
							 M588.949,63.852c0-0.477,0.393-0.854,0.854-0.854l0,0c0.479,0,0.855,0.377,0.855,0.854l0,0c0,0.478-0.377,0.854-0.855,0.854
							l0,0C589.342,64.707,588.949,64.33,588.949,63.852z M588.949,60.502c0-0.463,0.393-0.838,0.854-0.838l0,0
							c0.479,0,0.855,0.375,0.855,0.838l0,0c0,0.479-0.377,0.854-0.855,0.854l0,0C589.342,61.356,588.949,60.981,588.949,60.502z
							 M588.949,57.168c0-0.478,0.393-0.855,0.854-0.855l0,0c0.479,0,0.855,0.377,0.855,0.855l0,0c0,0.46-0.377,0.854-0.855,0.854
							l0,0C589.342,58.023,588.949,57.629,588.949,57.168z M588.949,53.818c0-0.462,0.393-0.854,0.854-0.854l0,0
							c0.479,0,0.855,0.392,0.855,0.854l0,0c0,0.479-0.377,0.854-0.855,0.854l0,0C589.342,54.672,588.949,54.297,588.949,53.818z
							 M588.949,50.485c0-0.478,0.393-0.855,0.854-0.855l0,0c0.479,0,0.855,0.378,0.855,0.855l0,0c0,0.462-0.377,0.854-0.855,0.854
							l0,0C589.342,51.339,588.949,50.947,588.949,50.485z M588.949,47.135c0-0.462,0.393-0.854,0.854-0.854l0,0
							c0.479,0,0.855,0.393,0.855,0.854l0,0c0,0.478-0.377,0.855-0.855,0.855l0,0C589.342,47.991,588.949,47.613,588.949,47.135z"/>
					</g>
				</g>
				<line class="st9" x1="596.809" y1="56.313" x2="592.695" y2="60.426"/>
				<line class="st9" x1="596.809" y1="60.426" x2="592.695" y2="56.313"/>
				<line class="st9" x1="586.979" y1="56.527" x2="582.865" y2="60.64"/>
				<line class="st9" x1="586.979" y1="60.64" x2="582.865" y2="56.527"/>
				<line class="st9" x1="577.15" y1="56.741" x2="573.038" y2="60.854"/>
				<line class="st9" x1="577.15" y1="60.854" x2="573.038" y2="56.741"/>
				<line class="st9" x1="556.745" y1="66.783" x2="552.634" y2="70.897"/>
				<line class="st9" x1="556.745" y1="70.897" x2="552.634" y2="66.783"/>
			</g>
			<g class="st5">
				<line class="st9" x1="549.614" y1="43.897" x2="599.752" y2="43.897"/>
			</g>
			<g class="st5">
				<rect x="556.505" y="26.4" class="st1" width="3.029" height="8.974"/>
				<rect x="589.838" y="26.4" class="st1" width="3.027" height="8.974"/>
				<rect x="573.173" y="26.4" class="st1" width="3.027" height="8.974"/>
			</g>
		</g>
		<circle class="st9" cx="574.625" cy="44.558" r="34.186"/>
	</g>
	<g>
		<g>
			<circle class="st12" cx="132.587" cy="131.085" r="34.19"/>
			<g>
				<g>
					<g>
						<path class="st12" d="M115.196,146.436c-0.911,0-1.656-0.745-1.656-1.656v-24.775c0-0.911,0.745-1.656,1.656-1.656h35.36
							c0.911,0,1.656,0.745,1.656,1.656v24.775c0,0.911-0.745,1.656-1.656,1.656H115.196z"/>
					</g>
				</g>
			</g>
			<g>
				<g>
					<g>
						<path class="st12" d="M142.366,118.383v-6.921c0-0.911-0.745-1.656-1.656-1.656h-15.667c-0.911,0-1.656,0.745-1.656,1.656
							v6.921"/>
					</g>
				</g>
			</g>
			<g>
				<g>
					<polyline class="st12" points="138.561,118.213 138.561,114.524 127.196,114.524 127.196,118.213 					"/>
				</g>
			</g>
		</g>
		<line class="st12" x1="118.147" y1="118.298" x2="118.147" y2="146.075"/>
		<line class="st12" x1="147.688" y1="118.298" x2="147.688" y2="146.075"/>
	</g>
	<g>
		<g>
			<path class="st4" d="M50.098,121.602c-1.654-1.014-3.6-1.601-5.683-1.605c-6.041-0.014-10.951,4.872-10.963,10.917
				c-0.012,6.042,4.876,10.948,10.914,10.962c0.015,0,0.029-0.001,0.044-0.001"/>
			<g>
				<line class="st4" x1="44.383" y1="148.857" x2="44.383" y2="155.857"/>
				<line class="st4" x1="40.713" y1="148.475" x2="39.28" y2="155.327"/>
				<line class="st4" x1="37.2" y1="147.351" x2="34.394" y2="153.764"/>
				<line class="st4" x1="33.99" y1="145.531" x2="29.931" y2="151.234"/>
				<line class="st4" x1="31.222" y1="143.092" x2="26.081" y2="147.842"/>
				<line class="st4" x1="29.011" y1="140.137" x2="23.007" y2="143.734"/>
				<line class="st4" x1="27.454" y1="136.794" x2="20.84" y2="139.085"/>
				<line class="st4" x1="26.613" y1="133.202" x2="19.67" y2="134.089"/>
				<line class="st4" x1="26.526" y1="129.513" x2="19.549" y2="128.96"/>
				<line class="st4" x1="27.196" y1="125.885" x2="20.48" y2="123.916"/>
				<line class="st4" x1="28.594" y1="122.47" x2="22.425" y2="119.167"/>
				<line class="st4" x1="30.663" y1="119.416" x2="25.3" y2="114.918"/>
				<line class="st4" x1="33.313" y1="116.849" x2="28.985" y2="111.35"/>
				<line class="st4" x1="36.433" y1="114.878" x2="33.323" y2="108.61"/>
				<line class="st4" x1="39.891" y1="113.59" x2="38.13" y2="106.816"/>
				<line class="st4" x1="43.538" y1="113.036" x2="43.203" y2="106.046"/>
				<line class="st4" x1="47.223" y1="113.241" x2="48.325" y2="106.331"/>
				<line class="st4" x1="50.786" y1="114.197" x2="53.281" y2="107.658"/>
				<line class="st4" x1="54.079" y1="115.862" x2="57.858" y2="109.972"/>
				<line class="st4" x1="56.96" y1="118.165" x2="61.867" y2="113.175"/>
			</g>
			<circle class="st10" cx="51.785" cy="122.924" r="2.039"/>
		</g>
		<circle class="st12" cx="44.195" cy="131.084" r="34.187"/>
	</g>
	<g>
		<circle class="st12" cx="220.983" cy="131.085" r="34.19"/>
		<g>
			<g>
				<g>
					<path class="st12" d="M200.739,129.829c-0.771,0-1.402-0.631-1.402-1.403v-12.033c0-0.772,0.631-1.403,1.402-1.403h4.979
						c0.772,0,1.404,0.631,1.404,1.403v12.033c0,0.772-0.632,1.403-1.404,1.403H200.739z"/>
				</g>
			</g>
			<g>
				<g>
					<path class="st12" d="M228.867,128.425c0,0.771-0.632,1.402-1.403,1.402h-12.957c-0.771,0-1.402-0.631-1.402-1.402v-12.034
						c0-0.771,0.631-1.403,1.402-1.403h11.715l0.966,0.01c12.392,0,18.38,9.315,18.38,20.935h-3.106
						c0-5.405-3.796-13.349-9.196-13.349c-2.807,0-4.397,1.271-4.397,3.866V128.425z"/>
				</g>
			</g>
			<path class="st12" d="M207.157,128.307c0-1.638,1.328-2.965,2.965-2.965c1.639,0,2.967,1.327,2.967,2.965"/>
			<path class="st12" d="M227.475,129.83c-1.638,0-2.966,1.328-2.966,2.965v18.957"/>
			<path class="st12" d="M213.089,116.401c0,1.638-1.328,2.965-2.967,2.965c-1.637,0-2.965-1.327-2.965-2.965"/>
			<path class="st12" d="M214.36,129.83c1.637,0,2.965,1.328,2.965,2.965v18.957"/>
		</g>
		<polyline class="st12" points="216.317,165.084 216.317,153.709 217.237,151.668 224.562,151.668 225.483,153.709 
			225.483,165.084 		"/>
		<line class="st12" x1="222.649" y1="155.547" x2="222.649" y2="165.084"/>
		<line class="st12" x1="219.15" y1="165.084" x2="219.15" y2="155.547"/>
	</g>
	<line class="st14" x1="453.133" y1="128.41" x2="453.133" y2="128.41"/>
	<g>
		<g>
			<circle class="st12" cx="397.775" cy="130.77" r="34.189"/>
			<g>
				<g>
					<g>
						<path class="st12" d="M408.832,112.803c0-0.911-0.745-1.656-1.656-1.656h-21.958c-0.911,0-1.656,0.745-1.656,1.656v35.355
							c0,0.911,0.745,1.656,1.656,1.656h26.819c0.911,0,1.656-0.745,1.656-1.656v-7.998c0-0.911-0.745-1.656-1.656-1.656h-1.55
							c-0.911,0-1.656-0.745-1.656-1.656V112.803z"/>
					</g>
					<g>
						<path class="st12" d="M408.832,112.803c0-0.911-0.745-1.656-1.656-1.656h-21.958c-0.911,0-1.656,0.745-1.656,1.656v35.355
							c0,0.911,0.745,1.656,1.656,1.656h21.958c0.911,0,1.656-0.745,1.656-1.656v-10.302c0-0.911,0.745-1.656,1.656-1.656h1.55
							c0.911,0,1.656-0.745,1.656-1.656v-7.996c0-0.911-0.745-1.656-1.656-1.656h-1.55c-0.911,0-1.656-0.745-1.656-1.656V112.803z"
							/>
					</g>
					<g>
						<path class="st8" d="M408.832,148.158c0,0.911-0.745,1.656-1.656,1.656h-21.958c-0.911,0-1.656-0.745-1.656-1.656v-35.355
							c0-0.911,0.745-1.656,1.656-1.656h26.819c0.911,0,1.656,0.745,1.656,1.656v8c0,0.911-0.745,1.656-1.656,1.656h-1.55
							c-0.911,0-1.656,0.745-1.656,1.656V148.158z"/>
						<path class="st12" d="M408.832,148.158c0,0.911-0.745,1.656-1.656,1.656h-21.958c-0.911,0-1.656-0.745-1.656-1.656v-35.355
							c0-0.911,0.745-1.656,1.656-1.656h26.819c0.911,0,1.656,0.745,1.656,1.656v8c0,0.911-0.745,1.656-1.656,1.656h-1.55
							c-0.911,0-1.656,0.745-1.656,1.656V148.158z"/>
					</g>
				</g>
				<g>
					<line class="st11" x1="386.361" y1="117.339" x2="380.804" y2="117.339"/>
					<line class="st11" x1="386.361" y1="130.533" x2="380.804" y2="130.533"/>
					<line class="st11" x1="386.361" y1="143.727" x2="380.804" y2="143.727"/>
				</g>
				<line class="st12" x1="390.169" y1="117.802" x2="404.271" y2="117.802"/>
				<line class="st12" x1="390.169" y1="122.002" x2="404.271" y2="122.002"/>
				<line class="st12" x1="390.169" y1="126.205" x2="404.271" y2="126.205"/>
				<line class="st12" x1="390.169" y1="130.407" x2="404.271" y2="130.407"/>
				<line class="st12" x1="390.169" y1="134.608" x2="404.271" y2="134.608"/>
				<line class="st12" x1="390.169" y1="138.81" x2="404.271" y2="138.81"/>
				<line class="st12" x1="390.169" y1="143.011" x2="404.271" y2="143.011"/>
			</g>
		</g>
		<g>
			<polyline class="st12" points="374.927,135.384 369.978,130.435 374.927,125.485 			"/>
			<polyline class="st12" points="420.619,125.485 425.569,130.435 420.619,135.384 			"/>
		</g>
	</g>
	<g>
		<g>
			<g>
				<circle class="st12" cx="297.101" cy="117.756" r="3.521"/>
				<g>
					<line class="st12" x1="305.554" y1="115.524" x2="324.277" y2="115.524"/>
					<line class="st12" x1="305.554" y1="119.987" x2="319.814" y2="119.987"/>
				</g>
			</g>
			<g>
				<circle class="st12" cx="297.101" cy="130.727" r="3.521"/>
				<g>
					<line class="st12" x1="305.554" y1="128.495" x2="324.277" y2="128.495"/>
					<line class="st12" x1="305.554" y1="132.959" x2="319.814" y2="132.959"/>
				</g>
			</g>
			<g>
				<circle class="st12" cx="297.101" cy="143.698" r="3.521"/>
				<g>
					<line class="st12" x1="305.554" y1="141.467" x2="324.277" y2="141.467"/>
					<line class="st12" x1="305.554" y1="145.93" x2="319.814" y2="145.93"/>
				</g>
			</g>
		</g>
		<circle class="st12" cx="309.379" cy="131.102" r="34.19"/>
	</g>
	<g>
		<g>
			<circle class="st12" cx="486.171" cy="131.134" r="34.19"/>
			<g>
				<g>
					<g>
						<path class="st12" d="M501.519,148.525c0,0.911-0.745,1.656-1.656,1.656h-26.818c-0.911,0-1.656-0.745-1.656-1.656v-35.358
							c0-0.911,0.745-1.656,1.656-1.656h26.818c0.911,0,1.656,0.745,1.656,1.656V148.525z"/>
					</g>
				</g>
				<line class="st12" x1="469.129" y1="119.918" x2="473.653" y2="119.918"/>
				<line class="st12" x1="469.129" y1="123.534" x2="473.653" y2="123.534"/>
				<line class="st12" x1="469.129" y1="127.15" x2="473.653" y2="127.15"/>
				<line class="st12" x1="469.129" y1="130.765" x2="473.653" y2="130.765"/>
				<line class="st12" x1="469.129" y1="134.381" x2="473.653" y2="134.381"/>
				<line class="st12" x1="469.129" y1="145.229" x2="473.653" y2="145.229"/>
				<line class="st12" x1="469.129" y1="116.302" x2="473.653" y2="116.302"/>
				<line class="st12" x1="469.129" y1="137.996" x2="473.653" y2="137.996"/>
				<line class="st12" x1="469.129" y1="141.612" x2="473.653" y2="141.612"/>
			</g>
		</g>
		<polygon class="st12" points="485.335,120.982 488.522,126.501 491.708,132.021 485.335,132.021 478.961,132.021 482.151,126.501 
					"/>
		<rect x="485.545" y="127.923" class="st12" width="9.856" height="9.854"/>
	</g>
	<g>
		<circle class="st12" cx="751.355" cy="131.131" r="34.19"/>
		<g>
			<g>
				<g>
					<path class="st12" d="M769.793,127.55c0,0.911-0.745,1.656-1.656,1.656h-13.213c-0.911,0-1.656-0.745-1.656-1.656v-13.217
						c0-0.911,0.745-1.656,1.656-1.656h13.213c0.911,0,1.656,0.745,1.656,1.656V127.55z"/>
				</g>
				<line class="st12" x1="757.107" y1="120.942" x2="765.955" y2="120.942"/>
				<g>
					<path class="st12" d="M749.438,127.55c0,0.911-0.745,1.656-1.656,1.656H734.57c-0.911,0-1.656-0.745-1.656-1.656v-13.217
						c0-0.911,0.745-1.656,1.656-1.656h13.211c0.911,0,1.656,0.745,1.656,1.656V127.55z"/>
				</g>
				<line class="st12" x1="736.752" y1="120.942" x2="745.6" y2="120.942"/>
				<line class="st12" x1="741.176" y1="116.519" x2="741.176" y2="125.365"/>
				<g>
					<path class="st12" d="M769.793,147.929c0,0.911-0.745,1.656-1.656,1.656h-13.213c-0.911,0-1.656-0.745-1.656-1.656v-13.213
						c0-0.911,0.745-1.656,1.656-1.656h13.213c0.911,0,1.656,0.745,1.656,1.656V147.929z"/>
				</g>
				<line class="st12" x1="757.107" y1="141.323" x2="765.955" y2="141.323"/>
				<g>
					<path class="st12" d="M749.438,147.929c0,0.911-0.745,1.656-1.656,1.656H734.57c-0.911,0-1.656-0.745-1.656-1.656v-13.213
						c0-0.911,0.745-1.656,1.656-1.656h13.211c0.911,0,1.656,0.745,1.656,1.656V147.929z"/>
				</g>
				<line class="st12" x1="738.047" y1="138.194" x2="744.301" y2="144.451"/>
				<line class="st12" x1="744.305" y1="138.194" x2="738.047" y2="144.451"/>
				<circle class="st13" cx="761.53" cy="144.53" r="1.069"/>
				<circle class="st13" cx="761.53" cy="138.114" r="1.069"/>
			</g>
		</g>
	</g>
	<g>
		<circle class="st12" cx="662.959" cy="131.131" r="34.19"/>
		<g>
			<g>
				<g>
					<g>
						<g>
							<polyline class="st12" points="648.348,162.006 648.348,142.336 644.072,126.01 639.797,142.336 639.797,156.506 							"/>
							<line class="st12" x1="641.961" y1="144.219" x2="639.797" y2="142.352"/>
							<line class="st12" x1="648.348" y1="142.352" x2="646.186" y2="144.219"/>
							<line class="st12" x1="642.594" y1="131.674" x2="645.627" y2="131.674"/>
							<polyline class="st12" points="641.961,158.006 641.961,144.219 644.072,141.991 646.186,144.219 646.186,160.881 							"/>
						</g>
					</g>
				</g>
			</g>
			<g>
				<path class="st12" d="M680.748,121.688v-1.183l0.342-1.305c0.17-0.588,0.596-0.582,0.748,0l0.34,1.304v1.184"/>
				<path class="st12" d="M686.102,156.298c0,0,0-2,0-5.018c0-16.661-3.453-29.563-3.453-29.563h-2.371
					c0,0-3.455,12.902-3.455,29.563c0,6.518,0,10.935,0,10.935"/>
				<line class="st12" x1="678.191" y1="132.688" x2="684.734" y2="132.688"/>
				<line class="st12" x1="676.807" y1="152.645" x2="686.119" y2="152.645"/>
				<line class="st12" x1="676.807" y1="150.182" x2="686.119" y2="150.182"/>
			</g>
			<g>
				<polyline class="st12" points="665.969,114.379 665.969,106.706 659.475,109.063 659.475,114.379 				"/>
				<line class="st12" x1="665.969" y1="108.492" x2="659.475" y2="110.849"/>
				<path class="st12" d="M671.266,164.256c0,0,0-28.346,0-32.566c0-5.013-3.734-4.932-3.734-9.193v-8.117h-9.619v8.117
					c0,4.262-3.734,4.181-3.734,9.193c0,4.221,0,32.566,0,32.566"/>
				<line class="st12" x1="671.191" y1="137.558" x2="654.254" y2="143.704"/>
				<line class="st12" x1="671.191" y1="143.09" x2="654.254" y2="149.236"/>
				<line class="st12" x1="671.191" y1="148.621" x2="654.254" y2="154.769"/>
			</g>
		</g>
	</g>
	<g>
		<g>
			<defs>
				<circle id="SVGID_3_" cx="574.625" cy="131.13" r="34.186"/>
			</defs>
			<clipPath id="SVGID_4_">
				<use xlink:href="#SVGID_3_"  style="overflow:visible;"/>
			</clipPath>
			<g class="st6">
				<g>
					<path class="st12" d="M599.752,168.618c0,0.911-0.745,1.656-1.656,1.656h-46.825c-0.911,0-1.656-0.745-1.656-1.656V119.48
						c0-0.911,0.745-1.656,1.656-1.656h46.825c0.911,0,1.656,0.745,1.656,1.656V168.618z"/>
				</g>
				<g>
					<g>
						<path class="st13" d="M592.145,160.577c0-0.46,0.377-0.836,0.855-0.836l0,0c0.48,0,0.855,0.376,0.855,0.836l0,0
							c0,0.481-0.375,0.874-0.855,0.874l0,0C592.521,161.451,592.145,161.058,592.145,160.577z M588.812,160.577
							c0-0.46,0.377-0.836,0.854-0.836l0,0c0.461,0,0.838,0.376,0.838,0.836l0,0c0,0.481-0.377,0.874-0.838,0.874l0,0
							C589.189,161.451,588.812,161.058,588.812,160.577z M585.461,160.577c0-0.46,0.377-0.836,0.855-0.836l0,0
							c0.479,0,0.855,0.376,0.855,0.836l0,0c0,0.481-0.377,0.874-0.855,0.874l0,0C585.838,161.451,585.461,161.058,585.461,160.577z
							 M582.129,160.577c0-0.46,0.377-0.836,0.838-0.836l0,0c0.477,0,0.854,0.376,0.854,0.836l0,0c0,0.481-0.377,0.874-0.854,0.874
							l0,0C582.506,161.451,582.129,161.058,582.129,160.577z M578.777,160.577c0-0.46,0.377-0.836,0.855-0.836l0,0
							c0.463,0,0.855,0.376,0.855,0.836l0,0c0,0.481-0.393,0.874-0.855,0.874l0,0C579.154,161.451,578.777,161.058,578.777,160.577z
							 M575.429,160.577c0-0.46,0.395-0.836,0.854-0.836l0,0c0.48,0,0.854,0.376,0.854,0.836l0,0c0,0.481-0.374,0.874-0.854,0.874
							l0,0C575.823,161.451,575.429,161.058,575.429,160.577z M572.097,160.577c0-0.46,0.373-0.836,0.855-0.836l0,0
							c0.459,0,0.854,0.376,0.854,0.836l0,0c0,0.481-0.395,0.874-0.854,0.874l0,0C572.47,161.451,572.097,161.058,572.097,160.577z
							 M568.745,160.577c0-0.46,0.393-0.836,0.854-0.836l0,0c0.48,0,0.855,0.376,0.855,0.836l0,0c0,0.481-0.375,0.874-0.855,0.874
							l0,0C569.138,161.451,568.745,161.058,568.745,160.577z M565.413,160.577c0-0.46,0.375-0.836,0.854-0.836l0,0
							c0.461,0,0.855,0.376,0.855,0.836l0,0c0,0.481-0.395,0.874-0.855,0.874l0,0C565.788,161.451,565.413,161.058,565.413,160.577z
							 M562.062,160.577c0-0.46,0.395-0.836,0.854-0.836l0,0c0.48,0,0.855,0.376,0.855,0.836l0,0c0,0.481-0.375,0.874-0.855,0.874
							l0,0C562.456,161.451,562.062,161.058,562.062,160.577z M558.729,160.577c0-0.46,0.375-0.836,0.854-0.836l0,0
							c0.461,0,0.855,0.376,0.855,0.836l0,0c0,0.481-0.395,0.874-0.855,0.874l0,0C559.104,161.451,558.729,161.058,558.729,160.577z
							 M555.376,160.577c0-0.46,0.379-0.836,0.855-0.836l0,0c0.48,0,0.855,0.376,0.855,0.836l0,0c0,0.481-0.375,0.874-0.855,0.874
							l0,0C555.755,161.451,555.376,161.058,555.376,160.577z M552.027,160.577c0-0.46,0.394-0.836,0.856-0.836l0,0
							c0.477,0,0.871,0.376,0.871,0.836l0,0c0,0.481-0.395,0.874-0.871,0.874l0,0C552.421,161.451,552.027,161.058,552.027,160.577z
							"/>
					</g>
					<g>
						<path class="st13" d="M596.352,161.432c-0.223,0-0.445-0.083-0.6-0.239c-0.17-0.17-0.256-0.392-0.256-0.598
							c0-0.222,0.086-0.445,0.24-0.616c0.34-0.323,0.889-0.307,1.213,0c0.152,0.171,0.256,0.395,0.256,0.616
							c0,0.206-0.104,0.428-0.24,0.581C596.777,161.348,596.572,161.432,596.352,161.432z"/>
					</g>
				</g>
				<g>
					<g>
						<path class="st13" d="M592.145,150.339c0-0.479,0.377-0.873,0.855-0.873l0,0c0.48,0,0.855,0.394,0.855,0.873l0,0
							c0,0.462-0.375,0.854-0.855,0.854l0,0C592.521,151.194,592.145,150.802,592.145,150.339z M588.812,150.339
							c0-0.479,0.377-0.873,0.854-0.873l0,0c0.461,0,0.838,0.394,0.838,0.873l0,0c0,0.462-0.377,0.854-0.838,0.854l0,0
							C589.189,151.194,588.812,150.802,588.812,150.339z M585.461,150.339c0-0.479,0.377-0.873,0.855-0.873l0,0
							c0.479,0,0.855,0.394,0.855,0.873l0,0c0,0.462-0.377,0.854-0.855,0.854l0,0C585.838,151.194,585.461,150.802,585.461,150.339z
							 M582.129,150.339c0-0.479,0.377-0.873,0.838-0.873l0,0c0.477,0,0.854,0.394,0.854,0.873l0,0c0,0.462-0.377,0.854-0.854,0.854
							l0,0C582.506,151.194,582.129,150.802,582.129,150.339z M578.777,150.339c0-0.479,0.377-0.873,0.855-0.873l0,0
							c0.463,0,0.855,0.394,0.855,0.873l0,0c0,0.462-0.393,0.854-0.855,0.854l0,0C579.154,151.194,578.777,150.802,578.777,150.339z
							 M575.429,150.339c0-0.479,0.395-0.873,0.854-0.873l0,0c0.48,0,0.854,0.394,0.854,0.873l0,0c0,0.462-0.374,0.854-0.854,0.854
							l0,0C575.823,151.194,575.429,150.802,575.429,150.339z M572.097,150.339c0-0.479,0.373-0.873,0.855-0.873l0,0
							c0.459,0,0.854,0.394,0.854,0.873l0,0c0,0.462-0.395,0.854-0.854,0.854l0,0C572.47,151.194,572.097,150.802,572.097,150.339z
							 M568.745,150.339c0-0.479,0.393-0.873,0.854-0.873l0,0c0.48,0,0.855,0.394,0.855,0.873l0,0c0,0.462-0.375,0.854-0.855,0.854
							l0,0C569.138,151.194,568.745,150.802,568.745,150.339z M565.413,150.339c0-0.479,0.375-0.873,0.854-0.873l0,0
							c0.461,0,0.855,0.394,0.855,0.873l0,0c0,0.462-0.395,0.854-0.855,0.854l0,0C565.788,151.194,565.413,150.802,565.413,150.339z
							 M562.062,150.339c0-0.479,0.395-0.873,0.854-0.873l0,0c0.48,0,0.855,0.394,0.855,0.873l0,0c0,0.462-0.375,0.854-0.855,0.854
							l0,0C562.456,151.194,562.062,150.802,562.062,150.339z M558.729,150.339c0-0.479,0.375-0.873,0.854-0.873l0,0
							c0.461,0,0.855,0.394,0.855,0.873l0,0c0,0.462-0.395,0.854-0.855,0.854l0,0C559.104,151.194,558.729,150.802,558.729,150.339z
							 M555.376,150.339c0-0.479,0.379-0.873,0.855-0.873l0,0c0.48,0,0.855,0.394,0.855,0.873l0,0c0,0.462-0.375,0.854-0.855,0.854
							l0,0C555.755,151.194,555.376,150.802,555.376,150.339z M552.027,150.339c0-0.479,0.394-0.873,0.856-0.873l0,0
							c0.477,0,0.871,0.394,0.871,0.873l0,0c0,0.462-0.395,0.854-0.871,0.854l0,0C552.421,151.194,552.027,150.802,552.027,150.339z
							"/>
					</g>
					<g>
						<path class="st13" d="M596.352,151.194c-0.223,0-0.445-0.102-0.615-0.257c-0.154-0.154-0.24-0.376-0.24-0.616
							c0-0.221,0.086-0.428,0.24-0.581c0.34-0.341,0.889-0.324,1.213-0.017c0.17,0.17,0.256,0.394,0.256,0.598
							c0,0.24-0.104,0.445-0.256,0.616C596.777,151.092,596.572,151.194,596.352,151.194z"/>
					</g>
				</g>
				<g>
					<g>
						<path class="st13" d="M592.145,140.083c0-0.479,0.377-0.874,0.855-0.874l0,0c0.48,0,0.855,0.394,0.855,0.874l0,0
							c0,0.462-0.375,0.836-0.855,0.836l0,0C592.521,140.919,592.145,140.545,592.145,140.083z M588.812,140.083
							c0-0.479,0.377-0.874,0.854-0.874l0,0c0.461,0,0.838,0.394,0.838,0.874l0,0c0,0.462-0.377,0.836-0.838,0.836l0,0
							C589.189,140.919,588.812,140.545,588.812,140.083z M585.461,140.083c0-0.479,0.377-0.874,0.855-0.874l0,0
							c0.479,0,0.855,0.394,0.855,0.874l0,0c0,0.462-0.377,0.836-0.855,0.836l0,0C585.838,140.919,585.461,140.545,585.461,140.083z
							 M582.129,140.083c0-0.479,0.377-0.874,0.838-0.874l0,0c0.477,0,0.854,0.394,0.854,0.874l0,0c0,0.462-0.377,0.836-0.854,0.836
							l0,0C582.506,140.919,582.129,140.545,582.129,140.083z M578.777,140.083c0-0.479,0.377-0.874,0.855-0.874l0,0
							c0.463,0,0.855,0.394,0.855,0.874l0,0c0,0.462-0.393,0.836-0.855,0.836l0,0C579.154,140.919,578.777,140.545,578.777,140.083z
							 M575.429,140.083c0-0.479,0.395-0.874,0.854-0.874l0,0c0.48,0,0.854,0.394,0.854,0.874l0,0c0,0.462-0.374,0.836-0.854,0.836
							l0,0C575.823,140.919,575.429,140.545,575.429,140.083z M572.097,140.083c0-0.479,0.373-0.874,0.855-0.874l0,0
							c0.459,0,0.854,0.394,0.854,0.874l0,0c0,0.462-0.395,0.836-0.854,0.836l0,0C572.47,140.919,572.097,140.545,572.097,140.083z
							 M568.745,140.083c0-0.479,0.393-0.874,0.854-0.874l0,0c0.48,0,0.855,0.394,0.855,0.874l0,0c0,0.462-0.375,0.836-0.855,0.836
							l0,0C569.138,140.919,568.745,140.545,568.745,140.083z M565.413,140.083c0-0.479,0.375-0.874,0.854-0.874l0,0
							c0.461,0,0.855,0.394,0.855,0.874l0,0c0,0.462-0.395,0.836-0.855,0.836l0,0C565.788,140.919,565.413,140.545,565.413,140.083z
							 M562.062,140.083c0-0.479,0.395-0.874,0.854-0.874l0,0c0.48,0,0.855,0.394,0.855,0.874l0,0c0,0.462-0.375,0.836-0.855,0.836
							l0,0C562.456,140.919,562.062,140.545,562.062,140.083z M558.729,140.083c0-0.479,0.375-0.874,0.854-0.874l0,0
							c0.461,0,0.855,0.394,0.855,0.874l0,0c0,0.462-0.395,0.836-0.855,0.836l0,0C559.104,140.919,558.729,140.545,558.729,140.083z
							 M555.376,140.083c0-0.479,0.379-0.874,0.855-0.874l0,0c0.48,0,0.855,0.394,0.855,0.874l0,0c0,0.462-0.375,0.836-0.855,0.836
							l0,0C555.755,140.919,555.376,140.545,555.376,140.083z M552.027,140.083c0-0.479,0.394-0.874,0.856-0.874l0,0
							c0.477,0,0.871,0.394,0.871,0.874l0,0c0,0.462-0.395,0.836-0.871,0.836l0,0C552.421,140.919,552.027,140.545,552.027,140.083z
							"/>
					</g>
					<g>
						<path class="st13" d="M596.352,140.938c-0.223,0-0.445-0.103-0.615-0.257c-0.154-0.17-0.24-0.392-0.24-0.597
							c0-0.239,0.086-0.446,0.24-0.6c0.324-0.341,0.889-0.324,1.213-0.017c0.17,0.17,0.256,0.394,0.256,0.616
							c0,0.205-0.104,0.427-0.24,0.581C596.777,140.835,596.572,140.938,596.352,140.938z"/>
					</g>
				</g>
				<g>
					<g>
						<path class="st13" d="M558.608,167.141c0-0.478,0.395-0.855,0.855-0.855l0,0c0.477,0,0.854,0.377,0.854,0.855l0,0
							c0,0.462-0.377,0.854-0.854,0.854l0,0C559.003,167.996,558.608,167.603,558.608,167.141z M558.608,163.792
							c0-0.462,0.395-0.854,0.855-0.854l0,0c0.477,0,0.854,0.392,0.854,0.854l0,0c0,0.478-0.377,0.855-0.854,0.855l0,0
							C559.003,164.647,558.608,164.27,558.608,163.792z M558.608,160.458c0-0.479,0.395-0.855,0.855-0.855l0,0
							c0.477,0,0.854,0.375,0.854,0.855l0,0c0,0.462-0.377,0.854-0.854,0.854l0,0C559.003,161.313,558.608,160.921,558.608,160.458z
							 M558.608,157.108c0-0.461,0.395-0.854,0.855-0.854l0,0c0.477,0,0.854,0.394,0.854,0.854l0,0c0,0.478-0.377,0.855-0.854,0.855
							l0,0C559.003,157.963,558.608,157.585,558.608,157.108z M558.608,153.758c0-0.463,0.395-0.854,0.855-0.854l0,0
							c0.477,0,0.854,0.392,0.854,0.854l0,0c0,0.479-0.377,0.854-0.854,0.854l0,0C559.003,154.613,558.608,154.237,558.608,153.758z
							 M558.608,150.424c0-0.477,0.395-0.854,0.855-0.854l0,0c0.477,0,0.854,0.377,0.854,0.854l0,0c0,0.478-0.377,0.854-0.854,0.854
							l0,0C559.003,151.279,558.608,150.902,558.608,150.424z M558.608,147.075c0-0.463,0.395-0.855,0.855-0.855l0,0
							c0.477,0,0.854,0.393,0.854,0.855l0,0c0,0.479-0.377,0.854-0.854,0.854l0,0C559.003,147.929,558.608,147.553,558.608,147.075z
							 M558.608,143.741c0-0.478,0.395-0.855,0.855-0.855l0,0c0.477,0,0.854,0.377,0.854,0.855l0,0c0,0.46-0.377,0.854-0.854,0.854
							l0,0C559.003,144.595,558.608,144.201,558.608,143.741z M558.608,140.39c0-0.462,0.395-0.854,0.855-0.854l0,0
							c0.477,0,0.854,0.392,0.854,0.854l0,0c0,0.479-0.377,0.854-0.854,0.854l0,0C559.003,141.245,558.608,140.87,558.608,140.39z
							 M558.608,137.057c0-0.478,0.395-0.855,0.855-0.855l0,0c0.477,0,0.854,0.378,0.854,0.855l0,0c0,0.462-0.377,0.854-0.854,0.854
							l0,0C559.003,137.911,558.608,137.519,558.608,137.057z M558.608,133.708c0-0.462,0.395-0.854,0.855-0.854l0,0
							c0.477,0,0.854,0.393,0.854,0.854l0,0c0,0.478-0.377,0.855-0.854,0.855l0,0C559.003,134.563,558.608,134.185,558.608,133.708z
							"/>
					</g>
				</g>
				<g>
					<g>
						<path class="st13" d="M568.864,167.141c0-0.478,0.395-0.855,0.855-0.855l0,0c0.477,0,0.855,0.377,0.855,0.855l0,0
							c0,0.462-0.379,0.854-0.855,0.854l0,0C569.259,167.996,568.864,167.603,568.864,167.141z M568.864,163.792
							c0-0.462,0.395-0.854,0.855-0.854l0,0c0.477,0,0.855,0.392,0.855,0.854l0,0c0,0.478-0.379,0.855-0.855,0.855l0,0
							C569.259,164.647,568.864,164.27,568.864,163.792z M568.864,160.458c0-0.479,0.395-0.855,0.855-0.855l0,0
							c0.477,0,0.855,0.375,0.855,0.855l0,0c0,0.462-0.379,0.854-0.855,0.854l0,0C569.259,161.313,568.864,160.921,568.864,160.458z
							 M568.864,157.108c0-0.461,0.395-0.854,0.855-0.854l0,0c0.477,0,0.855,0.394,0.855,0.854l0,0c0,0.478-0.379,0.855-0.855,0.855
							l0,0C569.259,157.963,568.864,157.585,568.864,157.108z M568.864,153.775c0-0.479,0.395-0.855,0.855-0.855l0,0
							c0.477,0,0.855,0.376,0.855,0.855l0,0c0,0.462-0.379,0.854-0.855,0.854l0,0C569.259,154.629,568.864,154.237,568.864,153.775z
							 M568.864,150.424c0-0.477,0.395-0.854,0.855-0.854l0,0c0.477,0,0.855,0.377,0.855,0.854l0,0c0,0.478-0.379,0.854-0.855,0.854
							l0,0C569.259,151.279,568.864,150.902,568.864,150.424z M568.864,147.091c0-0.479,0.395-0.872,0.855-0.872l0,0
							c0.477,0,0.855,0.393,0.855,0.872l0,0c0,0.462-0.379,0.837-0.855,0.837l0,0C569.259,147.929,568.864,147.553,568.864,147.091z
							 M568.864,143.741c0-0.478,0.395-0.855,0.855-0.855l0,0c0.477,0,0.855,0.377,0.855,0.855l0,0c0,0.479-0.379,0.854-0.855,0.854
							l0,0C569.259,144.595,568.864,144.219,568.864,143.741z M568.864,140.39c0-0.462,0.395-0.854,0.855-0.854l0,0
							c0.477,0,0.855,0.392,0.855,0.854l0,0c0,0.479-0.379,0.854-0.855,0.854l0,0C569.259,141.245,568.864,140.87,568.864,140.39z
							 M568.864,137.057c0-0.478,0.395-0.855,0.855-0.855l0,0c0.477,0,0.855,0.378,0.855,0.855l0,0c0,0.462-0.379,0.854-0.855,0.854
							l0,0C569.259,137.911,568.864,137.519,568.864,137.057z M568.864,133.708c0-0.462,0.395-0.854,0.855-0.854l0,0
							c0.477,0,0.855,0.393,0.855,0.854l0,0c0,0.478-0.379,0.855-0.855,0.855l0,0C569.259,134.563,568.864,134.185,568.864,133.708z
							"/>
					</g>
				</g>
				<g>
					<g>
						<path class="st13" d="M579.121,167.141c0-0.478,0.393-0.855,0.854-0.855l0,0c0.477,0,0.855,0.377,0.855,0.855l0,0
							c0,0.462-0.379,0.854-0.855,0.854l0,0C579.514,167.996,579.121,167.603,579.121,167.141z M579.121,163.792
							c0-0.462,0.393-0.854,0.854-0.854l0,0c0.477,0,0.855,0.392,0.855,0.854l0,0c0,0.478-0.379,0.855-0.855,0.855l0,0
							C579.514,164.647,579.121,164.27,579.121,163.792z M579.121,160.458c0-0.479,0.393-0.855,0.854-0.855l0,0
							c0.477,0,0.855,0.375,0.855,0.855l0,0c0,0.462-0.379,0.854-0.855,0.854l0,0C579.514,161.313,579.121,160.921,579.121,160.458z
							 M579.121,157.108c0-0.461,0.393-0.854,0.854-0.854l0,0c0.477,0,0.855,0.394,0.855,0.854l0,0c0,0.478-0.379,0.855-0.855,0.855
							l0,0C579.514,157.963,579.121,157.585,579.121,157.108z M579.121,153.775c0-0.479,0.393-0.855,0.854-0.855l0,0
							c0.477,0,0.855,0.376,0.855,0.855l0,0c0,0.462-0.379,0.838-0.855,0.838l0,0C579.514,154.613,579.121,154.237,579.121,153.775z
							 M579.121,150.424c0-0.477,0.393-0.854,0.854-0.854l0,0c0.477,0,0.855,0.377,0.855,0.854l0,0c0,0.478-0.379,0.854-0.855,0.854
							l0,0C579.514,151.279,579.121,150.902,579.121,150.424z M579.121,147.075c0-0.463,0.393-0.855,0.854-0.855l0,0
							c0.477,0,0.855,0.393,0.855,0.855l0,0c0,0.479-0.379,0.871-0.855,0.871l0,0C579.514,147.946,579.121,147.553,579.121,147.075z
							 M579.121,143.741c0-0.478,0.393-0.855,0.854-0.855l0,0c0.477,0,0.855,0.377,0.855,0.855l0,0c0,0.46-0.379,0.854-0.855,0.854
							l0,0C579.514,144.595,579.121,144.201,579.121,143.741z M579.121,140.39c0-0.462,0.393-0.854,0.854-0.854l0,0
							c0.477,0,0.855,0.392,0.855,0.854l0,0c0,0.479-0.379,0.854-0.855,0.854l0,0C579.514,141.245,579.121,140.87,579.121,140.39z
							 M579.121,137.057c0-0.478,0.393-0.855,0.854-0.855l0,0c0.477,0,0.855,0.378,0.855,0.855l0,0c0,0.462-0.379,0.854-0.855,0.854
							l0,0C579.514,137.911,579.121,137.519,579.121,137.057z M579.121,133.708c0-0.462,0.393-0.854,0.854-0.854l0,0
							c0.477,0,0.855,0.393,0.855,0.854l0,0c0,0.478-0.379,0.855-0.855,0.855l0,0C579.514,134.563,579.121,134.185,579.121,133.708z
							"/>
					</g>
				</g>
				<g>
					<g>
						<path class="st13" d="M588.949,167.141c0-0.478,0.393-0.855,0.854-0.855l0,0c0.479,0,0.855,0.377,0.855,0.855l0,0
							c0,0.462-0.377,0.854-0.855,0.854l0,0C589.342,167.996,588.949,167.603,588.949,167.141z M588.949,163.792
							c0-0.462,0.393-0.854,0.854-0.854l0,0c0.479,0,0.855,0.392,0.855,0.854l0,0c0,0.478-0.377,0.855-0.855,0.855l0,0
							C589.342,164.647,588.949,164.27,588.949,163.792z M588.949,160.458c0-0.479,0.393-0.855,0.854-0.855l0,0
							c0.479,0,0.855,0.375,0.855,0.855l0,0c0,0.462-0.377,0.854-0.855,0.854l0,0C589.342,161.313,588.949,160.921,588.949,160.458z
							 M588.949,157.108c0-0.479,0.393-0.854,0.854-0.854l0,0c0.479,0,0.855,0.376,0.855,0.854l0,0c0,0.478-0.377,0.855-0.855,0.855
							l0,0C589.342,157.963,588.949,157.585,588.949,157.108z M588.949,153.758c0-0.463,0.393-0.839,0.854-0.839l0,0
							c0.479,0,0.855,0.376,0.855,0.839l0,0c0,0.479-0.377,0.871-0.855,0.871l0,0C589.342,154.629,588.949,154.237,588.949,153.758z
							 M588.949,150.424c0-0.477,0.393-0.854,0.854-0.854l0,0c0.479,0,0.855,0.377,0.855,0.854l0,0c0,0.478-0.377,0.854-0.855,0.854
							l0,0C589.342,151.279,588.949,150.902,588.949,150.424z M588.949,147.075c0-0.463,0.393-0.838,0.854-0.838l0,0
							c0.479,0,0.855,0.375,0.855,0.838l0,0c0,0.479-0.377,0.854-0.855,0.854l0,0C589.342,147.929,588.949,147.553,588.949,147.075z
							 M588.949,143.741c0-0.478,0.393-0.855,0.854-0.855l0,0c0.479,0,0.855,0.377,0.855,0.855l0,0c0,0.46-0.377,0.854-0.855,0.854
							l0,0C589.342,144.595,588.949,144.201,588.949,143.741z M588.949,140.39c0-0.462,0.393-0.854,0.854-0.854l0,0
							c0.479,0,0.855,0.392,0.855,0.854l0,0c0,0.479-0.377,0.854-0.855,0.854l0,0C589.342,141.245,588.949,140.87,588.949,140.39z
							 M588.949,137.057c0-0.478,0.393-0.855,0.854-0.855l0,0c0.479,0,0.855,0.378,0.855,0.855l0,0c0,0.462-0.377,0.854-0.855,0.854
							l0,0C589.342,137.911,588.949,137.519,588.949,137.057z M588.949,133.708c0-0.462,0.393-0.854,0.854-0.854l0,0
							c0.479,0,0.855,0.393,0.855,0.854l0,0c0,0.478-0.377,0.855-0.855,0.855l0,0C589.342,134.563,588.949,134.185,588.949,133.708z
							"/>
					</g>
				</g>
				<line class="st12" x1="596.809" y1="142.886" x2="592.695" y2="146.999"/>
				<line class="st12" x1="596.809" y1="146.999" x2="592.695" y2="142.886"/>
				<line class="st12" x1="586.979" y1="143.099" x2="582.865" y2="147.212"/>
				<line class="st12" x1="586.979" y1="147.212" x2="582.865" y2="143.099"/>
				<line class="st12" x1="577.15" y1="143.313" x2="573.038" y2="147.426"/>
				<line class="st12" x1="577.15" y1="147.426" x2="573.038" y2="143.313"/>
				<line class="st12" x1="556.745" y1="153.355" x2="552.634" y2="157.469"/>
				<line class="st12" x1="556.745" y1="157.469" x2="552.634" y2="153.355"/>
			</g>
			<g class="st6">
				<line class="st12" x1="549.614" y1="130.469" x2="599.752" y2="130.469"/>
			</g>
			<g class="st6">
				<rect x="556.505" y="112.972" class="st3" width="3.029" height="8.974"/>
				<rect x="589.838" y="112.972" class="st3" width="3.027" height="8.974"/>
				<rect x="573.173" y="112.972" class="st3" width="3.027" height="8.974"/>
			</g>
		</g>
		<circle class="st12" cx="574.625" cy="131.13" r="34.186"/>
	</g>
</g>
</svg>
