<?xml version="1.0" encoding="utf-8"?>
<!-- Generator: Adobe Illustrator 15.0.0, SVG Export Plug-In . SVG Version: 6.00 Build 0)  -->
<!DOCTYPE svg PUBLIC "-//W3C//DTD SVG 1.1//EN" "http://www.w3.org/Graphics/SVG/1.1/DTD/svg11.dtd">
<svg version="1.1" id="Layer_1" xmlns="http://www.w3.org/2000/svg" xmlns:xlink="http://www.w3.org/1999/xlink" x="0px" y="0px"
	 width="805px" height="179px" viewBox="0 0 805 179" enable-background="new 0 0 805 179" xml:space="preserve">
<g id="Layer_2">
</g>
<g id="Layer_1_1_">
	<g>
		<g>
			<circle fill="none" stroke="#0A6CB5" stroke-width="1.5" stroke-miterlimit="10" cx="132.587" cy="44.513" r="34.19"/>
			<g>
				<g>
					<g>
						<path fill="none" stroke="#0A6CB5" stroke-width="1.5" stroke-miterlimit="10" d="M115.196,59.863
							c-0.911,0-1.656-0.745-1.656-1.656V33.432c0-0.911,0.745-1.656,1.656-1.656h35.36c0.911,0,1.656,0.745,1.656,1.656v24.776
							c0,0.911-0.745,1.656-1.656,1.656h-35.36V59.863z"/>
					</g>
				</g>
			</g>
			<g>
				<g>
					<g>
						<path fill="none" stroke="#0A6CB5" stroke-width="1.5" stroke-miterlimit="10" d="M142.366,31.811V24.89
							c0-0.911-0.745-1.656-1.656-1.656h-15.667c-0.911,0-1.656,0.745-1.656,1.656v6.921"/>
					</g>
				</g>
			</g>
			<g>
				<g>
					<polyline fill="none" stroke="#0A6CB5" stroke-width="1.5" stroke-miterlimit="10" points="138.561,31.641 138.561,27.952 
						127.196,27.952 127.196,31.641 					"/>
				</g>
			</g>
		</g>
		
			<line fill="none" stroke="#0A6CB5" stroke-width="1.5" stroke-miterlimit="10" x1="118.147" y1="31.726" x2="118.147" y2="59.503"/>
		
			<line fill="none" stroke="#0A6CB5" stroke-width="1.5" stroke-miterlimit="10" x1="147.688" y1="31.726" x2="147.688" y2="59.503"/>
	</g>
	<g>
		<g>
			<path fill="none" stroke="#0A6CB5" stroke-width="1.5" stroke-linecap="round" d="M50.098,35.03
				c-1.654-1.014-3.6-1.601-5.683-1.605c-6.041-0.014-10.951,4.872-10.963,10.917c-0.012,6.042,4.876,10.948,10.914,10.962
				c0.015,0,0.029-0.001,0.044-0.001"/>
			<g>
				
					<line fill="none" stroke="#0A6CB5" stroke-width="1.5" stroke-linecap="round" x1="44.383" y1="62.285" x2="44.383" y2="69.285"/>
				
					<line fill="none" stroke="#0A6CB5" stroke-width="1.5" stroke-linecap="round" x1="40.713" y1="61.903" x2="39.28" y2="68.755"/>
				<line fill="none" stroke="#0A6CB5" stroke-width="1.5" stroke-linecap="round" x1="37.2" y1="60.779" x2="34.394" y2="67.192"/>
				
					<line fill="none" stroke="#0A6CB5" stroke-width="1.5" stroke-linecap="round" x1="33.99" y1="58.958" x2="29.931" y2="64.662"/>
				<line fill="none" stroke="#0A6CB5" stroke-width="1.5" stroke-linecap="round" x1="31.222" y1="56.52" x2="26.081" y2="61.27"/>
				
					<line fill="none" stroke="#0A6CB5" stroke-width="1.5" stroke-linecap="round" x1="29.011" y1="53.565" x2="23.007" y2="57.162"/>
				
					<line fill="none" stroke="#0A6CB5" stroke-width="1.5" stroke-linecap="round" x1="27.454" y1="50.222" x2="20.84" y2="52.513"/>
				
					<line fill="none" stroke="#0A6CB5" stroke-width="1.5" stroke-linecap="round" x1="26.613" y1="46.629" x2="19.67" y2="47.517"/>
				
					<line fill="none" stroke="#0A6CB5" stroke-width="1.5" stroke-linecap="round" x1="26.526" y1="42.941" x2="19.549" y2="42.388"/>
				
					<line fill="none" stroke="#0A6CB5" stroke-width="1.5" stroke-linecap="round" x1="27.196" y1="39.312" x2="20.48" y2="37.343"/>
				
					<line fill="none" stroke="#0A6CB5" stroke-width="1.5" stroke-linecap="round" x1="28.594" y1="35.898" x2="22.425" y2="32.595"/>
				<line fill="none" stroke="#0A6CB5" stroke-width="1.5" stroke-linecap="round" x1="30.663" y1="32.843" x2="25.3" y2="28.346"/>
				
					<line fill="none" stroke="#0A6CB5" stroke-width="1.5" stroke-linecap="round" x1="33.313" y1="30.277" x2="28.985" y2="24.778"/>
				
					<line fill="none" stroke="#0A6CB5" stroke-width="1.5" stroke-linecap="round" x1="36.433" y1="28.306" x2="33.323" y2="22.038"/>
				
					<line fill="none" stroke="#0A6CB5" stroke-width="1.5" stroke-linecap="round" x1="39.891" y1="27.018" x2="38.13" y2="20.244"/>
				
					<line fill="none" stroke="#0A6CB5" stroke-width="1.5" stroke-linecap="round" x1="43.538" y1="26.463" x2="43.203" y2="19.474"/>
				
					<line fill="none" stroke="#0A6CB5" stroke-width="1.5" stroke-linecap="round" x1="47.223" y1="26.669" x2="48.325" y2="19.758"/>
				
					<line fill="none" stroke="#0A6CB5" stroke-width="1.5" stroke-linecap="round" x1="50.786" y1="27.625" x2="53.281" y2="21.085"/>
				<line fill="none" stroke="#0A6CB5" stroke-width="1.5" stroke-linecap="round" x1="54.079" y1="29.29" x2="57.858" y2="23.4"/>
				
					<line fill="none" stroke="#0A6CB5" stroke-width="1.5" stroke-linecap="round" x1="56.96" y1="31.592" x2="61.867" y2="26.603"/>
			</g>
			<circle fill="none" stroke="#0A6CB5" stroke-width="1.5" cx="51.785" cy="36.352" r="2.039"/>
		</g>
		<circle fill="none" stroke="#0A6CB5" stroke-width="1.5" stroke-miterlimit="10" cx="44.195" cy="44.512" r="34.187"/>
	</g>
	<g>
		<circle fill="none" stroke="#0A6CB5" stroke-width="1.5" stroke-miterlimit="10" cx="220.983" cy="44.513" r="34.19"/>
		<g>
			<g>
				<g>
					<path fill="none" stroke="#0A6CB5" stroke-width="1.5" stroke-miterlimit="10" d="M200.739,43.256
						c-0.771,0-1.402-0.631-1.402-1.403V29.82c0-0.772,0.631-1.403,1.402-1.403h4.979c0.772,0,1.404,0.631,1.404,1.403v12.033
						c0,0.772-0.632,1.403-1.404,1.403H200.739z"/>
				</g>
			</g>
			<g>
				<g>
					<path fill="none" stroke="#0A6CB5" stroke-width="1.5" stroke-miterlimit="10" d="M228.867,41.853
						c0,0.771-0.632,1.402-1.403,1.402h-12.957c-0.771,0-1.402-0.631-1.402-1.402V29.819c0-0.771,0.631-1.403,1.402-1.403h11.715
						l0.966,0.01c12.392,0,18.38,9.315,18.38,20.935h-3.106c0-5.405-3.796-13.349-9.196-13.349c-2.807,0-4.397,1.271-4.397,3.866
						v1.975H228.867z"/>
				</g>
			</g>
			<path fill="none" stroke="#0A6CB5" stroke-width="1.5" stroke-miterlimit="10" d="M207.157,41.735
				c0-1.638,1.328-2.965,2.965-2.965c1.639,0,2.967,1.327,2.967,2.965"/>
			<path fill="none" stroke="#0A6CB5" stroke-width="1.5" stroke-miterlimit="10" d="M227.475,43.257
				c-1.638,0-2.966,1.328-2.966,2.965v18.957"/>
			<path fill="none" stroke="#0A6CB5" stroke-width="1.5" stroke-miterlimit="10" d="M213.089,29.829
				c0,1.638-1.328,2.965-2.967,2.965c-1.637,0-2.965-1.327-2.965-2.965"/>
			<path fill="none" stroke="#0A6CB5" stroke-width="1.5" stroke-miterlimit="10" d="M214.36,43.257
				c1.637,0,2.965,1.328,2.965,2.965v18.957"/>
		</g>
		<polyline fill="none" stroke="#0A6CB5" stroke-width="1.5" stroke-miterlimit="10" points="216.317,78.512 216.317,67.137 
			217.237,65.096 224.562,65.096 225.483,67.137 225.483,78.512 		"/>
		
			<line fill="none" stroke="#0A6CB5" stroke-width="1.5" stroke-miterlimit="10" x1="222.649" y1="68.975" x2="222.649" y2="78.512"/>
		<line fill="none" stroke="#0A6CB5" stroke-width="1.5" stroke-miterlimit="10" x1="219.15" y1="78.512" x2="219.15" y2="68.975"/>
	</g>
	
		<line fill="none" stroke="#ADADAD" stroke-width="1.5" stroke-linecap="round" stroke-miterlimit="10" x1="453.133" y1="41.838" x2="453.133" y2="41.838"/>
	<g>
		<g>
			<circle fill="none" stroke="#0A6CB5" stroke-width="1.5" stroke-miterlimit="10" cx="397.775" cy="44.197" r="34.189"/>
			<g>
				<g>
					<g>
						<path fill="none" stroke="#0A6CB5" stroke-width="1.5" stroke-miterlimit="10" d="M408.832,26.231
							c0-0.911-0.745-1.656-1.656-1.656h-21.958c-0.911,0-1.656,0.745-1.656,1.656v35.355c0,0.911,0.745,1.656,1.656,1.656h26.819
							c0.911,0,1.656-0.745,1.656-1.656v-7.999c0-0.911-0.745-1.656-1.656-1.656h-1.55c-0.911,0-1.656-0.745-1.656-1.656
							L408.832,26.231L408.832,26.231z"/>
					</g>
					<g>
						<path fill="none" stroke="#0A6CB5" stroke-width="1.5" stroke-miterlimit="10" d="M408.832,26.231
							c0-0.911-0.745-1.656-1.656-1.656h-21.958c-0.911,0-1.656,0.745-1.656,1.656v35.355c0,0.911,0.745,1.656,1.656,1.656h21.958
							c0.911,0,1.656-0.745,1.656-1.656V51.284c0-0.911,0.745-1.656,1.656-1.656h1.55c0.911,0,1.656-0.745,1.656-1.656v-7.996
							c0-0.911-0.745-1.656-1.656-1.656h-1.55c-0.911,0-1.656-0.745-1.656-1.656V26.231z"/>
					</g>
					<g>
						<path fill="#FFFFFF" d="M408.832,61.586c0,0.911-0.745,1.656-1.656,1.656h-21.958c-0.911,0-1.656-0.745-1.656-1.656V26.231
							c0-0.911,0.745-1.656,1.656-1.656h26.819c0.911,0,1.656,0.745,1.656,1.656v8c0,0.911-0.745,1.656-1.656,1.656h-1.55
							c-0.911,0-1.656,0.745-1.656,1.656L408.832,61.586L408.832,61.586z"/>
						<path fill="none" stroke="#0A6CB5" stroke-width="1.5" stroke-miterlimit="10" d="M408.832,61.586
							c0,0.911-0.745,1.656-1.656,1.656h-21.958c-0.911,0-1.656-0.745-1.656-1.656V26.231c0-0.911,0.745-1.656,1.656-1.656h26.819
							c0.911,0,1.656,0.745,1.656,1.656v8c0,0.911-0.745,1.656-1.656,1.656h-1.55c-0.911,0-1.656,0.745-1.656,1.656L408.832,61.586
							L408.832,61.586z"/>
					</g>
				</g>
				<g>
					
						<line fill="none" stroke="#0A6CB5" stroke-width="1.5" stroke-linecap="round" stroke-miterlimit="10" x1="386.361" y1="30.767" x2="380.804" y2="30.767"/>
					
						<line fill="none" stroke="#0A6CB5" stroke-width="1.5" stroke-linecap="round" stroke-miterlimit="10" x1="386.361" y1="43.961" x2="380.804" y2="43.961"/>
					
						<line fill="none" stroke="#0A6CB5" stroke-width="1.5" stroke-linecap="round" stroke-miterlimit="10" x1="386.361" y1="57.154" x2="380.804" y2="57.154"/>
				</g>
				
					<line fill="none" stroke="#0A6CB5" stroke-width="1.5" stroke-miterlimit="10" x1="390.169" y1="31.229" x2="404.271" y2="31.229"/>
				
					<line fill="none" stroke="#0A6CB5" stroke-width="1.5" stroke-miterlimit="10" x1="390.169" y1="35.43" x2="404.271" y2="35.43"/>
				
					<line fill="none" stroke="#0A6CB5" stroke-width="1.5" stroke-miterlimit="10" x1="390.169" y1="39.632" x2="404.271" y2="39.632"/>
				
					<line fill="none" stroke="#0A6CB5" stroke-width="1.5" stroke-miterlimit="10" x1="390.169" y1="43.834" x2="404.271" y2="43.834"/>
				
					<line fill="none" stroke="#0A6CB5" stroke-width="1.5" stroke-miterlimit="10" x1="390.169" y1="48.036" x2="404.271" y2="48.036"/>
				
					<line fill="none" stroke="#0A6CB5" stroke-width="1.5" stroke-miterlimit="10" x1="390.169" y1="52.237" x2="404.271" y2="52.237"/>
				
					<line fill="none" stroke="#0A6CB5" stroke-width="1.5" stroke-miterlimit="10" x1="390.169" y1="56.438" x2="404.271" y2="56.438"/>
			</g>
		</g>
		<g>
			<polyline fill="none" stroke="#0A6CB5" stroke-width="1.5" stroke-miterlimit="10" points="374.927,48.812 369.978,43.862 
				374.927,38.913 			"/>
			<polyline fill="none" stroke="#0A6CB5" stroke-width="1.5" stroke-miterlimit="10" points="420.619,38.913 425.569,43.862 
				420.619,48.812 			"/>
		</g>
	</g>
	<g>
		<g>
			<g>
				<circle fill="none" stroke="#0A6CB5" stroke-width="1.5" stroke-miterlimit="10" cx="297.101" cy="31.184" r="3.521"/>
				<g>
					
						<line fill="none" stroke="#0A6CB5" stroke-width="1.5" stroke-miterlimit="10" x1="305.554" y1="28.952" x2="324.277" y2="28.952"/>
					
						<line fill="none" stroke="#0A6CB5" stroke-width="1.5" stroke-miterlimit="10" x1="305.554" y1="33.415" x2="319.814" y2="33.415"/>
				</g>
			</g>
			<g>
				<circle fill="none" stroke="#0A6CB5" stroke-width="1.5" stroke-miterlimit="10" cx="297.101" cy="44.155" r="3.521"/>
				<g>
					
						<line fill="none" stroke="#0A6CB5" stroke-width="1.5" stroke-miterlimit="10" x1="305.554" y1="41.923" x2="324.277" y2="41.923"/>
					
						<line fill="none" stroke="#0A6CB5" stroke-width="1.5" stroke-miterlimit="10" x1="305.554" y1="46.387" x2="319.814" y2="46.387"/>
				</g>
			</g>
			<g>
				<circle fill="none" stroke="#0A6CB5" stroke-width="1.5" stroke-miterlimit="10" cx="297.101" cy="57.126" r="3.521"/>
				<g>
					
						<line fill="none" stroke="#0A6CB5" stroke-width="1.5" stroke-miterlimit="10" x1="305.554" y1="54.895" x2="324.277" y2="54.895"/>
					
						<line fill="none" stroke="#0A6CB5" stroke-width="1.5" stroke-miterlimit="10" x1="305.554" y1="59.357" x2="319.814" y2="59.357"/>
				</g>
			</g>
		</g>
		<circle fill="none" stroke="#0A6CB5" stroke-width="1.5" stroke-miterlimit="10" cx="309.379" cy="44.53" r="34.19"/>
	</g>
	<g>
		<g>
			<circle fill="none" stroke="#0A6CB5" stroke-width="1.5" stroke-miterlimit="10" cx="486.171" cy="44.562" r="34.19"/>
			<g>
				<g>
					<g>
						<path fill="none" stroke="#0A6CB5" stroke-width="1.5" stroke-miterlimit="10" d="M501.52,61.954
							c0,0.911-0.745,1.656-1.656,1.656h-26.818c-0.911,0-1.656-0.745-1.656-1.656V26.595c0-0.911,0.745-1.656,1.656-1.656h26.818
							c0.911,0,1.656,0.745,1.656,1.656V61.954z"/>
					</g>
				</g>
				
					<line fill="none" stroke="#0A6CB5" stroke-width="1.5" stroke-miterlimit="10" x1="469.129" y1="33.346" x2="473.653" y2="33.346"/>
				
					<line fill="none" stroke="#0A6CB5" stroke-width="1.5" stroke-miterlimit="10" x1="469.129" y1="36.961" x2="473.653" y2="36.961"/>
				
					<line fill="none" stroke="#0A6CB5" stroke-width="1.5" stroke-miterlimit="10" x1="469.129" y1="40.578" x2="473.653" y2="40.578"/>
				
					<line fill="none" stroke="#0A6CB5" stroke-width="1.5" stroke-miterlimit="10" x1="469.129" y1="44.193" x2="473.653" y2="44.193"/>
				
					<line fill="none" stroke="#0A6CB5" stroke-width="1.5" stroke-miterlimit="10" x1="469.129" y1="47.809" x2="473.653" y2="47.809"/>
				
					<line fill="none" stroke="#0A6CB5" stroke-width="1.5" stroke-miterlimit="10" x1="469.129" y1="58.656" x2="473.653" y2="58.656"/>
				
					<line fill="none" stroke="#0A6CB5" stroke-width="1.5" stroke-miterlimit="10" x1="469.129" y1="29.73" x2="473.653" y2="29.73"/>
				
					<line fill="none" stroke="#0A6CB5" stroke-width="1.5" stroke-miterlimit="10" x1="469.129" y1="51.424" x2="473.653" y2="51.424"/>
				
					<line fill="none" stroke="#0A6CB5" stroke-width="1.5" stroke-miterlimit="10" x1="469.129" y1="55.04" x2="473.653" y2="55.04"/>
			</g>
		</g>
		<polygon fill="none" stroke="#0A6CB5" stroke-width="1.5" stroke-miterlimit="10" points="485.335,34.41 488.521,39.929 
			491.708,45.448 485.335,45.448 478.961,45.448 482.151,39.929 		"/>
		
			<rect x="485.545" y="41.351" fill="none" stroke="#0A6CB5" stroke-width="1.5" stroke-miterlimit="10" width="9.856" height="9.854"/>
	</g>
	<g>
		<circle fill="none" stroke="#0A6CB5" stroke-width="1.5" stroke-miterlimit="10" cx="751.355" cy="44.559" r="34.19"/>
		<g>
			<g>
				<g>
					<path fill="none" stroke="#0A6CB5" stroke-width="1.5" stroke-miterlimit="10" d="M769.793,40.978
						c0,0.911-0.745,1.656-1.656,1.656h-13.213c-0.911,0-1.656-0.745-1.656-1.656V27.761c0-0.911,0.745-1.656,1.656-1.656h13.213
						c0.911,0,1.656,0.745,1.656,1.656V40.978z"/>
				</g>
				
					<line fill="none" stroke="#0A6CB5" stroke-width="1.5" stroke-miterlimit="10" x1="757.107" y1="34.37" x2="765.955" y2="34.37"/>
				<g>
					<path fill="none" stroke="#0A6CB5" stroke-width="1.5" stroke-miterlimit="10" d="M749.438,40.978
						c0,0.911-0.744,1.656-1.655,1.656H734.57c-0.911,0-1.656-0.745-1.656-1.656V27.761c0-0.911,0.745-1.656,1.656-1.656h13.211
						c0.911,0,1.656,0.745,1.656,1.656V40.978L749.438,40.978z"/>
				</g>
				<line fill="none" stroke="#0A6CB5" stroke-width="1.5" stroke-miterlimit="10" x1="736.752" y1="34.37" x2="745.6" y2="34.37"/>
				
					<line fill="none" stroke="#0A6CB5" stroke-width="1.5" stroke-miterlimit="10" x1="741.176" y1="29.946" x2="741.176" y2="38.793"/>
				<g>
					<path fill="none" stroke="#0A6CB5" stroke-width="1.5" stroke-miterlimit="10" d="M769.793,61.357
						c0,0.911-0.745,1.656-1.656,1.656h-13.213c-0.911,0-1.656-0.745-1.656-1.656V48.143c0-0.911,0.745-1.656,1.656-1.656h13.213
						c0.911,0,1.656,0.745,1.656,1.656V61.357z"/>
				</g>
				
					<line fill="none" stroke="#0A6CB5" stroke-width="1.5" stroke-miterlimit="10" x1="757.107" y1="54.751" x2="765.955" y2="54.751"/>
				<g>
					<path fill="none" stroke="#0A6CB5" stroke-width="1.5" stroke-miterlimit="10" d="M749.438,61.357
						c0,0.911-0.744,1.656-1.655,1.656H734.57c-0.911,0-1.656-0.745-1.656-1.656V48.143c0-0.911,0.745-1.656,1.656-1.656h13.211
						c0.911,0,1.656,0.745,1.656,1.656V61.357L749.438,61.357z"/>
				</g>
				
					<line fill="none" stroke="#0A6CB5" stroke-width="1.5" stroke-miterlimit="10" x1="738.047" y1="51.622" x2="744.301" y2="57.879"/>
				
					<line fill="none" stroke="#0A6CB5" stroke-width="1.5" stroke-miterlimit="10" x1="744.305" y1="51.622" x2="738.047" y2="57.879"/>
				<circle fill="#0A6CB5" cx="761.53" cy="57.958" r="1.069"/>
				<circle fill="#0A6CB5" cx="761.53" cy="51.542" r="1.069"/>
			</g>
		</g>
	</g>
	<g>
		<circle fill="none" stroke="#0A6CB5" stroke-width="1.5" stroke-miterlimit="10" cx="662.959" cy="44.559" r="34.19"/>
		<g>
			<g>
				<g>
					<g>
						<g>
							<polyline fill="none" stroke="#0A6CB5" stroke-width="1.5" stroke-miterlimit="10" points="648.348,75.434 648.348,55.764 
								644.072,39.438 639.797,55.764 639.797,69.934 							"/>
							
								<line fill="none" stroke="#0A6CB5" stroke-width="1.5" stroke-miterlimit="10" x1="641.961" y1="57.646" x2="639.797" y2="55.779"/>
							
								<line fill="none" stroke="#0A6CB5" stroke-width="1.5" stroke-miterlimit="10" x1="648.348" y1="55.779" x2="646.186" y2="57.646"/>
							
								<line fill="none" stroke="#0A6CB5" stroke-width="1.5" stroke-miterlimit="10" x1="642.594" y1="45.102" x2="645.627" y2="45.102"/>
							<polyline fill="none" stroke="#0A6CB5" stroke-width="1.5" stroke-miterlimit="10" points="641.961,71.434 641.961,57.646 
								644.072,55.419 646.186,57.646 646.186,74.309 							"/>
						</g>
					</g>
				</g>
			</g>
			<g>
				<path fill="none" stroke="#0A6CB5" stroke-width="1.5" stroke-miterlimit="10" d="M680.748,35.116v-1.183l0.342-1.305
					c0.17-0.588,0.596-0.582,0.748,0l0.34,1.304v1.184"/>
				<path fill="none" stroke="#0A6CB5" stroke-width="1.5" stroke-miterlimit="10" d="M686.102,69.726c0,0,0-2,0-5.018
					c0-16.661-3.452-29.563-3.452-29.563h-2.371c0,0-3.455,12.902-3.455,29.563c0,6.518,0,10.935,0,10.935"/>
				
					<line fill="none" stroke="#0A6CB5" stroke-width="1.5" stroke-miterlimit="10" x1="678.191" y1="46.116" x2="684.734" y2="46.116"/>
				
					<line fill="none" stroke="#0A6CB5" stroke-width="1.5" stroke-miterlimit="10" x1="676.807" y1="66.072" x2="686.119" y2="66.072"/>
				
					<line fill="none" stroke="#0A6CB5" stroke-width="1.5" stroke-miterlimit="10" x1="676.807" y1="63.609" x2="686.119" y2="63.609"/>
			</g>
			<g>
				<polyline fill="none" stroke="#0A6CB5" stroke-width="1.5" stroke-miterlimit="10" points="665.969,27.807 665.969,20.134 
					659.475,22.491 659.475,27.807 				"/>
				
					<line fill="none" stroke="#0A6CB5" stroke-width="1.5" stroke-miterlimit="10" x1="665.969" y1="21.92" x2="659.475" y2="24.276"/>
				<path fill="none" stroke="#0A6CB5" stroke-width="1.5" stroke-miterlimit="10" d="M671.266,77.684c0,0,0-28.346,0-32.566
					c0-5.013-3.733-4.932-3.733-9.193v-8.117h-9.619v8.117c0,4.262-3.734,4.181-3.734,9.193c0,4.221,0,32.566,0,32.566"/>
				
					<line fill="none" stroke="#0A6CB5" stroke-width="1.5" stroke-miterlimit="10" x1="671.191" y1="50.985" x2="654.254" y2="57.132"/>
				
					<line fill="none" stroke="#0A6CB5" stroke-width="1.5" stroke-miterlimit="10" x1="671.191" y1="56.518" x2="654.254" y2="62.664"/>
				
					<line fill="none" stroke="#0A6CB5" stroke-width="1.5" stroke-miterlimit="10" x1="671.191" y1="62.049" x2="654.254" y2="68.196"/>
			</g>
		</g>
	</g>
	<g>
		<g>
			<g>
				<defs>
					<circle id="SVGID_1_" cx="574.625" cy="44.558" r="34.186"/>
				</defs>
				<clipPath id="SVGID_2_">
					<use xlink:href="#SVGID_1_"  overflow="visible"/>
				</clipPath>
				<g clip-path="url(#SVGID_2_)">
					<g>
						<path fill="none" stroke="#0A6CB5" stroke-width="1.5" stroke-miterlimit="10" d="M599.752,82.046
							c0,0.911-0.745,1.656-1.656,1.656h-46.824c-0.911,0-1.656-0.745-1.656-1.656V32.908c0-0.911,0.745-1.656,1.656-1.656h46.824
							c0.911,0,1.656,0.745,1.656,1.656V82.046z"/>
					</g>
					<g>
						<g>
							<path fill="#0A6CB5" d="M592.145,74.004c0-0.46,0.378-0.836,0.855-0.836l0,0c0.48,0,0.855,0.376,0.855,0.836l0,0
								c0,0.481-0.375,0.874-0.855,0.874l0,0C592.521,74.878,592.145,74.486,592.145,74.004z M588.812,74.004
								c0-0.46,0.377-0.836,0.854-0.836l0,0c0.461,0,0.838,0.376,0.838,0.836l0,0c0,0.481-0.377,0.874-0.838,0.874l0,0
								C589.189,74.878,588.812,74.486,588.812,74.004z M585.461,74.004c0-0.46,0.377-0.836,0.855-0.836l0,0
								c0.479,0,0.854,0.376,0.854,0.836l0,0c0,0.481-0.377,0.874-0.854,0.874l0,0C585.838,74.878,585.461,74.486,585.461,74.004z
								 M582.129,74.004c0-0.46,0.377-0.836,0.838-0.836l0,0c0.478,0,0.854,0.376,0.854,0.836l0,0c0,0.481-0.377,0.874-0.854,0.874
								l0,0C582.506,74.878,582.129,74.486,582.129,74.004z M578.777,74.004c0-0.46,0.377-0.836,0.854-0.836l0,0
								c0.463,0,0.855,0.376,0.855,0.836l0,0c0,0.481-0.394,0.874-0.855,0.874l0,0C579.154,74.878,578.777,74.486,578.777,74.004z
								 M575.429,74.004c0-0.46,0.396-0.836,0.854-0.836l0,0c0.479,0,0.854,0.376,0.854,0.836l0,0c0,0.481-0.374,0.874-0.854,0.874
								l0,0C575.823,74.878,575.429,74.486,575.429,74.004z M572.097,74.004c0-0.46,0.373-0.836,0.855-0.836l0,0
								c0.459,0,0.854,0.376,0.854,0.836l0,0c0,0.481-0.395,0.874-0.854,0.874l0,0C572.47,74.878,572.097,74.486,572.097,74.004z
								 M568.745,74.004c0-0.46,0.393-0.836,0.854-0.836l0,0c0.48,0,0.855,0.376,0.855,0.836l0,0c0,0.481-0.375,0.874-0.855,0.874
								l0,0C569.138,74.878,568.745,74.486,568.745,74.004z M565.413,74.004c0-0.46,0.375-0.836,0.854-0.836l0,0
								c0.462,0,0.855,0.376,0.855,0.836l0,0c0,0.481-0.396,0.874-0.855,0.874l0,0C565.788,74.878,565.413,74.486,565.413,74.004z
								 M562.062,74.004c0-0.46,0.395-0.836,0.854-0.836l0,0c0.48,0,0.855,0.376,0.855,0.836l0,0c0,0.481-0.375,0.874-0.855,0.874
								l0,0C562.456,74.878,562.062,74.486,562.062,74.004z M558.729,74.004c0-0.46,0.375-0.836,0.854-0.836l0,0
								c0.461,0,0.854,0.376,0.854,0.836l0,0c0,0.481-0.395,0.874-0.854,0.874l0,0C559.104,74.878,558.729,74.486,558.729,74.004z
								 M555.376,74.004c0-0.46,0.379-0.836,0.854-0.836l0,0c0.48,0,0.855,0.376,0.855,0.836l0,0c0,0.481-0.375,0.874-0.855,0.874
								l0,0C555.755,74.878,555.376,74.486,555.376,74.004z M552.027,74.004c0-0.46,0.394-0.836,0.855-0.836l0,0
								c0.478,0,0.871,0.376,0.871,0.836l0,0c0,0.481-0.395,0.874-0.871,0.874l0,0C552.421,74.878,552.027,74.486,552.027,74.004z"
								/>
						</g>
						<g>
							<path fill="#0A6CB5" d="M596.352,74.859c-0.223,0-0.444-0.083-0.6-0.239c-0.17-0.17-0.256-0.392-0.256-0.598
								c0-0.222,0.086-0.445,0.24-0.616c0.34-0.323,0.889-0.307,1.213,0c0.151,0.171,0.256,0.395,0.256,0.616
								c0,0.206-0.104,0.428-0.24,0.581C596.777,74.776,596.572,74.859,596.352,74.859z"/>
						</g>
					</g>
					<g>
						<g>
							<path fill="#0A6CB5" d="M592.145,63.767c0-0.479,0.378-0.873,0.855-0.873l0,0c0.48,0,0.855,0.394,0.855,0.873l0,0
								c0,0.462-0.375,0.854-0.855,0.854l0,0C592.521,64.622,592.145,64.229,592.145,63.767z M588.812,63.767
								c0-0.479,0.377-0.873,0.854-0.873l0,0c0.461,0,0.838,0.394,0.838,0.873l0,0c0,0.462-0.377,0.854-0.838,0.854l0,0
								C589.189,64.622,588.812,64.229,588.812,63.767z M585.461,63.767c0-0.479,0.377-0.873,0.855-0.873l0,0
								c0.479,0,0.854,0.394,0.854,0.873l0,0c0,0.462-0.377,0.854-0.854,0.854l0,0C585.838,64.622,585.461,64.229,585.461,63.767z
								 M582.129,63.767c0-0.479,0.377-0.873,0.838-0.873l0,0c0.478,0,0.854,0.394,0.854,0.873l0,0c0,0.462-0.377,0.854-0.854,0.854
								l0,0C582.506,64.622,582.129,64.229,582.129,63.767z M578.777,63.767c0-0.479,0.377-0.873,0.854-0.873l0,0
								c0.463,0,0.855,0.394,0.855,0.873l0,0c0,0.462-0.394,0.854-0.855,0.854l0,0C579.154,64.622,578.777,64.229,578.777,63.767z
								 M575.429,63.767c0-0.479,0.396-0.873,0.854-0.873l0,0c0.479,0,0.854,0.394,0.854,0.873l0,0c0,0.462-0.374,0.854-0.854,0.854
								l0,0C575.823,64.622,575.429,64.229,575.429,63.767z M572.097,63.767c0-0.479,0.373-0.873,0.855-0.873l0,0
								c0.459,0,0.854,0.394,0.854,0.873l0,0c0,0.462-0.395,0.854-0.854,0.854l0,0C572.47,64.622,572.097,64.229,572.097,63.767z
								 M568.745,63.767c0-0.479,0.393-0.873,0.854-0.873l0,0c0.48,0,0.855,0.394,0.855,0.873l0,0c0,0.462-0.375,0.854-0.855,0.854
								l0,0C569.138,64.622,568.745,64.229,568.745,63.767z M565.413,63.767c0-0.479,0.375-0.873,0.854-0.873l0,0
								c0.462,0,0.855,0.394,0.855,0.873l0,0c0,0.462-0.396,0.854-0.855,0.854l0,0C565.788,64.622,565.413,64.229,565.413,63.767z
								 M562.062,63.767c0-0.479,0.395-0.873,0.854-0.873l0,0c0.48,0,0.855,0.394,0.855,0.873l0,0c0,0.462-0.375,0.854-0.855,0.854
								l0,0C562.456,64.622,562.062,64.229,562.062,63.767z M558.729,63.767c0-0.479,0.375-0.873,0.854-0.873l0,0
								c0.461,0,0.854,0.394,0.854,0.873l0,0c0,0.462-0.395,0.854-0.854,0.854l0,0C559.104,64.622,558.729,64.229,558.729,63.767z
								 M555.376,63.767c0-0.479,0.379-0.873,0.854-0.873l0,0c0.48,0,0.855,0.394,0.855,0.873l0,0c0,0.462-0.375,0.854-0.855,0.854
								l0,0C555.755,64.622,555.376,64.229,555.376,63.767z M552.027,63.767c0-0.479,0.394-0.873,0.855-0.873l0,0
								c0.478,0,0.871,0.394,0.871,0.873l0,0c0,0.462-0.395,0.854-0.871,0.854l0,0C552.421,64.622,552.027,64.229,552.027,63.767z"
								/>
						</g>
						<g>
							<path fill="#0A6CB5" d="M596.352,64.622c-0.223,0-0.444-0.102-0.614-0.257c-0.154-0.154-0.24-0.376-0.24-0.616
								c0-0.221,0.086-0.428,0.24-0.581c0.34-0.341,0.889-0.324,1.213-0.017c0.17,0.17,0.256,0.394,0.256,0.598
								c0,0.24-0.104,0.445-0.256,0.616C596.777,64.52,596.572,64.622,596.352,64.622z"/>
						</g>
					</g>
					<g>
						<g>
							<path fill="#0A6CB5" d="M592.145,53.511c0-0.479,0.378-0.874,0.855-0.874l0,0c0.48,0,0.855,0.394,0.855,0.874l0,0
								c0,0.462-0.375,0.836-0.855,0.836l0,0C592.521,54.347,592.145,53.973,592.145,53.511z M588.812,53.511
								c0-0.479,0.377-0.874,0.854-0.874l0,0c0.461,0,0.838,0.394,0.838,0.874l0,0c0,0.462-0.377,0.836-0.838,0.836l0,0
								C589.189,54.347,588.812,53.973,588.812,53.511z M585.461,53.511c0-0.479,0.377-0.874,0.855-0.874l0,0
								c0.479,0,0.854,0.394,0.854,0.874l0,0c0,0.462-0.377,0.836-0.854,0.836l0,0C585.838,54.347,585.461,53.973,585.461,53.511z
								 M582.129,53.511c0-0.479,0.377-0.874,0.838-0.874l0,0c0.478,0,0.854,0.394,0.854,0.874l0,0c0,0.462-0.377,0.836-0.854,0.836
								l0,0C582.506,54.347,582.129,53.973,582.129,53.511z M578.777,53.511c0-0.479,0.377-0.874,0.854-0.874l0,0
								c0.463,0,0.855,0.394,0.855,0.874l0,0c0,0.462-0.394,0.836-0.855,0.836l0,0C579.154,54.347,578.777,53.973,578.777,53.511z
								 M575.429,53.511c0-0.479,0.396-0.874,0.854-0.874l0,0c0.479,0,0.854,0.394,0.854,0.874l0,0c0,0.462-0.374,0.836-0.854,0.836
								l0,0C575.823,54.347,575.429,53.973,575.429,53.511z M572.097,53.511c0-0.479,0.373-0.874,0.855-0.874l0,0
								c0.459,0,0.854,0.394,0.854,0.874l0,0c0,0.462-0.395,0.836-0.854,0.836l0,0C572.47,54.347,572.097,53.973,572.097,53.511z
								 M568.745,53.511c0-0.479,0.393-0.874,0.854-0.874l0,0c0.48,0,0.855,0.394,0.855,0.874l0,0c0,0.462-0.375,0.836-0.855,0.836
								l0,0C569.138,54.347,568.745,53.973,568.745,53.511z M565.413,53.511c0-0.479,0.375-0.874,0.854-0.874l0,0
								c0.462,0,0.855,0.394,0.855,0.874l0,0c0,0.462-0.396,0.836-0.855,0.836l0,0C565.788,54.347,565.413,53.973,565.413,53.511z
								 M562.062,53.511c0-0.479,0.395-0.874,0.854-0.874l0,0c0.48,0,0.855,0.394,0.855,0.874l0,0c0,0.462-0.375,0.836-0.855,0.836
								l0,0C562.456,54.347,562.062,53.973,562.062,53.511z M558.729,53.511c0-0.479,0.375-0.874,0.854-0.874l0,0
								c0.461,0,0.854,0.394,0.854,0.874l0,0c0,0.462-0.395,0.836-0.854,0.836l0,0C559.104,54.347,558.729,53.973,558.729,53.511z
								 M555.376,53.511c0-0.479,0.379-0.874,0.854-0.874l0,0c0.48,0,0.855,0.394,0.855,0.874l0,0c0,0.462-0.375,0.836-0.855,0.836
								l0,0C555.755,54.347,555.376,53.973,555.376,53.511z M552.027,53.511c0-0.479,0.394-0.874,0.855-0.874l0,0
								c0.478,0,0.871,0.394,0.871,0.874l0,0c0,0.462-0.395,0.836-0.871,0.836l0,0C552.421,54.347,552.027,53.973,552.027,53.511z"
								/>
						</g>
						<g>
							<path fill="#0A6CB5" d="M596.352,54.366c-0.223,0-0.444-0.103-0.614-0.257c-0.154-0.17-0.24-0.392-0.24-0.597
								c0-0.239,0.086-0.446,0.24-0.6c0.323-0.341,0.889-0.324,1.213-0.017c0.17,0.17,0.256,0.394,0.256,0.616
								c0,0.205-0.104,0.427-0.24,0.581C596.777,54.263,596.572,54.366,596.352,54.366z"/>
						</g>
					</g>
					<g>
						<g>
							<path fill="#0A6CB5" d="M558.608,80.569c0-0.478,0.395-0.855,0.854-0.855l0,0c0.477,0,0.854,0.377,0.854,0.855l0,0
								c0,0.462-0.378,0.854-0.854,0.854l0,0C559.003,81.423,558.608,81.031,558.608,80.569z M558.608,77.22
								c0-0.462,0.395-0.854,0.854-0.854l0,0c0.477,0,0.854,0.392,0.854,0.854l0,0c0,0.479-0.378,0.855-0.854,0.855l0,0
								C559.003,78.075,558.608,77.697,558.608,77.22z M558.608,73.886c0-0.479,0.395-0.854,0.854-0.854l0,0
								c0.477,0,0.854,0.375,0.854,0.854l0,0c0,0.462-0.378,0.854-0.854,0.854l0,0C559.003,74.741,558.608,74.349,558.608,73.886z
								 M558.608,70.536c0-0.461,0.395-0.854,0.854-0.854l0,0c0.477,0,0.854,0.394,0.854,0.854l0,0c0,0.478-0.378,0.855-0.854,0.855
								l0,0C559.003,71.391,558.608,71.013,558.608,70.536z M558.608,67.186c0-0.463,0.395-0.854,0.854-0.854l0,0
								c0.477,0,0.854,0.392,0.854,0.854l0,0c0,0.479-0.378,0.854-0.854,0.854l0,0C559.003,68.041,558.608,67.665,558.608,67.186z
								 M558.608,63.852c0-0.477,0.395-0.854,0.854-0.854l0,0c0.477,0,0.854,0.377,0.854,0.854l0,0c0,0.478-0.378,0.854-0.854,0.854
								l0,0C559.003,64.707,558.608,64.33,558.608,63.852z M558.608,60.502c0-0.463,0.395-0.855,0.854-0.855l0,0
								c0.477,0,0.854,0.393,0.854,0.855l0,0c0,0.479-0.378,0.854-0.854,0.854l0,0C559.003,61.356,558.608,60.981,558.608,60.502z
								 M558.608,57.168c0-0.478,0.395-0.855,0.854-0.855l0,0c0.477,0,0.854,0.377,0.854,0.855l0,0c0,0.46-0.378,0.854-0.854,0.854
								l0,0C559.003,58.023,558.608,57.629,558.608,57.168z M558.608,53.818c0-0.462,0.395-0.854,0.854-0.854l0,0
								c0.477,0,0.854,0.392,0.854,0.854l0,0c0,0.479-0.378,0.854-0.854,0.854l0,0C559.003,54.672,558.608,54.297,558.608,53.818z
								 M558.608,50.485c0-0.478,0.395-0.855,0.854-0.855l0,0c0.477,0,0.854,0.378,0.854,0.855l0,0c0,0.462-0.378,0.854-0.854,0.854
								l0,0C559.003,51.339,558.608,50.947,558.608,50.485z M558.608,47.135c0-0.462,0.395-0.854,0.854-0.854l0,0
								c0.477,0,0.854,0.393,0.854,0.854l0,0c0,0.478-0.378,0.855-0.854,0.855l0,0C559.003,47.991,558.608,47.613,558.608,47.135z"
								/>
						</g>
					</g>
					<g>
						<g>
							<path fill="#0A6CB5" d="M568.864,80.569c0-0.478,0.395-0.855,0.854-0.855l0,0c0.478,0,0.855,0.377,0.855,0.855l0,0
								c0,0.462-0.379,0.854-0.855,0.854l0,0C569.259,81.423,568.864,81.031,568.864,80.569z M568.864,77.22
								c0-0.462,0.395-0.854,0.854-0.854l0,0c0.478,0,0.855,0.392,0.855,0.854l0,0c0,0.479-0.379,0.855-0.855,0.855l0,0
								C569.259,78.075,568.864,77.697,568.864,77.22z M568.864,73.886c0-0.479,0.395-0.854,0.854-0.854l0,0
								c0.478,0,0.855,0.375,0.855,0.854l0,0c0,0.462-0.379,0.854-0.855,0.854l0,0C569.259,74.741,568.864,74.349,568.864,73.886z
								 M568.864,70.536c0-0.461,0.395-0.854,0.854-0.854l0,0c0.478,0,0.855,0.394,0.855,0.854l0,0c0,0.478-0.379,0.855-0.855,0.855
								l0,0C569.259,71.391,568.864,71.013,568.864,70.536z M568.864,67.203c0-0.479,0.395-0.855,0.854-0.855l0,0
								c0.478,0,0.855,0.376,0.855,0.855l0,0c0,0.462-0.379,0.854-0.855,0.854l0,0C569.259,68.057,568.864,67.665,568.864,67.203z
								 M568.864,63.852c0-0.477,0.395-0.854,0.854-0.854l0,0c0.478,0,0.855,0.377,0.855,0.854l0,0c0,0.478-0.379,0.854-0.855,0.854
								l0,0C569.259,64.707,568.864,64.33,568.864,63.852z M568.864,60.519c0-0.479,0.395-0.872,0.854-0.872l0,0
								c0.478,0,0.855,0.393,0.855,0.872l0,0c0,0.462-0.379,0.837-0.855,0.837l0,0C569.259,61.356,568.864,60.981,568.864,60.519z
								 M568.864,57.168c0-0.478,0.395-0.855,0.854-0.855l0,0c0.478,0,0.855,0.377,0.855,0.855l0,0c0,0.479-0.379,0.854-0.855,0.854
								l0,0C569.259,58.023,568.864,57.647,568.864,57.168z M568.864,53.818c0-0.462,0.395-0.854,0.854-0.854l0,0
								c0.478,0,0.855,0.392,0.855,0.854l0,0c0,0.479-0.379,0.854-0.855,0.854l0,0C569.259,54.672,568.864,54.297,568.864,53.818z
								 M568.864,50.485c0-0.478,0.395-0.855,0.854-0.855l0,0c0.478,0,0.855,0.378,0.855,0.855l0,0c0,0.462-0.379,0.854-0.855,0.854
								l0,0C569.259,51.339,568.864,50.947,568.864,50.485z M568.864,47.135c0-0.462,0.395-0.854,0.854-0.854l0,0
								c0.478,0,0.855,0.393,0.855,0.854l0,0c0,0.478-0.379,0.855-0.855,0.855l0,0C569.259,47.991,568.864,47.613,568.864,47.135z"
								/>
						</g>
					</g>
					<g>
						<g>
							<path fill="#0A6CB5" d="M579.121,80.569c0-0.478,0.393-0.855,0.854-0.855l0,0c0.478,0,0.855,0.377,0.855,0.855l0,0
								c0,0.462-0.379,0.854-0.855,0.854l0,0C579.514,81.423,579.121,81.031,579.121,80.569z M579.121,77.22
								c0-0.462,0.393-0.854,0.854-0.854l0,0c0.478,0,0.855,0.392,0.855,0.854l0,0c0,0.479-0.379,0.855-0.855,0.855l0,0
								C579.514,78.075,579.121,77.697,579.121,77.22z M579.121,73.886c0-0.479,0.393-0.854,0.854-0.854l0,0
								c0.478,0,0.855,0.375,0.855,0.854l0,0c0,0.462-0.379,0.854-0.855,0.854l0,0C579.514,74.741,579.121,74.349,579.121,73.886z
								 M579.121,70.536c0-0.461,0.393-0.854,0.854-0.854l0,0c0.478,0,0.855,0.394,0.855,0.854l0,0c0,0.478-0.379,0.855-0.855,0.855
								l0,0C579.514,71.391,579.121,71.013,579.121,70.536z M579.121,67.203c0-0.479,0.393-0.855,0.854-0.855l0,0
								c0.478,0,0.855,0.376,0.855,0.855l0,0c0,0.462-0.379,0.838-0.855,0.838l0,0C579.514,68.041,579.121,67.665,579.121,67.203z
								 M579.121,63.852c0-0.477,0.393-0.854,0.854-0.854l0,0c0.478,0,0.855,0.377,0.855,0.854l0,0c0,0.478-0.379,0.854-0.855,0.854
								l0,0C579.514,64.707,579.121,64.33,579.121,63.852z M579.121,60.502c0-0.463,0.393-0.855,0.854-0.855l0,0
								c0.478,0,0.855,0.393,0.855,0.855l0,0c0,0.479-0.379,0.871-0.855,0.871l0,0C579.514,61.374,579.121,60.981,579.121,60.502z
								 M579.121,57.168c0-0.478,0.393-0.855,0.854-0.855l0,0c0.478,0,0.855,0.377,0.855,0.855l0,0c0,0.46-0.379,0.854-0.855,0.854
								l0,0C579.514,58.023,579.121,57.629,579.121,57.168z M579.121,53.818c0-0.462,0.393-0.854,0.854-0.854l0,0
								c0.478,0,0.855,0.392,0.855,0.854l0,0c0,0.479-0.379,0.854-0.855,0.854l0,0C579.514,54.672,579.121,54.297,579.121,53.818z
								 M579.121,50.485c0-0.478,0.393-0.855,0.854-0.855l0,0c0.478,0,0.855,0.378,0.855,0.855l0,0c0,0.462-0.379,0.854-0.855,0.854
								l0,0C579.514,51.339,579.121,50.947,579.121,50.485z M579.121,47.135c0-0.462,0.393-0.854,0.854-0.854l0,0
								c0.478,0,0.855,0.393,0.855,0.854l0,0c0,0.478-0.379,0.855-0.855,0.855l0,0C579.514,47.991,579.121,47.613,579.121,47.135z"
								/>
						</g>
					</g>
					<g>
						<g>
							<path fill="#0A6CB5" d="M588.949,80.569c0-0.478,0.393-0.855,0.854-0.855l0,0c0.479,0,0.855,0.377,0.855,0.855l0,0
								c0,0.462-0.377,0.854-0.855,0.854l0,0C589.342,81.423,588.949,81.031,588.949,80.569z M588.949,77.22
								c0-0.462,0.393-0.854,0.854-0.854l0,0c0.479,0,0.855,0.392,0.855,0.854l0,0c0,0.479-0.377,0.855-0.855,0.855l0,0
								C589.342,78.075,588.949,77.697,588.949,77.22z M588.949,73.886c0-0.479,0.393-0.854,0.854-0.854l0,0
								c0.479,0,0.855,0.375,0.855,0.854l0,0c0,0.462-0.377,0.854-0.855,0.854l0,0C589.342,74.741,588.949,74.349,588.949,73.886z
								 M588.949,70.536c0-0.479,0.393-0.854,0.854-0.854l0,0c0.479,0,0.855,0.376,0.855,0.854l0,0c0,0.478-0.377,0.855-0.855,0.855
								l0,0C589.342,71.391,588.949,71.013,588.949,70.536z M588.949,67.186c0-0.463,0.393-0.839,0.854-0.839l0,0
								c0.479,0,0.855,0.376,0.855,0.839l0,0c0,0.479-0.377,0.871-0.855,0.871l0,0C589.342,68.057,588.949,67.665,588.949,67.186z
								 M588.949,63.852c0-0.477,0.393-0.854,0.854-0.854l0,0c0.479,0,0.855,0.377,0.855,0.854l0,0c0,0.478-0.377,0.854-0.855,0.854
								l0,0C589.342,64.707,588.949,64.33,588.949,63.852z M588.949,60.502c0-0.463,0.393-0.838,0.854-0.838l0,0
								c0.479,0,0.855,0.375,0.855,0.838l0,0c0,0.479-0.377,0.854-0.855,0.854l0,0C589.342,61.356,588.949,60.981,588.949,60.502z
								 M588.949,57.168c0-0.478,0.393-0.855,0.854-0.855l0,0c0.479,0,0.855,0.377,0.855,0.855l0,0c0,0.46-0.377,0.854-0.855,0.854
								l0,0C589.342,58.023,588.949,57.629,588.949,57.168z M588.949,53.818c0-0.462,0.393-0.854,0.854-0.854l0,0
								c0.479,0,0.855,0.392,0.855,0.854l0,0c0,0.479-0.377,0.854-0.855,0.854l0,0C589.342,54.672,588.949,54.297,588.949,53.818z
								 M588.949,50.485c0-0.478,0.393-0.855,0.854-0.855l0,0c0.479,0,0.855,0.378,0.855,0.855l0,0c0,0.462-0.377,0.854-0.855,0.854
								l0,0C589.342,51.339,588.949,50.947,588.949,50.485z M588.949,47.135c0-0.462,0.393-0.854,0.854-0.854l0,0
								c0.479,0,0.855,0.393,0.855,0.854l0,0c0,0.478-0.377,0.855-0.855,0.855l0,0C589.342,47.991,588.949,47.613,588.949,47.135z"
								/>
						</g>
					</g>
					
						<line fill="none" stroke="#0A6CB5" stroke-width="1.5" stroke-miterlimit="10" x1="596.809" y1="56.313" x2="592.695" y2="60.426"/>
					
						<line fill="none" stroke="#0A6CB5" stroke-width="1.5" stroke-miterlimit="10" x1="596.809" y1="60.426" x2="592.695" y2="56.313"/>
					
						<line fill="none" stroke="#0A6CB5" stroke-width="1.5" stroke-miterlimit="10" x1="586.979" y1="56.527" x2="582.865" y2="60.64"/>
					
						<line fill="none" stroke="#0A6CB5" stroke-width="1.5" stroke-miterlimit="10" x1="586.979" y1="60.64" x2="582.865" y2="56.527"/>
					
						<line fill="none" stroke="#0A6CB5" stroke-width="1.5" stroke-miterlimit="10" x1="577.15" y1="56.741" x2="573.038" y2="60.854"/>
					
						<line fill="none" stroke="#0A6CB5" stroke-width="1.5" stroke-miterlimit="10" x1="577.15" y1="60.854" x2="573.038" y2="56.741"/>
					
						<line fill="none" stroke="#0A6CB5" stroke-width="1.5" stroke-miterlimit="10" x1="556.745" y1="66.783" x2="552.634" y2="70.897"/>
					
						<line fill="none" stroke="#0A6CB5" stroke-width="1.5" stroke-miterlimit="10" x1="556.745" y1="70.897" x2="552.634" y2="66.783"/>
				</g>
			</g>
			<g>
				<defs>
					<circle id="SVGID_3_" cx="574.625" cy="44.558" r="34.186"/>
				</defs>
				<clipPath id="SVGID_4_">
					<use xlink:href="#SVGID_3_"  overflow="visible"/>
				</clipPath>
				<g clip-path="url(#SVGID_4_)">
					
						<line fill="none" stroke="#0A6CB5" stroke-width="1.5" stroke-miterlimit="10" x1="549.614" y1="43.897" x2="599.752" y2="43.897"/>
				</g>
			</g>
			<g>
				<defs>
					<circle id="SVGID_5_" cx="574.625" cy="44.558" r="34.186"/>
				</defs>
				<clipPath id="SVGID_6_">
					<use xlink:href="#SVGID_5_"  overflow="visible"/>
				</clipPath>
				<g clip-path="url(#SVGID_6_)">
					
						<rect x="556.505" y="26.4" fill="#FFFFFF" stroke="#0A6CB5" stroke-width="1.5" stroke-miterlimit="10" width="3.029" height="8.974"/>
					
						<rect x="589.838" y="26.4" fill="#FFFFFF" stroke="#0A6CB5" stroke-width="1.5" stroke-miterlimit="10" width="3.027" height="8.974"/>
					
						<rect x="573.173" y="26.4" fill="#FFFFFF" stroke="#0A6CB5" stroke-width="1.5" stroke-miterlimit="10" width="3.027" height="8.974"/>
				</g>
			</g>
		</g>
		<circle fill="none" stroke="#0A6CB5" stroke-width="1.5" stroke-miterlimit="10" cx="574.625" cy="44.558" r="34.186"/>
	</g>
	<g>
		<g>
			<circle fill="none" stroke="#042F4F" stroke-width="1.5" stroke-miterlimit="10" cx="132.587" cy="131.512" r="34.19"/>
			<g>
				<g>
					<g>
						<path fill="none" stroke="#042F4F" stroke-width="1.5" stroke-miterlimit="10" d="M115.196,146.862
							c-0.911,0-1.656-0.744-1.656-1.655v-24.775c0-0.911,0.745-1.655,1.656-1.655h35.36c0.911,0,1.656,0.744,1.656,1.655v24.775
							c0,0.911-0.745,1.655-1.656,1.655H115.196z"/>
					</g>
				</g>
			</g>
			<g>
				<g>
					<g>
						<path fill="none" stroke="#042F4F" stroke-width="1.5" stroke-miterlimit="10" d="M142.366,118.81v-6.921
							c0-0.911-0.745-1.655-1.656-1.655h-15.667c-0.911,0-1.656,0.744-1.656,1.655v6.921"/>
					</g>
				</g>
			</g>
			<g>
				<g>
					<polyline fill="none" stroke="#042F4F" stroke-width="1.5" stroke-miterlimit="10" points="138.561,118.64 138.561,114.95 
						127.196,114.95 127.196,118.64 					"/>
				</g>
			</g>
		</g>
		
			<line fill="none" stroke="#042F4F" stroke-width="1.5" stroke-miterlimit="10" x1="118.147" y1="118.725" x2="118.147" y2="146.502"/>
		
			<line fill="none" stroke="#042F4F" stroke-width="1.5" stroke-miterlimit="10" x1="147.688" y1="118.725" x2="147.688" y2="146.502"/>
	</g>
	<g>
		<g>
			<path fill="none" stroke="#042F4F" stroke-width="1.5" stroke-linecap="round" d="M50.098,122.028
				c-1.654-1.014-3.6-1.601-5.683-1.604c-6.041-0.015-10.951,4.872-10.963,10.917c-0.012,6.042,4.876,10.947,10.914,10.962
				c0.015,0,0.029-0.001,0.044-0.001"/>
			<g>
				
					<line fill="none" stroke="#042F4F" stroke-width="1.5" stroke-linecap="round" x1="44.383" y1="149.284" x2="44.383" y2="156.284"/>
				
					<line fill="none" stroke="#042F4F" stroke-width="1.5" stroke-linecap="round" x1="40.713" y1="148.901" x2="39.28" y2="155.754"/>
				
					<line fill="none" stroke="#042F4F" stroke-width="1.5" stroke-linecap="round" x1="37.2" y1="147.778" x2="34.394" y2="154.19"/>
				
					<line fill="none" stroke="#042F4F" stroke-width="1.5" stroke-linecap="round" x1="33.99" y1="145.958" x2="29.931" y2="151.661"/>
				
					<line fill="none" stroke="#042F4F" stroke-width="1.5" stroke-linecap="round" x1="31.222" y1="143.519" x2="26.081" y2="148.269"/>
				
					<line fill="none" stroke="#042F4F" stroke-width="1.5" stroke-linecap="round" x1="29.011" y1="140.563" x2="23.007" y2="144.161"/>
				
					<line fill="none" stroke="#042F4F" stroke-width="1.5" stroke-linecap="round" x1="27.454" y1="137.221" x2="20.84" y2="139.512"/>
				
					<line fill="none" stroke="#042F4F" stroke-width="1.5" stroke-linecap="round" x1="26.613" y1="133.629" x2="19.67" y2="134.516"/>
				
					<line fill="none" stroke="#042F4F" stroke-width="1.5" stroke-linecap="round" x1="26.526" y1="129.94" x2="19.549" y2="129.387"/>
				
					<line fill="none" stroke="#042F4F" stroke-width="1.5" stroke-linecap="round" x1="27.196" y1="126.312" x2="20.48" y2="124.343"/>
				
					<line fill="none" stroke="#042F4F" stroke-width="1.5" stroke-linecap="round" x1="28.594" y1="122.896" x2="22.425" y2="119.594"/>
				
					<line fill="none" stroke="#042F4F" stroke-width="1.5" stroke-linecap="round" x1="30.663" y1="119.843" x2="25.3" y2="115.345"/>
				
					<line fill="none" stroke="#042F4F" stroke-width="1.5" stroke-linecap="round" x1="33.313" y1="117.276" x2="28.985" y2="111.776"/>
				
					<line fill="none" stroke="#042F4F" stroke-width="1.5" stroke-linecap="round" x1="36.433" y1="115.305" x2="33.323" y2="109.036"/>
				
					<line fill="none" stroke="#042F4F" stroke-width="1.5" stroke-linecap="round" x1="39.891" y1="114.017" x2="38.13" y2="107.243"/>
				
					<line fill="none" stroke="#042F4F" stroke-width="1.5" stroke-linecap="round" x1="43.538" y1="113.463" x2="43.203" y2="106.473"/>
				
					<line fill="none" stroke="#042F4F" stroke-width="1.5" stroke-linecap="round" x1="47.223" y1="113.668" x2="48.325" y2="106.758"/>
				
					<line fill="none" stroke="#042F4F" stroke-width="1.5" stroke-linecap="round" x1="50.786" y1="114.624" x2="53.281" y2="108.085"/>
				
					<line fill="none" stroke="#042F4F" stroke-width="1.5" stroke-linecap="round" x1="54.079" y1="116.288" x2="57.858" y2="110.399"/>
				
					<line fill="none" stroke="#042F4F" stroke-width="1.5" stroke-linecap="round" x1="56.96" y1="118.592" x2="61.867" y2="113.602"/>
			</g>
			<circle fill="none" stroke="#042F4F" stroke-width="1.5" cx="51.785" cy="123.351" r="2.039"/>
		</g>
		<circle fill="none" stroke="#042F4F" stroke-width="1.5" stroke-miterlimit="10" cx="44.195" cy="131.511" r="34.188"/>
	</g>
	<g>
		<circle fill="none" stroke="#042F4F" stroke-width="1.5" stroke-miterlimit="10" cx="220.983" cy="131.512" r="34.19"/>
		<g>
			<g>
				<g>
					<path fill="none" stroke="#042F4F" stroke-width="1.5" stroke-miterlimit="10" d="M200.739,130.256
						c-0.771,0-1.402-0.631-1.402-1.403v-12.033c0-0.771,0.631-1.402,1.402-1.402h4.979c0.772,0,1.404,0.631,1.404,1.402v12.033
						c0,0.772-0.632,1.403-1.404,1.403H200.739z"/>
				</g>
			</g>
			<g>
				<g>
					<path fill="none" stroke="#042F4F" stroke-width="1.5" stroke-miterlimit="10" d="M228.867,128.852
						c0,0.771-0.632,1.402-1.403,1.402h-12.957c-0.771,0-1.402-0.632-1.402-1.402v-12.034c0-0.771,0.631-1.402,1.402-1.402h11.715
						l0.966,0.01c12.392,0,18.38,9.314,18.38,20.936h-3.106c0-5.406-3.796-13.35-9.196-13.35c-2.807,0-4.397,1.271-4.397,3.866
						v1.975H228.867z"/>
				</g>
			</g>
			<path fill="none" stroke="#042F4F" stroke-width="1.5" stroke-miterlimit="10" d="M207.157,128.733
				c0-1.638,1.328-2.965,2.965-2.965c1.639,0,2.967,1.327,2.967,2.965"/>
			<path fill="none" stroke="#042F4F" stroke-width="1.5" stroke-miterlimit="10" d="M227.475,130.257
				c-1.638,0-2.966,1.328-2.966,2.965v18.957"/>
			<path fill="none" stroke="#042F4F" stroke-width="1.5" stroke-miterlimit="10" d="M213.089,116.827
				c0,1.639-1.328,2.966-2.967,2.966c-1.637,0-2.965-1.327-2.965-2.966"/>
			<path fill="none" stroke="#042F4F" stroke-width="1.5" stroke-miterlimit="10" d="M214.36,130.257
				c1.637,0,2.965,1.328,2.965,2.965v18.957"/>
		</g>
		<polyline fill="none" stroke="#042F4F" stroke-width="1.5" stroke-miterlimit="10" points="216.317,165.511 216.317,154.136 
			217.237,152.095 224.562,152.095 225.483,154.136 225.483,165.511 		"/>
		
			<line fill="none" stroke="#042F4F" stroke-width="1.5" stroke-miterlimit="10" x1="222.649" y1="155.974" x2="222.649" y2="165.511"/>
		
			<line fill="none" stroke="#042F4F" stroke-width="1.5" stroke-miterlimit="10" x1="219.15" y1="165.511" x2="219.15" y2="155.974"/>
	</g>
	
		<line fill="none" stroke="#ADADAD" stroke-width="1.5" stroke-linecap="round" stroke-miterlimit="10" x1="453.133" y1="128.837" x2="453.133" y2="128.837"/>
	<g>
		<g>
			<circle fill="none" stroke="#042F4F" stroke-width="1.5" stroke-miterlimit="10" cx="397.775" cy="131.197" r="34.189"/>
			<g>
				<g>
					<g>
						<path fill="none" stroke="#042F4F" stroke-width="1.5" stroke-miterlimit="10" d="M408.832,113.229
							c0-0.91-0.745-1.656-1.656-1.656h-21.958c-0.911,0-1.656,0.746-1.656,1.656v35.355c0,0.91,0.745,1.656,1.656,1.656h26.819
							c0.911,0,1.656-0.746,1.656-1.656v-7.998c0-0.911-0.745-1.656-1.656-1.656h-1.55c-0.911,0-1.656-0.745-1.656-1.656
							L408.832,113.229L408.832,113.229z"/>
					</g>
					<g>
						<path fill="none" stroke="#042F4F" stroke-width="1.5" stroke-miterlimit="10" d="M408.832,113.229
							c0-0.91-0.745-1.656-1.656-1.656h-21.958c-0.911,0-1.656,0.746-1.656,1.656v35.355c0,0.91,0.745,1.656,1.656,1.656h21.958
							c0.911,0,1.656-0.746,1.656-1.656v-10.303c0-0.91,0.745-1.655,1.656-1.655h1.55c0.911,0,1.656-0.745,1.656-1.656v-7.996
							c0-0.911-0.745-1.655-1.656-1.655h-1.55c-0.911,0-1.656-0.746-1.656-1.656V113.229z"/>
					</g>
					<g>
						<path fill="#FFFFFF" d="M408.832,148.585c0,0.91-0.745,1.656-1.656,1.656h-21.958c-0.911,0-1.656-0.746-1.656-1.656v-35.355
							c0-0.91,0.745-1.656,1.656-1.656h26.819c0.911,0,1.656,0.746,1.656,1.656v8c0,0.911-0.745,1.656-1.656,1.656h-1.55
							c-0.911,0-1.656,0.745-1.656,1.656L408.832,148.585L408.832,148.585z"/>
						<path fill="none" stroke="#042F4F" stroke-width="1.5" stroke-miterlimit="10" d="M408.832,148.585
							c0,0.91-0.745,1.656-1.656,1.656h-21.958c-0.911,0-1.656-0.746-1.656-1.656v-35.355c0-0.91,0.745-1.656,1.656-1.656h26.819
							c0.911,0,1.656,0.746,1.656,1.656v8c0,0.911-0.745,1.656-1.656,1.656h-1.55c-0.911,0-1.656,0.745-1.656,1.656L408.832,148.585
							L408.832,148.585z"/>
					</g>
				</g>
				<g>
					
						<line fill="none" stroke="#042F4F" stroke-width="1.5" stroke-linecap="round" stroke-miterlimit="10" x1="386.361" y1="117.766" x2="380.804" y2="117.766"/>
					
						<line fill="none" stroke="#042F4F" stroke-width="1.5" stroke-linecap="round" stroke-miterlimit="10" x1="386.361" y1="130.96" x2="380.804" y2="130.96"/>
					
						<line fill="none" stroke="#042F4F" stroke-width="1.5" stroke-linecap="round" stroke-miterlimit="10" x1="386.361" y1="144.153" x2="380.804" y2="144.153"/>
				</g>
				
					<line fill="none" stroke="#042F4F" stroke-width="1.5" stroke-miterlimit="10" x1="390.169" y1="118.229" x2="404.271" y2="118.229"/>
				
					<line fill="none" stroke="#042F4F" stroke-width="1.5" stroke-miterlimit="10" x1="390.169" y1="122.429" x2="404.271" y2="122.429"/>
				
					<line fill="none" stroke="#042F4F" stroke-width="1.5" stroke-miterlimit="10" x1="390.169" y1="126.632" x2="404.271" y2="126.632"/>
				
					<line fill="none" stroke="#042F4F" stroke-width="1.5" stroke-miterlimit="10" x1="390.169" y1="130.834" x2="404.271" y2="130.834"/>
				
					<line fill="none" stroke="#042F4F" stroke-width="1.5" stroke-miterlimit="10" x1="390.169" y1="135.034" x2="404.271" y2="135.034"/>
				
					<line fill="none" stroke="#042F4F" stroke-width="1.5" stroke-miterlimit="10" x1="390.169" y1="139.237" x2="404.271" y2="139.237"/>
				
					<line fill="none" stroke="#042F4F" stroke-width="1.5" stroke-miterlimit="10" x1="390.169" y1="143.438" x2="404.271" y2="143.438"/>
			</g>
		</g>
		<g>
			<polyline fill="none" stroke="#042F4F" stroke-width="1.5" stroke-miterlimit="10" points="374.927,135.811 369.978,130.862 
				374.927,125.911 			"/>
			<polyline fill="none" stroke="#042F4F" stroke-width="1.5" stroke-miterlimit="10" points="420.619,125.911 425.569,130.862 
				420.619,135.811 			"/>
		</g>
	</g>
	<g>
		<g>
			<g>
				<circle fill="none" stroke="#042F4F" stroke-width="1.5" stroke-miterlimit="10" cx="297.101" cy="118.183" r="3.521"/>
				<g>
					
						<line fill="none" stroke="#042F4F" stroke-width="1.5" stroke-miterlimit="10" x1="305.554" y1="115.95" x2="324.277" y2="115.95"/>
					
						<line fill="none" stroke="#042F4F" stroke-width="1.5" stroke-miterlimit="10" x1="305.554" y1="120.413" x2="319.814" y2="120.413"/>
				</g>
			</g>
			<g>
				<circle fill="none" stroke="#042F4F" stroke-width="1.5" stroke-miterlimit="10" cx="297.101" cy="131.154" r="3.521"/>
				<g>
					
						<line fill="none" stroke="#042F4F" stroke-width="1.5" stroke-miterlimit="10" x1="305.554" y1="128.922" x2="324.277" y2="128.922"/>
					
						<line fill="none" stroke="#042F4F" stroke-width="1.5" stroke-miterlimit="10" x1="305.554" y1="133.386" x2="319.814" y2="133.386"/>
				</g>
			</g>
			<g>
				<circle fill="none" stroke="#042F4F" stroke-width="1.5" stroke-miterlimit="10" cx="297.101" cy="144.125" r="3.521"/>
				<g>
					
						<line fill="none" stroke="#042F4F" stroke-width="1.5" stroke-miterlimit="10" x1="305.554" y1="141.894" x2="324.277" y2="141.894"/>
					
						<line fill="none" stroke="#042F4F" stroke-width="1.5" stroke-miterlimit="10" x1="305.554" y1="146.356" x2="319.814" y2="146.356"/>
				</g>
			</g>
		</g>
		<circle fill="none" stroke="#042F4F" stroke-width="1.5" stroke-miterlimit="10" cx="309.379" cy="131.529" r="34.19"/>
	</g>
	<g>
		<g>
			<circle fill="none" stroke="#042F4F" stroke-width="1.5" stroke-miterlimit="10" cx="486.171" cy="131.561" r="34.19"/>
			<g>
				<g>
					<g>
						<path fill="none" stroke="#042F4F" stroke-width="1.5" stroke-miterlimit="10" d="M501.52,148.952
							c0,0.91-0.745,1.656-1.656,1.656h-26.818c-0.911,0-1.656-0.746-1.656-1.656v-35.358c0-0.911,0.745-1.656,1.656-1.656h26.818
							c0.911,0,1.656,0.745,1.656,1.656V148.952z"/>
					</g>
				</g>
				
					<line fill="none" stroke="#042F4F" stroke-width="1.5" stroke-miterlimit="10" x1="469.129" y1="120.345" x2="473.653" y2="120.345"/>
				
					<line fill="none" stroke="#042F4F" stroke-width="1.5" stroke-miterlimit="10" x1="469.129" y1="123.961" x2="473.653" y2="123.961"/>
				
					<line fill="none" stroke="#042F4F" stroke-width="1.5" stroke-miterlimit="10" x1="469.129" y1="127.577" x2="473.653" y2="127.577"/>
				
					<line fill="none" stroke="#042F4F" stroke-width="1.5" stroke-miterlimit="10" x1="469.129" y1="131.192" x2="473.653" y2="131.192"/>
				
					<line fill="none" stroke="#042F4F" stroke-width="1.5" stroke-miterlimit="10" x1="469.129" y1="134.808" x2="473.653" y2="134.808"/>
				
					<line fill="none" stroke="#042F4F" stroke-width="1.5" stroke-miterlimit="10" x1="469.129" y1="145.655" x2="473.653" y2="145.655"/>
				
					<line fill="none" stroke="#042F4F" stroke-width="1.5" stroke-miterlimit="10" x1="469.129" y1="116.729" x2="473.653" y2="116.729"/>
				
					<line fill="none" stroke="#042F4F" stroke-width="1.5" stroke-miterlimit="10" x1="469.129" y1="138.423" x2="473.653" y2="138.423"/>
				
					<line fill="none" stroke="#042F4F" stroke-width="1.5" stroke-miterlimit="10" x1="469.129" y1="142.038" x2="473.653" y2="142.038"/>
			</g>
		</g>
		<polygon fill="none" stroke="#042F4F" stroke-width="1.5" stroke-miterlimit="10" points="485.335,121.409 488.521,126.928 
			491.708,132.448 485.335,132.448 478.961,132.448 482.151,126.928 		"/>
		
			<rect x="485.545" y="128.35" fill="none" stroke="#042F4F" stroke-width="1.5" stroke-miterlimit="10" width="9.856" height="9.854"/>
	</g>
	<g>
		<circle fill="none" stroke="#042F4F" stroke-width="1.5" stroke-miterlimit="10" cx="751.355" cy="131.558" r="34.189"/>
		<g>
			<g>
				<g>
					<path fill="none" stroke="#042F4F" stroke-width="1.5" stroke-miterlimit="10" d="M769.793,127.977
						c0,0.911-0.745,1.656-1.656,1.656h-13.213c-0.911,0-1.656-0.745-1.656-1.656V114.76c0-0.911,0.745-1.656,1.656-1.656h13.213
						c0.911,0,1.656,0.745,1.656,1.656V127.977z"/>
				</g>
				
					<line fill="none" stroke="#042F4F" stroke-width="1.5" stroke-miterlimit="10" x1="757.107" y1="121.368" x2="765.955" y2="121.368"/>
				<g>
					<path fill="none" stroke="#042F4F" stroke-width="1.5" stroke-miterlimit="10" d="M749.438,127.977
						c0,0.911-0.744,1.656-1.655,1.656H734.57c-0.911,0-1.656-0.745-1.656-1.656V114.76c0-0.911,0.745-1.656,1.656-1.656h13.211
						c0.911,0,1.656,0.745,1.656,1.656V127.977L749.438,127.977z"/>
				</g>
				
					<line fill="none" stroke="#042F4F" stroke-width="1.5" stroke-miterlimit="10" x1="736.752" y1="121.368" x2="745.6" y2="121.368"/>
				
					<line fill="none" stroke="#042F4F" stroke-width="1.5" stroke-miterlimit="10" x1="741.176" y1="116.946" x2="741.176" y2="125.792"/>
				<g>
					<path fill="none" stroke="#042F4F" stroke-width="1.5" stroke-miterlimit="10" d="M769.793,148.356
						c0,0.91-0.745,1.655-1.656,1.655h-13.213c-0.911,0-1.656-0.745-1.656-1.655v-13.214c0-0.911,0.745-1.655,1.656-1.655h13.213
						c0.911,0,1.656,0.744,1.656,1.655V148.356z"/>
				</g>
				
					<line fill="none" stroke="#042F4F" stroke-width="1.5" stroke-miterlimit="10" x1="757.107" y1="141.75" x2="765.955" y2="141.75"/>
				<g>
					<path fill="none" stroke="#042F4F" stroke-width="1.5" stroke-miterlimit="10" d="M749.438,148.356
						c0,0.91-0.744,1.655-1.655,1.655H734.57c-0.911,0-1.656-0.745-1.656-1.655v-13.214c0-0.911,0.745-1.655,1.656-1.655h13.211
						c0.911,0,1.656,0.744,1.656,1.655V148.356L749.438,148.356z"/>
				</g>
				
					<line fill="none" stroke="#042F4F" stroke-width="1.5" stroke-miterlimit="10" x1="738.047" y1="138.62" x2="744.301" y2="144.878"/>
				
					<line fill="none" stroke="#042F4F" stroke-width="1.5" stroke-miterlimit="10" x1="744.305" y1="138.62" x2="738.047" y2="144.878"/>
				<circle fill="#042F4F" cx="761.53" cy="144.957" r="1.069"/>
				<circle fill="#042F4F" cx="761.53" cy="138.541" r="1.069"/>
			</g>
		</g>
	</g>
	<g>
		<circle fill="none" stroke="#042F4F" stroke-width="1.5" stroke-miterlimit="10" cx="662.959" cy="131.558" r="34.189"/>
		<g>
			<g>
				<g>
					<g>
						<g>
							<polyline fill="none" stroke="#042F4F" stroke-width="1.5" stroke-miterlimit="10" points="648.348,162.433 648.348,142.763 
								644.072,126.437 639.797,142.763 639.797,156.933 							"/>
							
								<line fill="none" stroke="#042F4F" stroke-width="1.5" stroke-miterlimit="10" x1="641.961" y1="144.646" x2="639.797" y2="142.778"/>
							
								<line fill="none" stroke="#042F4F" stroke-width="1.5" stroke-miterlimit="10" x1="648.348" y1="142.778" x2="646.186" y2="144.646"/>
							
								<line fill="none" stroke="#042F4F" stroke-width="1.5" stroke-miterlimit="10" x1="642.594" y1="132.101" x2="645.627" y2="132.101"/>
							<polyline fill="none" stroke="#042F4F" stroke-width="1.5" stroke-miterlimit="10" points="641.961,158.433 641.961,144.646 
								644.072,142.418 646.186,144.646 646.186,161.308 							"/>
						</g>
					</g>
				</g>
			</g>
			<g>
				<path fill="none" stroke="#042F4F" stroke-width="1.5" stroke-miterlimit="10" d="M680.748,122.114v-1.183l0.342-1.305
					c0.17-0.589,0.596-0.582,0.748,0l0.34,1.304v1.184"/>
				<path fill="none" stroke="#042F4F" stroke-width="1.5" stroke-miterlimit="10" d="M686.102,156.725c0,0,0-2,0-5.018
					c0-16.661-3.452-29.563-3.452-29.563h-2.371c0,0-3.455,12.902-3.455,29.563c0,6.518,0,10.935,0,10.935"/>
				
					<line fill="none" stroke="#042F4F" stroke-width="1.5" stroke-miterlimit="10" x1="678.191" y1="133.114" x2="684.734" y2="133.114"/>
				
					<line fill="none" stroke="#042F4F" stroke-width="1.5" stroke-miterlimit="10" x1="676.807" y1="153.071" x2="686.119" y2="153.071"/>
				
					<line fill="none" stroke="#042F4F" stroke-width="1.5" stroke-miterlimit="10" x1="676.807" y1="150.608" x2="686.119" y2="150.608"/>
			</g>
			<g>
				<polyline fill="none" stroke="#042F4F" stroke-width="1.5" stroke-miterlimit="10" points="665.969,114.806 665.969,107.133 
					659.475,109.489 659.475,114.806 				"/>
				
					<line fill="none" stroke="#042F4F" stroke-width="1.5" stroke-miterlimit="10" x1="665.969" y1="108.919" x2="659.475" y2="111.276"/>
				<path fill="none" stroke="#042F4F" stroke-width="1.5" stroke-miterlimit="10" d="M671.266,164.683c0,0,0-28.346,0-32.566
					c0-5.013-3.733-4.932-3.733-9.192v-8.117h-9.619v8.117c0,4.262-3.734,4.181-3.734,9.192c0,4.222,0,32.566,0,32.566"/>
				
					<line fill="none" stroke="#042F4F" stroke-width="1.5" stroke-miterlimit="10" x1="671.191" y1="137.985" x2="654.254" y2="144.131"/>
				
					<line fill="none" stroke="#042F4F" stroke-width="1.5" stroke-miterlimit="10" x1="671.191" y1="143.517" x2="654.254" y2="149.663"/>
				
					<line fill="none" stroke="#042F4F" stroke-width="1.5" stroke-miterlimit="10" x1="671.191" y1="149.048" x2="654.254" y2="155.196"/>
			</g>
		</g>
	</g>
	<g>
		<g>
			<g>
				<defs>
					<circle id="SVGID_7_" cx="574.625" cy="131.557" r="34.187"/>
				</defs>
				<clipPath id="SVGID_8_">
					<use xlink:href="#SVGID_7_"  overflow="visible"/>
				</clipPath>
				<g clip-path="url(#SVGID_8_)">
					<g>
						<path fill="none" stroke="#042F4F" stroke-width="1.5" stroke-miterlimit="10" d="M599.752,169.045
							c0,0.911-0.745,1.655-1.656,1.655h-46.824c-0.911,0-1.656-0.744-1.656-1.655v-49.138c0-0.912,0.745-1.656,1.656-1.656h46.824
							c0.911,0,1.656,0.744,1.656,1.656V169.045z"/>
					</g>
					<g>
						<g>
							<path fill="#042F4F" d="M592.145,161.004c0-0.46,0.378-0.836,0.855-0.836l0,0c0.48,0,0.855,0.376,0.855,0.836l0,0
								c0,0.481-0.375,0.874-0.855,0.874l0,0C592.521,161.878,592.145,161.485,592.145,161.004z M588.812,161.004
								c0-0.46,0.377-0.836,0.854-0.836l0,0c0.461,0,0.838,0.376,0.838,0.836l0,0c0,0.481-0.377,0.874-0.838,0.874l0,0
								C589.189,161.878,588.812,161.485,588.812,161.004z M585.461,161.004c0-0.46,0.377-0.836,0.855-0.836l0,0
								c0.479,0,0.854,0.376,0.854,0.836l0,0c0,0.481-0.377,0.874-0.854,0.874l0,0C585.838,161.878,585.461,161.485,585.461,161.004
								z M582.129,161.004c0-0.46,0.377-0.836,0.838-0.836l0,0c0.478,0,0.854,0.376,0.854,0.836l0,0
								c0,0.481-0.377,0.874-0.854,0.874l0,0C582.506,161.878,582.129,161.485,582.129,161.004z M578.777,161.004
								c0-0.46,0.377-0.836,0.854-0.836l0,0c0.463,0,0.855,0.376,0.855,0.836l0,0c0,0.481-0.394,0.874-0.855,0.874l0,0
								C579.154,161.878,578.777,161.485,578.777,161.004z M575.429,161.004c0-0.46,0.396-0.836,0.854-0.836l0,0
								c0.479,0,0.854,0.376,0.854,0.836l0,0c0,0.481-0.374,0.874-0.854,0.874l0,0C575.823,161.878,575.429,161.485,575.429,161.004
								z M572.097,161.004c0-0.46,0.373-0.836,0.855-0.836l0,0c0.459,0,0.854,0.376,0.854,0.836l0,0
								c0,0.481-0.395,0.874-0.854,0.874l0,0C572.47,161.878,572.097,161.485,572.097,161.004z M568.745,161.004
								c0-0.46,0.393-0.836,0.854-0.836l0,0c0.48,0,0.855,0.376,0.855,0.836l0,0c0,0.481-0.375,0.874-0.855,0.874l0,0
								C569.138,161.878,568.745,161.485,568.745,161.004z M565.413,161.004c0-0.46,0.375-0.836,0.854-0.836l0,0
								c0.462,0,0.855,0.376,0.855,0.836l0,0c0,0.481-0.396,0.874-0.855,0.874l0,0C565.788,161.878,565.413,161.485,565.413,161.004
								z M562.062,161.004c0-0.46,0.395-0.836,0.854-0.836l0,0c0.48,0,0.855,0.376,0.855,0.836l0,0c0,0.481-0.375,0.874-0.855,0.874
								l0,0C562.456,161.878,562.062,161.485,562.062,161.004z M558.729,161.004c0-0.46,0.375-0.836,0.854-0.836l0,0
								c0.461,0,0.854,0.376,0.854,0.836l0,0c0,0.481-0.395,0.874-0.854,0.874l0,0C559.104,161.878,558.729,161.485,558.729,161.004
								z M555.376,161.004c0-0.46,0.379-0.836,0.854-0.836l0,0c0.48,0,0.855,0.376,0.855,0.836l0,0c0,0.481-0.375,0.874-0.855,0.874
								l0,0C555.755,161.878,555.376,161.485,555.376,161.004z M552.027,161.004c0-0.46,0.394-0.836,0.855-0.836l0,0
								c0.478,0,0.871,0.376,0.871,0.836l0,0c0,0.481-0.395,0.874-0.871,0.874l0,0C552.421,161.878,552.027,161.485,552.027,161.004
								z"/>
						</g>
						<g>
							<path fill="#042F4F" d="M596.352,161.858c-0.223,0-0.444-0.082-0.6-0.238c-0.17-0.17-0.256-0.393-0.256-0.599
								c0-0.222,0.086-0.444,0.24-0.616c0.34-0.322,0.889-0.307,1.213,0c0.151,0.172,0.256,0.396,0.256,0.616
								c0,0.206-0.104,0.429-0.24,0.581C596.777,161.774,596.572,161.858,596.352,161.858z"/>
						</g>
					</g>
					<g>
						<g>
							<path fill="#042F4F" d="M592.145,150.766c0-0.479,0.378-0.873,0.855-0.873l0,0c0.48,0,0.855,0.394,0.855,0.873l0,0
								c0,0.462-0.375,0.854-0.855,0.854l0,0C592.521,151.62,592.145,151.229,592.145,150.766z M588.812,150.766
								c0-0.479,0.377-0.873,0.854-0.873l0,0c0.461,0,0.838,0.394,0.838,0.873l0,0c0,0.462-0.377,0.854-0.838,0.854l0,0
								C589.189,151.62,588.812,151.229,588.812,150.766z M585.461,150.766c0-0.479,0.377-0.873,0.855-0.873l0,0
								c0.479,0,0.854,0.394,0.854,0.873l0,0c0,0.462-0.377,0.854-0.854,0.854l0,0C585.838,151.62,585.461,151.229,585.461,150.766z
								 M582.129,150.766c0-0.479,0.377-0.873,0.838-0.873l0,0c0.478,0,0.854,0.394,0.854,0.873l0,0
								c0,0.462-0.377,0.854-0.854,0.854l0,0C582.506,151.62,582.129,151.229,582.129,150.766z M578.777,150.766
								c0-0.479,0.377-0.873,0.854-0.873l0,0c0.463,0,0.855,0.394,0.855,0.873l0,0c0,0.462-0.394,0.854-0.855,0.854l0,0
								C579.154,151.62,578.777,151.229,578.777,150.766z M575.429,150.766c0-0.479,0.396-0.873,0.854-0.873l0,0
								c0.479,0,0.854,0.394,0.854,0.873l0,0c0,0.462-0.374,0.854-0.854,0.854l0,0C575.823,151.62,575.429,151.229,575.429,150.766z
								 M572.097,150.766c0-0.479,0.373-0.873,0.855-0.873l0,0c0.459,0,0.854,0.394,0.854,0.873l0,0
								c0,0.462-0.395,0.854-0.854,0.854l0,0C572.47,151.62,572.097,151.229,572.097,150.766z M568.745,150.766
								c0-0.479,0.393-0.873,0.854-0.873l0,0c0.48,0,0.855,0.394,0.855,0.873l0,0c0,0.462-0.375,0.854-0.855,0.854l0,0
								C569.138,151.62,568.745,151.229,568.745,150.766z M565.413,150.766c0-0.479,0.375-0.873,0.854-0.873l0,0
								c0.462,0,0.855,0.394,0.855,0.873l0,0c0,0.462-0.396,0.854-0.855,0.854l0,0C565.788,151.62,565.413,151.229,565.413,150.766z
								 M562.062,150.766c0-0.479,0.395-0.873,0.854-0.873l0,0c0.48,0,0.855,0.394,0.855,0.873l0,0c0,0.462-0.375,0.854-0.855,0.854
								l0,0C562.456,151.62,562.062,151.229,562.062,150.766z M558.729,150.766c0-0.479,0.375-0.873,0.854-0.873l0,0
								c0.461,0,0.854,0.394,0.854,0.873l0,0c0,0.462-0.395,0.854-0.854,0.854l0,0C559.104,151.62,558.729,151.229,558.729,150.766z
								 M555.376,150.766c0-0.479,0.379-0.873,0.854-0.873l0,0c0.48,0,0.855,0.394,0.855,0.873l0,0c0,0.462-0.375,0.854-0.855,0.854
								l0,0C555.755,151.62,555.376,151.229,555.376,150.766z M552.027,150.766c0-0.479,0.394-0.873,0.855-0.873l0,0
								c0.478,0,0.871,0.394,0.871,0.873l0,0c0,0.462-0.395,0.854-0.871,0.854l0,0C552.421,151.62,552.027,151.229,552.027,150.766z
								"/>
						</g>
						<g>
							<path fill="#042F4F" d="M596.352,151.62c-0.223,0-0.444-0.102-0.614-0.256c-0.154-0.154-0.24-0.377-0.24-0.617
								c0-0.221,0.086-0.428,0.24-0.58c0.34-0.342,0.889-0.324,1.213-0.018c0.17,0.17,0.256,0.395,0.256,0.599
								c0,0.239-0.104,0.444-0.256,0.616C596.777,151.519,596.572,151.62,596.352,151.62z"/>
						</g>
					</g>
					<g>
						<g>
							<path fill="#042F4F" d="M592.145,140.51c0-0.479,0.378-0.874,0.855-0.874l0,0c0.48,0,0.855,0.395,0.855,0.874l0,0
								c0,0.462-0.375,0.836-0.855,0.836l0,0C592.521,141.346,592.145,140.972,592.145,140.51z M588.812,140.51
								c0-0.479,0.377-0.874,0.854-0.874l0,0c0.461,0,0.838,0.395,0.838,0.874l0,0c0,0.462-0.377,0.836-0.838,0.836l0,0
								C589.189,141.346,588.812,140.972,588.812,140.51z M585.461,140.51c0-0.479,0.377-0.874,0.855-0.874l0,0
								c0.479,0,0.854,0.395,0.854,0.874l0,0c0,0.462-0.377,0.836-0.854,0.836l0,0C585.838,141.346,585.461,140.972,585.461,140.51z
								 M582.129,140.51c0-0.479,0.377-0.874,0.838-0.874l0,0c0.478,0,0.854,0.395,0.854,0.874l0,0c0,0.462-0.377,0.836-0.854,0.836
								l0,0C582.506,141.346,582.129,140.972,582.129,140.51z M578.777,140.51c0-0.479,0.377-0.874,0.854-0.874l0,0
								c0.463,0,0.855,0.395,0.855,0.874l0,0c0,0.462-0.394,0.836-0.855,0.836l0,0C579.154,141.346,578.777,140.972,578.777,140.51z
								 M575.429,140.51c0-0.479,0.396-0.874,0.854-0.874l0,0c0.479,0,0.854,0.395,0.854,0.874l0,0c0,0.462-0.374,0.836-0.854,0.836
								l0,0C575.823,141.346,575.429,140.972,575.429,140.51z M572.097,140.51c0-0.479,0.373-0.874,0.855-0.874l0,0
								c0.459,0,0.854,0.395,0.854,0.874l0,0c0,0.462-0.395,0.836-0.854,0.836l0,0C572.47,141.346,572.097,140.972,572.097,140.51z
								 M568.745,140.51c0-0.479,0.393-0.874,0.854-0.874l0,0c0.48,0,0.855,0.395,0.855,0.874l0,0c0,0.462-0.375,0.836-0.855,0.836
								l0,0C569.138,141.346,568.745,140.972,568.745,140.51z M565.413,140.51c0-0.479,0.375-0.874,0.854-0.874l0,0
								c0.462,0,0.855,0.395,0.855,0.874l0,0c0,0.462-0.396,0.836-0.855,0.836l0,0C565.788,141.346,565.413,140.972,565.413,140.51z
								 M562.062,140.51c0-0.479,0.395-0.874,0.854-0.874l0,0c0.48,0,0.855,0.395,0.855,0.874l0,0c0,0.462-0.375,0.836-0.855,0.836
								l0,0C562.456,141.346,562.062,140.972,562.062,140.51z M558.729,140.51c0-0.479,0.375-0.874,0.854-0.874l0,0
								c0.461,0,0.854,0.395,0.854,0.874l0,0c0,0.462-0.395,0.836-0.854,0.836l0,0C559.104,141.346,558.729,140.972,558.729,140.51z
								 M555.376,140.51c0-0.479,0.379-0.874,0.854-0.874l0,0c0.48,0,0.855,0.395,0.855,0.874l0,0c0,0.462-0.375,0.836-0.855,0.836
								l0,0C555.755,141.346,555.376,140.972,555.376,140.51z M552.027,140.51c0-0.479,0.394-0.874,0.855-0.874l0,0
								c0.478,0,0.871,0.395,0.871,0.874l0,0c0,0.462-0.395,0.836-0.871,0.836l0,0C552.421,141.346,552.027,140.972,552.027,140.51z
								"/>
						</g>
						<g>
							<path fill="#042F4F" d="M596.352,141.364c-0.223,0-0.444-0.103-0.614-0.256c-0.154-0.171-0.24-0.393-0.24-0.598
								c0-0.239,0.086-0.445,0.24-0.6c0.323-0.342,0.889-0.324,1.213-0.018c0.17,0.17,0.256,0.395,0.256,0.616
								c0,0.205-0.104,0.427-0.24,0.581C596.777,141.262,596.572,141.364,596.352,141.364z"/>
						</g>
					</g>
					<g>
						<g>
							<path fill="#042F4F" d="M558.608,167.567c0-0.478,0.395-0.854,0.854-0.854l0,0c0.477,0,0.854,0.377,0.854,0.854l0,0
								c0,0.463-0.378,0.854-0.854,0.854l0,0C559.003,168.423,558.608,168.03,558.608,167.567z M558.608,164.219
								c0-0.462,0.395-0.854,0.854-0.854l0,0c0.477,0,0.854,0.393,0.854,0.854l0,0c0,0.478-0.378,0.854-0.854,0.854l0,0
								C559.003,165.073,558.608,164.696,558.608,164.219z M558.608,160.885c0-0.479,0.395-0.854,0.854-0.854l0,0
								c0.477,0,0.854,0.375,0.854,0.854l0,0c0,0.462-0.378,0.854-0.854,0.854l0,0C559.003,161.739,558.608,161.348,558.608,160.885
								z M558.608,157.534c0-0.461,0.395-0.854,0.854-0.854l0,0c0.477,0,0.854,0.395,0.854,0.854l0,0
								c0,0.479-0.378,0.855-0.854,0.855l0,0C559.003,158.39,558.608,158.012,558.608,157.534z M558.608,154.185
								c0-0.463,0.395-0.854,0.854-0.854l0,0c0.477,0,0.854,0.392,0.854,0.854l0,0c0,0.479-0.378,0.854-0.854,0.854l0,0
								C559.003,155.04,558.608,154.663,558.608,154.185z M558.608,150.851c0-0.477,0.395-0.854,0.854-0.854l0,0
								c0.477,0,0.854,0.377,0.854,0.854l0,0c0,0.479-0.378,0.854-0.854,0.854l0,0C559.003,151.706,558.608,151.329,558.608,150.851
								z M558.608,147.502c0-0.464,0.395-0.855,0.854-0.855l0,0c0.477,0,0.854,0.394,0.854,0.855l0,0
								c0,0.479-0.378,0.854-0.854,0.854l0,0C559.003,148.356,558.608,147.979,558.608,147.502z M558.608,144.168
								c0-0.478,0.395-0.855,0.854-0.855l0,0c0.477,0,0.854,0.378,0.854,0.855l0,0c0,0.46-0.378,0.854-0.854,0.854l0,0
								C559.003,145.021,558.608,144.628,558.608,144.168z M558.608,140.817c0-0.463,0.395-0.854,0.854-0.854l0,0
								c0.477,0,0.854,0.392,0.854,0.854l0,0c0,0.479-0.378,0.854-0.854,0.854l0,0C559.003,141.672,558.608,141.297,558.608,140.817
								z M558.608,137.483c0-0.478,0.395-0.854,0.854-0.854l0,0c0.477,0,0.854,0.378,0.854,0.854l0,0
								c0,0.463-0.378,0.854-0.854,0.854l0,0C559.003,138.338,558.608,137.946,558.608,137.483z M558.608,134.135
								c0-0.462,0.395-0.854,0.854-0.854l0,0c0.477,0,0.854,0.394,0.854,0.854l0,0c0,0.478-0.378,0.854-0.854,0.854l0,0
								C559.003,134.989,558.608,134.612,558.608,134.135z"/>
						</g>
					</g>
					<g>
						<g>
							<path fill="#042F4F" d="M568.864,167.567c0-0.478,0.395-0.854,0.854-0.854l0,0c0.478,0,0.855,0.377,0.855,0.854l0,0
								c0,0.463-0.379,0.854-0.855,0.854l0,0C569.259,168.423,568.864,168.03,568.864,167.567z M568.864,164.219
								c0-0.462,0.395-0.854,0.854-0.854l0,0c0.478,0,0.855,0.393,0.855,0.854l0,0c0,0.478-0.379,0.854-0.855,0.854l0,0
								C569.259,165.073,568.864,164.696,568.864,164.219z M568.864,160.885c0-0.479,0.395-0.854,0.854-0.854l0,0
								c0.478,0,0.855,0.375,0.855,0.854l0,0c0,0.462-0.379,0.854-0.855,0.854l0,0C569.259,161.739,568.864,161.348,568.864,160.885
								z M568.864,157.534c0-0.461,0.395-0.854,0.854-0.854l0,0c0.478,0,0.855,0.395,0.855,0.854l0,0
								c0,0.479-0.379,0.855-0.855,0.855l0,0C569.259,158.39,568.864,158.012,568.864,157.534z M568.864,154.202
								c0-0.479,0.395-0.855,0.854-0.855l0,0c0.478,0,0.855,0.376,0.855,0.855l0,0c0,0.461-0.379,0.854-0.855,0.854l0,0
								C569.259,155.056,568.864,154.663,568.864,154.202z M568.864,150.851c0-0.477,0.395-0.854,0.854-0.854l0,0
								c0.478,0,0.855,0.377,0.855,0.854l0,0c0,0.479-0.379,0.854-0.855,0.854l0,0C569.259,151.706,568.864,151.329,568.864,150.851
								z M568.864,147.518c0-0.479,0.395-0.872,0.854-0.872l0,0c0.478,0,0.855,0.393,0.855,0.872l0,0
								c0,0.462-0.379,0.837-0.855,0.837l0,0C569.259,148.356,568.864,147.979,568.864,147.518z M568.864,144.168
								c0-0.478,0.395-0.855,0.854-0.855l0,0c0.478,0,0.855,0.378,0.855,0.855l0,0c0,0.479-0.379,0.854-0.855,0.854l0,0
								C569.259,145.021,568.864,144.646,568.864,144.168z M568.864,140.817c0-0.463,0.395-0.854,0.854-0.854l0,0
								c0.478,0,0.855,0.392,0.855,0.854l0,0c0,0.479-0.379,0.854-0.855,0.854l0,0C569.259,141.672,568.864,141.297,568.864,140.817
								z M568.864,137.483c0-0.478,0.395-0.854,0.854-0.854l0,0c0.478,0,0.855,0.378,0.855,0.854l0,0
								c0,0.463-0.379,0.854-0.855,0.854l0,0C569.259,138.338,568.864,137.946,568.864,137.483z M568.864,134.135
								c0-0.462,0.395-0.854,0.854-0.854l0,0c0.478,0,0.855,0.394,0.855,0.854l0,0c0,0.478-0.379,0.854-0.855,0.854l0,0
								C569.259,134.989,568.864,134.612,568.864,134.135z"/>
						</g>
					</g>
					<g>
						<g>
							<path fill="#042F4F" d="M579.121,167.567c0-0.478,0.393-0.854,0.854-0.854l0,0c0.478,0,0.855,0.377,0.855,0.854l0,0
								c0,0.463-0.379,0.854-0.855,0.854l0,0C579.514,168.423,579.121,168.03,579.121,167.567z M579.121,164.219
								c0-0.462,0.393-0.854,0.854-0.854l0,0c0.478,0,0.855,0.393,0.855,0.854l0,0c0,0.478-0.379,0.854-0.855,0.854l0,0
								C579.514,165.073,579.121,164.696,579.121,164.219z M579.121,160.885c0-0.479,0.393-0.854,0.854-0.854l0,0
								c0.478,0,0.855,0.375,0.855,0.854l0,0c0,0.462-0.379,0.854-0.855,0.854l0,0C579.514,161.739,579.121,161.348,579.121,160.885
								z M579.121,157.534c0-0.461,0.393-0.854,0.854-0.854l0,0c0.478,0,0.855,0.395,0.855,0.854l0,0
								c0,0.479-0.379,0.855-0.855,0.855l0,0C579.514,158.39,579.121,158.012,579.121,157.534z M579.121,154.202
								c0-0.479,0.393-0.855,0.854-0.855l0,0c0.478,0,0.855,0.376,0.855,0.855l0,0c0,0.461-0.379,0.838-0.855,0.838l0,0
								C579.514,155.04,579.121,154.663,579.121,154.202z M579.121,150.851c0-0.477,0.393-0.854,0.854-0.854l0,0
								c0.478,0,0.855,0.377,0.855,0.854l0,0c0,0.479-0.379,0.854-0.855,0.854l0,0C579.514,151.706,579.121,151.329,579.121,150.851
								z M579.121,147.502c0-0.464,0.393-0.855,0.854-0.855l0,0c0.478,0,0.855,0.394,0.855,0.855l0,0c0,0.479-0.379,0.87-0.855,0.87
								l0,0C579.514,148.372,579.121,147.979,579.121,147.502z M579.121,144.168c0-0.478,0.393-0.855,0.854-0.855l0,0
								c0.478,0,0.855,0.378,0.855,0.855l0,0c0,0.46-0.379,0.854-0.855,0.854l0,0C579.514,145.021,579.121,144.628,579.121,144.168z
								 M579.121,140.817c0-0.463,0.393-0.854,0.854-0.854l0,0c0.478,0,0.855,0.392,0.855,0.854l0,0
								c0,0.479-0.379,0.854-0.855,0.854l0,0C579.514,141.672,579.121,141.297,579.121,140.817z M579.121,137.483
								c0-0.478,0.393-0.854,0.854-0.854l0,0c0.478,0,0.855,0.378,0.855,0.854l0,0c0,0.463-0.379,0.854-0.855,0.854l0,0
								C579.514,138.338,579.121,137.946,579.121,137.483z M579.121,134.135c0-0.462,0.393-0.854,0.854-0.854l0,0
								c0.478,0,0.855,0.394,0.855,0.854l0,0c0,0.478-0.379,0.854-0.855,0.854l0,0C579.514,134.989,579.121,134.612,579.121,134.135
								z"/>
						</g>
					</g>
					<g>
						<g>
							<path fill="#042F4F" d="M588.949,167.567c0-0.478,0.393-0.854,0.854-0.854l0,0c0.479,0,0.855,0.377,0.855,0.854l0,0
								c0,0.463-0.377,0.854-0.855,0.854l0,0C589.342,168.423,588.949,168.03,588.949,167.567z M588.949,164.219
								c0-0.462,0.393-0.854,0.854-0.854l0,0c0.479,0,0.855,0.393,0.855,0.854l0,0c0,0.478-0.377,0.854-0.855,0.854l0,0
								C589.342,165.073,588.949,164.696,588.949,164.219z M588.949,160.885c0-0.479,0.393-0.854,0.854-0.854l0,0
								c0.479,0,0.855,0.375,0.855,0.854l0,0c0,0.462-0.377,0.854-0.855,0.854l0,0C589.342,161.739,588.949,161.348,588.949,160.885
								z M588.949,157.534c0-0.479,0.393-0.854,0.854-0.854l0,0c0.479,0,0.855,0.376,0.855,0.854l0,0
								c0,0.479-0.377,0.855-0.855,0.855l0,0C589.342,158.39,588.949,158.012,588.949,157.534z M588.949,154.185
								c0-0.463,0.393-0.839,0.854-0.839l0,0c0.479,0,0.855,0.376,0.855,0.839l0,0c0,0.479-0.377,0.871-0.855,0.871l0,0
								C589.342,155.056,588.949,154.663,588.949,154.185z M588.949,150.851c0-0.477,0.393-0.854,0.854-0.854l0,0
								c0.479,0,0.855,0.377,0.855,0.854l0,0c0,0.479-0.377,0.854-0.855,0.854l0,0C589.342,151.706,588.949,151.329,588.949,150.851
								z M588.949,147.502c0-0.464,0.393-0.839,0.854-0.839l0,0c0.479,0,0.855,0.375,0.855,0.839l0,0
								c0,0.479-0.377,0.854-0.855,0.854l0,0C589.342,148.356,588.949,147.979,588.949,147.502z M588.949,144.168
								c0-0.478,0.393-0.855,0.854-0.855l0,0c0.479,0,0.855,0.378,0.855,0.855l0,0c0,0.46-0.377,0.854-0.855,0.854l0,0
								C589.342,145.021,588.949,144.628,588.949,144.168z M588.949,140.817c0-0.463,0.393-0.854,0.854-0.854l0,0
								c0.479,0,0.855,0.392,0.855,0.854l0,0c0,0.479-0.377,0.854-0.855,0.854l0,0C589.342,141.672,588.949,141.297,588.949,140.817
								z M588.949,137.483c0-0.478,0.393-0.854,0.854-0.854l0,0c0.479,0,0.855,0.378,0.855,0.854l0,0
								c0,0.463-0.377,0.854-0.855,0.854l0,0C589.342,138.338,588.949,137.946,588.949,137.483z M588.949,134.135
								c0-0.462,0.393-0.854,0.854-0.854l0,0c0.479,0,0.855,0.394,0.855,0.854l0,0c0,0.478-0.377,0.854-0.855,0.854l0,0
								C589.342,134.989,588.949,134.612,588.949,134.135z"/>
						</g>
					</g>
					
						<line fill="none" stroke="#042F4F" stroke-width="1.5" stroke-miterlimit="10" x1="596.809" y1="143.312" x2="592.695" y2="147.426"/>
					
						<line fill="none" stroke="#042F4F" stroke-width="1.5" stroke-miterlimit="10" x1="596.809" y1="147.426" x2="592.695" y2="143.312"/>
					
						<line fill="none" stroke="#042F4F" stroke-width="1.5" stroke-miterlimit="10" x1="586.979" y1="143.526" x2="582.865" y2="147.639"/>
					
						<line fill="none" stroke="#042F4F" stroke-width="1.5" stroke-miterlimit="10" x1="586.979" y1="147.639" x2="582.865" y2="143.526"/>
					
						<line fill="none" stroke="#042F4F" stroke-width="1.5" stroke-miterlimit="10" x1="577.15" y1="143.739" x2="573.038" y2="147.853"/>
					
						<line fill="none" stroke="#042F4F" stroke-width="1.5" stroke-miterlimit="10" x1="577.15" y1="147.853" x2="573.038" y2="143.739"/>
					
						<line fill="none" stroke="#042F4F" stroke-width="1.5" stroke-miterlimit="10" x1="556.745" y1="153.782" x2="552.634" y2="157.896"/>
					
						<line fill="none" stroke="#042F4F" stroke-width="1.5" stroke-miterlimit="10" x1="556.745" y1="157.896" x2="552.634" y2="153.782"/>
				</g>
			</g>
			<g>
				<defs>
					<circle id="SVGID_9_" cx="574.625" cy="131.557" r="34.187"/>
				</defs>
				<clipPath id="SVGID_10_">
					<use xlink:href="#SVGID_9_"  overflow="visible"/>
				</clipPath>
				<g clip-path="url(#SVGID_10_)">
					
						<line fill="none" stroke="#042F4F" stroke-width="1.5" stroke-miterlimit="10" x1="549.614" y1="130.896" x2="599.752" y2="130.896"/>
				</g>
			</g>
			<g>
				<defs>
					<circle id="SVGID_11_" cx="574.625" cy="131.557" r="34.187"/>
				</defs>
				<clipPath id="SVGID_12_">
					<use xlink:href="#SVGID_11_"  overflow="visible"/>
				</clipPath>
				<g clip-path="url(#SVGID_12_)">
					
						<rect x="556.505" y="113.399" fill="#FFFFFF" stroke="#042F4F" stroke-width="1.5" stroke-miterlimit="10" width="3.029" height="8.973"/>
					
						<rect x="589.838" y="113.399" fill="#FFFFFF" stroke="#042F4F" stroke-width="1.5" stroke-miterlimit="10" width="3.027" height="8.973"/>
					
						<rect x="573.173" y="113.399" fill="#FFFFFF" stroke="#042F4F" stroke-width="1.5" stroke-miterlimit="10" width="3.027" height="8.973"/>
				</g>
			</g>
		</g>
		<circle fill="none" stroke="#042F4F" stroke-width="1.5" stroke-miterlimit="10" cx="574.625" cy="131.557" r="34.187"/>
	</g>
</g>
</svg>
