<?xml version="1.0" encoding="utf-8"?>
<!-- Generator: Adobe Illustrator 15.0.0, SVG Export Plug-In . SVG Version: 6.00 Build 0)  -->
<!DOCTYPE svg PUBLIC "-//W3C//DTD SVG 1.1//EN" "http://www.w3.org/Graphics/SVG/1.1/DTD/svg11.dtd">
<svg version="1.1" id="Layer_1" xmlns="http://www.w3.org/2000/svg" xmlns:xlink="http://www.w3.org/1999/xlink" x="0px" y="0px"
	 width="109.008px" height="67.801px" viewBox="0 0 109.008 67.801" style="enable-background:new 0 0 109.008 67.801;"
	 xml:space="preserve">
<style type="text/css">
<![CDATA[
	.st0{fill:none;stroke:#000000;stroke-width:1.5;}
	.st1{fill:none;stroke:#AAAAAA;stroke-width:1.5;stroke-miterlimit:10;}
	.st2{fill:none;stroke:#AAAAAA;}
	.st3{fill:none;stroke:#AAAAAA;stroke-width:1.5;}
	.st4{fill:none;stroke:#0A6CB5;stroke-width:1.5;stroke-miterlimit:10;}
	.st5{fill:none;stroke:#AFE2F7;stroke-width:1.5;}
	.st6{fill:none;stroke:#FFFFFF;stroke-width:1.5;}
]]>
</style>
<g>
	<g>
		<g>
			<g>
				<g>
					<g>
						<polyline class="st3" points="17.41,23.935 17.41,17.145 24.24,17.145 						"/>
					</g>
					<g>
						<polyline class="st3" points="17.41,10.357 17.41,17.145 10.664,17.145 						"/>
					</g>
				</g>
			</g>
		</g>
		<circle class="st3" cx="17.451" cy="17.148" r="14.999"/>
	</g>
</g>
<g>
	<g>
		<g>
			<g>
				<g>
					<g>
						<line class="st2" x1="44.556" y1="17.145" x2="58.132" y2="17.145"/>
					</g>
				</g>
			</g>
		</g>
		<circle class="st2" cx="51.344" cy="17.148" r="14.999"/>
	</g>
	<g>
		<g>
			<g>
				<g>
					<g>
						<line class="st0" x1="44.556" y1="17.145" x2="58.132" y2="17.145"/>
						<line class="st0" x1="44.556" y1="17.145" x2="58.132" y2="17.145"/>
					</g>
				</g>
			</g>
			<g>
				<g>
					<g>
						<line class="st0" x1="44.556" y1="17.145" x2="58.132" y2="17.145"/>
						<line class="st0" x1="44.556" y1="17.145" x2="58.132" y2="17.145"/>
					</g>
				</g>
			</g>
			<g>
				<g>
					<g>
						<line class="st0" x1="44.556" y1="17.145" x2="58.132" y2="17.145"/>
						<line class="st0" x1="44.556" y1="17.145" x2="58.132" y2="17.145"/>
					</g>
				</g>
			</g>
		</g>
		<circle class="st0" cx="51.344" cy="17.148" r="14.999"/>
	</g>
</g>
<g>
	<path class="st4" d="M86.609,11.703c0,4.485-3.636,8.125-8.12,8.125s-8.12-3.639-8.12-8.125c0-4.484,3.636-8.12,8.12-8.12
		S86.609,7.219,86.609,11.703z"/>
	<line class="st4" x1="75.155" y1="11.703" x2="81.824" y2="11.703"/>
	<line class="st4" x1="78.489" y1="8.37" x2="78.489" y2="15.038"/>
</g>
<g>
	<path class="st4" d="M105.796,11.703c0,4.485-3.636,8.125-8.12,8.125s-8.12-3.639-8.12-8.125c0-4.484,3.636-8.12,8.12-8.12
		S105.796,7.219,105.796,11.703z"/>
	<line class="st4" x1="94.342" y1="11.703" x2="101.011" y2="11.703"/>
</g>
<g>
	<g>
		<g>
			<g>
				<g>
					<g>
						<polyline class="st6" points="17.41,56.921 17.41,50.13 24.24,50.13 						"/>
					</g>
					<g>
						<polyline class="st6" points="17.41,43.343 17.41,50.13 10.664,50.13 						"/>
					</g>
				</g>
			</g>
		</g>
		<circle class="st6" cx="17.451" cy="50.134" r="14.999"/>
	</g>
</g>
<g>
	<g>
		<g>
			<g>
				<line class="st6" x1="44.556" y1="50.13" x2="58.132" y2="50.13"/>
			</g>
		</g>
	</g>
</g>
<circle class="st6" cx="51.344" cy="50.134" r="14.999"/>
<g>
	<g>
		<path class="st1" d="M86.609,30.917c0,4.486-3.636,8.125-8.12,8.125s-8.12-3.639-8.12-8.125c0-4.483,3.636-8.119,8.12-8.119
			S86.609,26.433,86.609,30.917z"/>
		<line class="st1" x1="75.155" y1="30.917" x2="81.824" y2="30.917"/>
		<line class="st1" x1="78.489" y1="27.583" x2="78.489" y2="34.252"/>
	</g>
</g>
<g>
	<path class="st1" d="M105.796,30.917c0,4.486-3.636,8.125-8.12,8.125s-8.12-3.639-8.12-8.125c0-4.483,3.636-8.119,8.12-8.119
		S105.796,26.433,105.796,30.917z"/>
	<line class="st1" x1="94.342" y1="30.917" x2="101.011" y2="30.917"/>
</g>
<g>
	<g>
		<g>
			<g>
				<polyline class="st5" points="83.253,51.577 78.497,46.737 83.253,41.895 				"/>
			</g>
			<g>
				<polyline class="st5" points="73.732,41.895 78.49,46.737 73.732,51.577 				"/>
			</g>
		</g>
	</g>
</g>
<g>
	<g>
		<g>
			<g>
				<polyline class="st6" points="83.253,64.827 78.497,59.987 83.253,55.145 				"/>
			</g>
			<g>
				<polyline class="st6" points="73.732,55.145 78.49,59.987 73.732,64.827 				"/>
			</g>
		</g>
	</g>
</g>
</svg>
