<?xml version="1.0" encoding="utf-8"?>
<!-- Generator: Adobe Illustrator 16.0.0, SVG Export Plug-In . SVG Version: 6.00 Build 0)  -->
<!DOCTYPE svg PUBLIC "-//W3C//DTD SVG 1.1//EN" "http://www.w3.org/Graphics/SVG/1.1/DTD/svg11.dtd">
<svg version="1.1" id="Layer_1" xmlns="http://www.w3.org/2000/svg" xmlns:xlink="http://www.w3.org/1999/xlink" x="0px" y="0px"
	 width="74px" height="74.5px" viewBox="0 0 74 74.5" enable-background="new 0 0 74 74.5" xml:space="preserve">
<g id="blue" display="none">
	<rect x="-30.2" y="-13.5" display="inline" fill="#0472BE" width="351" height="105"/>
</g>
<g id="icons">
	<g>
		<path d="M37.2,1C17.2,1,0.9,17.3,0.9,37.2c0,19.899,16.3,36.2,36.2,36.2S73.3,57.1,73.3,37.2C73.3,17.3,57.1,1,37.2,1z M37.2,71.5
			C18.3,71.5,3,56.1,3,37.3S18.3,3,37.2,3C56.1,3,71.4,18.4,71.4,37.2C71.4,56,56,71.5,37.2,71.5z"/>
		<path d="M45.6,34.7c0-6.5-5.3-11.7-11.7-11.7c-6.5,0-11.7,5.3-11.7,11.7c0,6.399,5.3,11.7,11.7,11.7c1.6,0,3.2-0.301,4.6-1
			l8.4,8.399l6.199-6.2L44.7,39.2C45.2,37.9,45.6,36.3,45.6,34.7z M33.8,41.4c-3.7,0-6.7-3-6.7-6.7s3-6.7,6.7-6.7
			c3.7,0,6.7,3,6.7,6.7S37.5,41.4,33.8,41.4z"/>
	</g>
</g>
</svg>
