<?xml version="1.0" encoding="utf-8"?>
<!-- Generator: Adobe Illustrator 16.0.4, SVG Export Plug-In . SVG Version: 6.00 Build 0)  -->
<!DOCTYPE svg PUBLIC "-//W3C//DTD SVG 1.1//EN" "http://www.w3.org/Graphics/SVG/1.1/DTD/svg11.dtd">
<svg version="1.1" id="Layer_1" xmlns="http://www.w3.org/2000/svg" xmlns:xlink="http://www.w3.org/1999/xlink" x="0px" y="0px"
	 width="89.5px" height="69.2px" viewBox="0 0 89.5 69.2" style="enable-background:new 0 0 89.5 69.2;" xml:space="preserve">
<style type="text/css">
<![CDATA[
	.st0{display:inline;fill:#0472BE;}
	.st1{display:none;}
]]>
</style>
<g id="blue" class="st1">
	<rect x="-235" y="-16.2" class="st0" width="351" height="105"/>
</g>
<g id="icons">
	<g>
		<path d="M23.1,24.6h42.8c1.1,0,2-0.9,2-2s-0.9-2-2-2H23.1c-1.1,0-2,0.9-2,2S22,24.6,23.1,24.6z"/>
		<path d="M66.3,32.5H23.5c-1.1,0-2,0.9-2,2s0.9,2,2,2h42.8c1.1,0,2-0.9,2-2S67.4,32.5,66.3,32.5z"/>
		<path d="M66,44.4H23.3c-1.1,0-2,0.9-2,2s0.9,2,2,2H66c1.1,0,2-0.9,2-2S67.1,44.4,66,44.4z"/>
		<path d="M81.8,0.8H7.6c-3.7,0-6.7,3-6.7,6.7v53.9c0,3.7,3,6.7,6.7,6.7h74.2c3.7,0,6.7-3,6.7-6.7V7.6C88.5,3.8,85.5,0.8,81.8,0.8z
			 M86.5,61.4c0,2.6-2.1,4.7-4.7,4.7H7.6c-2.6,0-4.7-2.1-4.7-4.7V7.6C2.9,5,5,2.9,7.6,2.9h74.2c2.6,0,4.7,2.1,4.7,4.7V61.4z"/>
	</g>
</g>
</svg>
