<?xml version="1.0" encoding="utf-8"?>
<!-- Generator: Adobe Illustrator 16.0.4, SVG Export Plug-In . SVG Version: 6.00 Build 0)  -->
<!DOCTYPE svg PUBLIC "-//W3C//DTD SVG 1.1//EN" "http://www.w3.org/Graphics/SVG/1.1/DTD/svg11.dtd">
<svg version="1.1" id="Layer_1" xmlns="http://www.w3.org/2000/svg" xmlns:xlink="http://www.w3.org/1999/xlink" x="0px" y="0px"
	 width="74.5px" height="73.8px" viewBox="0 0 74.5 73.8" style="enable-background:new 0 0 74.5 73.8;" xml:space="preserve">
<style type="text/css">
<![CDATA[
	.st0{display:inline;fill:#0472BE;}
	.st1{display:none;}
]]>
</style>
<g id="blue" class="st1">
	<rect x="-130.5" y="-13.8" class="st0" width="351" height="105"/>
</g>
<g id="icons">
	<g>
		<path d="M37.4,0.7C17.4,0.7,1.1,17,1.1,37c0,20,16.3,36.2,36.2,36.2C57.2,73.2,73.6,57,73.6,37C73.6,17,57.4,0.7,37.4,0.7z
			 M37.4,2.7c18.9,0,34.2,15.4,34.2,34.2c0,8.3-2.9,15.8-7.8,21.8C60,51.1,53.2,45.6,45.2,43.4c-2.3,1.5-5,2.3-7.8,2.3
			c-2.9,0-5.5-0.9-7.8-2.3c-8,2.2-14.9,7.8-18.6,15.3C6.1,52.8,3.1,45.2,3.1,37C3.1,18.1,18.5,2.7,37.4,2.7z"/>
		<path d="M37.4,40.8c5.8,0,10.6-5.3,10.6-11.9S44.6,17,37.4,17s-10.6,5.3-10.6,11.9S31.6,40.8,37.4,40.8z"/>
	</g>
</g>
</svg>
